<?xml version="1.0" encoding="utf-8"?>
<!-- Generator: Adobe Illustrator 24.0.0, SVG Export Plug-In . SVG Version: 6.00 Build 0)  -->
<svg version="1.1" id="Layer_1" xmlns="http://www.w3.org/2000/svg" xmlns:xlink="http://www.w3.org/1999/xlink" x="0px" y="0px"
	 viewBox="0 0 256 256" enable-background="new 0 0 256 256" xml:space="preserve">
<g>
</g>
<g>
	<polygon fill="#EFEFEF" points="220.407,101.966 213.396,236.662 42.605,236.662 35.593,101.966 128,43.004 	"/>
	<path fill="#FC5D3D" d="M252.568,105.377l-4.771,7.482c-1.647,2.582-5.075,3.34-7.657,1.693l-19.732-12.587L128,43.004
		l-92.407,58.962l-19.732,12.587c-2.582,1.647-6.01,0.889-7.657-1.693l-4.772-7.484c-1.646-2.581-0.888-6.009,1.693-7.655
		C16.038,90.757,116.934,26.388,128,19.328c32.493,20.725,123.052,78.506,122.873,78.392
		C253.456,99.367,254.214,102.795,252.568,105.377z"/>
	<polygon fill="#72C2E9" points="220.407,101.966 213.396,236.662 42.605,236.662 35.593,101.966 128,43.004 	"/>
	<path fill="#C5E5FE" d="M70.679,227.604h-19.6c-1.37,0-2.5-1.119-2.5-2.489c0-1.38,1.13-2.5,2.5-2.5h19.6c1.38,0,2.5,1.12,2.5,2.5
		C73.179,226.485,72.06,227.604,70.679,227.604z"/>
	<path fill="#C5E5FE" d="M185.319,227.615c-1.38,0-2.5-1.13-2.5-2.511c0-1.369,1.12-2.5,2.5-2.5h15.271l4.39-111.31
		c0.051-1.38,1.2-2.48,2.59-2.39c1.398,0.041,2.462,1.226,2.4,2.59l-4.47,113.71c-0.061,1.35-1.15,2.399-2.5,2.399L185.319,227.615z
		"/>
	<path fill="#7D7B79" d="M185.322,236.662H70.678v-62.548c0-31.658,25.664-57.322,57.322-57.322h0
		c31.658,0,57.322,25.664,57.322,57.322V236.662z"/>
	<path fill="#F8E5B2" d="M146.822,181.001v9.583c-5.179,4.547-11.714,7.25-18.821,7.25c-7.107,0-13.643-2.702-18.821-7.25v-9.583
		c0-8.536,6.917-15.464,15.464-15.464h6.714C139.905,165.537,146.822,172.465,146.822,181.001z"/>
	<path fill="#B34F33" d="M134.651,170.443c0,3.673-2.978,6.651-6.651,6.651s-6.651-2.978-6.651-6.651s2.978-4.907,6.651-4.907
		S134.651,166.77,134.651,170.443z"/>
	<path fill="#B34F33" d="M105.357,145.06l-5.298,27.095c-0.179,0.928-0.512,1.786-0.976,2.559c-1.702,2.929-5.131,4.607-8.643,3.917
		c-4.548-0.893-7.452-5.369-6.417-9.881C85.209,163.529,85.019,153.922,105.357,145.06z"/>
	<path fill="#B34F33" d="M165.56,178.632c-3.512,0.691-6.929-0.976-8.643-3.905c-0.012,0,0-0.012,0-0.012
		c-0.464-0.774-0.798-1.631-0.976-2.559l-5.298-27.095c19.885,8.664,20.019,17.902,21.333,23.69
		C173.023,173.286,170.089,177.74,165.56,178.632z"/>
	<path fill="#EDC21D" d="M150.964,186.209c2.607-3.321,4.655-7.214,5.952-11.488c0-0.012,0-0.012,0-0.012
		c-0.464-0.774-0.798-1.631-0.976-2.56l-5.298-27.095c-5.571-4.512-13.655-6.31-22.643-6.31s-17.071,1.798-22.643,6.31
		l-5.298,27.095c-0.179,0.928-0.512,1.786-0.976,2.56c1.274,4.167,3.238,7.964,5.762,11.226
		c-10.857,8.69-17.524,22.011-17.524,36.488v2.902c0,6.261,5.075,11.336,11.336,11.336h58.685c6.261,0,11.336-5.075,11.336-11.336
		v-2.485C168.679,208.269,161.929,194.888,150.964,186.209z"/>
	<path fill="#EFEFEF" d="M148.604,87.495c2.14-1.373,3.562-3.768,3.562-6.499c0-4.265-3.458-7.723-7.723-7.723
		c-4.571,0-8.258,3.993-7.652,8.713h-17.584c0.607-4.728-3.088-8.713-7.652-8.713c-4.265,0-7.723,3.458-7.723,7.723
		c0,2.732,1.422,5.126,3.562,6.499c-2.14,1.373-3.562,3.768-3.562,6.499c0,4.265,3.458,7.723,7.723,7.723
		c4.71,0,8.43-4.222,7.603-9.037h17.683c-0.826,4.81,2.887,9.037,7.603,9.037c4.265,0,7.723-3.458,7.723-7.723
		C152.166,91.263,150.745,88.868,148.604,87.495z"/>
	<path d="M37.55,74.064c0,0-0.01,0-0.01,0.011c-1.16,0.739-1.5,2.29-0.76,3.45c0.747,1.169,2.29,1.512,3.45,0.76
		c1.16-0.74,1.5-2.29,0.76-3.45C40.28,73.715,38.679,73.354,37.55,74.064z"/>
	<path d="M252.22,95.615c-2.49-1.589-105.655-67.416-122.88-78.391c-0.8-0.52-1.88-0.52-2.68,0
		c-9.359,5.968-70.95,45.256-80.71,51.48c-1.16,0.74-1.5,2.29-0.76,3.45c0.72,1.13,2.32,1.489,3.45,0.77
		c70.489-44.967,21.422-13.674,79.36-50.63c0.131,0.083,121.399,77.434,121.52,77.53c0.011,0,0.011,0,0.011,0
		c1.353,0.86,1.865,2.699,0.93,4.21l-4.771,7.479c-0.879,1.382-2.757,1.859-4.21,0.931L129.34,40.895c-0.8-0.51-1.88-0.51-2.68,0
		L14.52,112.445c-1.449,0.926-3.329,0.455-4.21-0.931l-4.77-7.479c-0.9-1.404-0.507-3.296,0.93-4.21
		c3.179-2.028,23.298-14.866,25.35-16.17c1.16-0.74,1.5-2.29,0.76-3.45c-0.72-1.13-2.32-1.49-3.45-0.771
		c-2.559,1.642-6.058,3.872-25.35,16.181c-3.747,2.379-4.843,7.321-2.46,11.1l4.78,7.49c2.425,3.818,7.434,4.809,11.1,2.45
		l16.122-10.286l6.788,130.426c0.07,1.33,1.16,2.37,2.49,2.37c5.438,0,164.763,0,170.8,0c1.33,0,2.42-1.04,2.49-2.37l3.37-64.79
		c0.07-1.38-0.99-2.56-2.36-2.63c-1.42-0.061-2.55,0.99-2.63,2.35c0,0.011,0,0.011,0,0.021l-3.25,62.42h-23.2v-60.05
		c0-33.098-26.805-59.82-59.819-59.82c-16.873,0-32.645,7.01-43.91,19.19c-0.94,1.01-0.88,2.6,0.13,3.54
		c0.98,0.899,2.64,0.829,3.54-0.141c10.35-11.18,25.02-17.59,40.24-17.59c30.324,0,54.819,24.524,54.819,54.82v60.05h-14.846
		c2-2.399,3.206-5.48,3.206-8.84v-2.48c0-6.13-1.12-12.13-3.33-17.819c-0.49-1.24-1.99-1.91-3.24-1.421
		c-1.296,0.503-1.926,1.974-1.42,3.23c1.98,5.12,2.99,10.5,2.99,16.01v2.48c-0.01,4.859-3.97,8.83-8.84,8.84h-18.598
		c1.158-5.223,5.83-9.15,11.408-9.15c1.619,0,2.815-1.505,2.431-3.09c-0.67-2.74-1.761-5.37-3.23-7.82
		c-0.68-1.14-2.28-1.55-3.43-0.859c-1.15,0.685-1.589,2.226-0.851,3.43v0.01c0.711,1.17,1.311,2.4,1.79,3.66
		c-6.921,1.375-12.138,6.989-13.192,13.82h-11.332c-1.048-6.832-6.266-12.445-13.196-13.82c0.49-1.26,1.09-2.5,1.79-3.67
		c0.71-1.189,0.33-2.72-0.85-3.43c-1.236-0.731-2.743-0.302-3.43,0.859c-1.48,2.45-2.56,5.08-3.23,7.82
		c-0.383,1.572,0.8,3.09,2.43,3.09c5.579,0,10.25,3.927,11.409,9.15H98.659c-4.87-0.01-8.83-3.98-8.84-8.84v-2.9
		c0-12.56,5.36-24.56,14.71-32.95c5.713,6.517,14.199,10.86,23.45,10.86h0.04c8.854,0,17.181-3.946,23.24-10.62
		c0.54,0.48,1.06,0.96,1.56,1.46c0.961,0.93,2.61,0.91,3.54-0.05c0.96-0.99,0.94-2.57-0.05-3.54
		c-0.629-0.613-1.281-1.21-1.948-1.793c1.381-2.023,2.559-4.178,3.525-6.449c2.344,1.636,5.211,2.313,8.154,1.742
		c5.912-1.169,9.746-7.015,8.37-12.9c-1.331-5.851-1.234-15.591-22.477-25.287c-5.638-4.404-13.675-6.643-23.933-6.653
		c-10.259,0.01-18.297,2.249-23.935,6.653c-20.845,9.455-21.053,19.025-22.475,25.297c-1.381,5.666,2.318,11.693,8.37,12.89
		c2.976,0.56,5.814-0.116,8.161-1.753c0.931,2.183,2.051,4.249,3.353,6.184c-10.355,9.157-16.654,22.405-16.654,36.909v2.9
		c0,3.36,1.206,6.441,3.206,8.84H73.179v-60.05c0-7.36,1.43-14.511,4.26-21.24c0.54-1.271-0.06-2.74-1.33-3.271
		c-1.25-0.529-2.76,0.091-3.28,1.33c-3.09,7.351-4.65,15.141-4.65,23.181v60.05h-23.2l-6.815-130.886L128,45.965l89.835,57.32
		l-2.525,48.48c-0.07,1.4,1.029,2.63,2.5,2.63c1.33,0,2.42-1.04,2.49-2.369l2.377-45.651l16.113,10.281
		c3.733,2.384,8.709,1.33,11.109-2.45l4.78-7.48C257.095,102.869,255.912,97.96,252.22,95.615z M144.319,189.388
		c-4.293,3.484-9.017,5.337-13.819,5.808v-15.958c4.369-1.244,7.129-5.518,6.59-9.839c4.268,2.127,7.222,6.526,7.229,11.605V189.388
		z M132.149,170.445c0,2.279-1.859,4.14-4.149,4.149c-2.28-0.01-4.15-1.87-4.15-4.149c0.063-1.211,0.424-2.41,4.07-2.41h0.16
		C131.7,168.035,132.087,169.226,132.149,170.445z M125.5,179.238v15.958c-5.101-0.5-9.668-2.438-13.82-5.815v-8.376
		c0.007-5.079,2.962-9.478,7.23-11.605C118.372,173.699,121.115,177.987,125.5,179.238z M169.54,169.305
		c0.739,3.196-1.355,6.266-4.46,6.87c-2.995,0.578-6.078-1.379-6.681-4.49l-4.319-22.1
		C168.537,157.639,167.949,162.302,169.54,169.305z M148.367,146.453l5.123,26.182c0.139,0.749,0.433,1.647,0.729,2.311
		c-1.14,3.382-2.793,6.493-4.9,9.274v-3.215c0-9.91-8.06-17.97-17.96-17.97h-6.72c-9.9,0-17.96,8.06-17.96,17.97v3.202
		c-2.099-2.754-3.747-5.872-4.9-9.273c0.282-0.612,0.592-1.534,0.74-2.31l5.11-26.17c4.62-3.41,11.63-5.209,20.269-5.209
		C134.845,141.245,142.794,142.35,148.367,146.453z M90.909,176.175c-3.164-0.618-5.185-3.769-4.45-6.86
		c1.567-6.919,0.937-11.656,15.461-19.724l-4.311,22.075C97.007,174.631,94.199,176.783,90.909,176.175z"/>
	<path d="M112.72,161.885c1.38,0,2.5-1.12,2.5-2.5v-0.99c0-1.38-1.12-2.5-2.5-2.5s-2.5,1.12-2.5,2.5v0.99
		C110.22,160.765,111.34,161.885,112.72,161.885z"/>
	<path d="M143.28,161.885c1.38,0,2.5-1.12,2.5-2.5v-0.99c0-1.38-1.12-2.5-2.5-2.5c-1.381,0-2.5,1.12-2.5,2.5v0.99
		C140.78,160.765,141.899,161.885,143.28,161.885z"/>
	<path d="M159.55,194.985c-1.13,0.738-1.48,2.279-0.7,3.46c0.767,1.167,2.33,1.452,3.46,0.71c1.15-0.761,1.46-2.311,0.71-3.45
		c0-0.01,0-0.01,0-0.021C162.28,194.575,160.67,194.245,159.55,194.985z"/>
	<path d="M81.159,140.975c-1.13-0.729-2.73-0.38-3.45,0.73c-0.01,0.01-0.01,0.01-0.01,0.01c-0.737,1.149-0.424,2.717,0.75,3.46
		c1.157,0.752,2.704,0.411,3.45-0.74c0.01-0.01,0.01-0.01,0.01-0.02C82.652,143.26,82.309,141.714,81.159,140.975z"/>
	<path d="M217.42,159.385c-1.43-0.06-2.561,1-2.63,2.37c-0.066,1.456,1.085,2.63,2.5,2.63c1.33,0,2.43-1.04,2.49-2.37
		C219.859,160.662,218.842,159.471,217.42,159.385z"/>
	<path d="M144.439,70.775c-5.04,0-9.38,3.739-10.109,8.71h-12.67c-0.72-4.971-5.06-8.71-10.1-8.71c-5.64,0-10.23,4.59-10.23,10.22
		c0,2.37,0.83,4.67,2.34,6.5c-1.51,1.83-2.34,4.13-2.34,6.5c0,5.63,4.59,10.22,10.23,10.22c5.2,0,9.56-3.89,10.15-9.03h12.58
		c0.59,5.141,4.939,9.03,10.149,9.03c5.641,0,10.23-4.59,10.23-10.22c0-2.37-0.83-4.67-2.34-6.5c1.51-1.83,2.34-4.13,2.34-6.5
		C154.67,75.365,150.08,70.775,144.439,70.775z M147.25,89.595c1.52,0.98,2.42,2.62,2.42,4.4c-0.01,2.87-2.351,5.22-5.23,5.22
		c-3.041,0-5.676-2.661-5.14-6.11c0.271-1.521-0.907-2.93-2.46-2.93h-17.68c-1.517,0-2.726,1.364-2.47,2.92
		c0.599,3.095-1.841,6.12-5.13,6.12c-2.88,0-5.22-2.35-5.23-5.22c0-1.78,0.91-3.42,2.42-4.4c1.524-0.974,1.541-3.215,0-4.2
		c-1.51-0.979-2.42-2.619-2.42-4.399c0.01-2.87,2.35-5.22,5.23-5.22c3.109,0,5.579,2.727,5.17,5.89
		c-0.189,1.51,0.984,2.82,2.48,2.82h17.58c1.496,0,2.673-1.288,2.479-2.841c-0.421-3.018,1.973-5.869,5.17-5.869
		c2.88,0,5.221,2.35,5.23,5.22c0,1.78-0.9,3.42-2.42,4.399C145.713,86.377,145.719,88.617,147.25,89.595z"/>
</g>
</svg>
