<?xml version="1.0" encoding="utf-8"?>
<!-- Generator: Adobe Illustrator 22.0.0, SVG Export Plug-In . SVG Version: 6.00 Build 0)  -->
<svg version="1.1" xmlns="http://www.w3.org/2000/svg" xmlns:xlink="http://www.w3.org/1999/xlink" x="0px" y="0px"
	 viewBox="0 0 512 512" style="enable-background:new 0 0 512 512;" xml:space="preserve">
<style type="text/css">
	.st0{fill:#EFEFEF;}
	.st1{fill:#EDEDED;}
	.st2{fill:#E1902B;}
	.st3{fill:#827382;}
	.st4{fill:#98CDE6;}
	.st5{clip-path:url(#SVGID_2_);fill:#43B06D;}
	.st6{clip-path:url(#SVGID_2_);fill:#4D917B;}
	.st7{fill:#FFDBC5;}
	.st8{fill:#E8B494;}
	.st9{fill:#DB4646;}
	.st10{fill:#E7AD84;}
	.st11{fill:#9EC853;}
	.st12{fill:#EBB290;}
	.st13{fill:#2961A5;}
	.st14{fill:#D49670;}
	.st15{fill:#4D917B;}
	.st16{fill:#78BEDE;}
	.st17{fill:#D4CDC1;}
	.st18{fill:#A18FA1;}
	.st19{fill:#3D2A3D;}
	.st20{fill:#FF826E;}
	.st21{fill:#E6A585;}
	.st22{fill:#142A7A;}
	.st23{fill:#FFD66C;}
	.st24{fill:#00D3D5;}
	.st25{fill:#B9EAF0;}
	.st26{fill:#EDB87B;}
	.st27{clip-path:url(#SVGID_4_);}
	.st28{fill:#D9904C;}
	.st29{fill:#F7B58D;}
	.st30{fill:#F7C8AB;}
	.st31{fill:#BABABA;}
	.st32{fill:#163A63;}
	.st33{fill:#F5BB47;}
	.st34{fill:#FFE999;}
	.st35{clip-path:url(#SVGID_6_);}
	.st36{fill:#B3B3B3;}
	.st37{fill:#F2C9B1;}
	.st38{clip-path:url(#SVGID_8_);}
	.st39{fill:#F2D7C4;}
	.st40{fill:#5D5660;}
	.st41{fill:#3B2D3F;}
	.st42{fill:#997999;}
	.st43{fill:#170F17;}
	.st44{clip-path:url(#SVGID_10_);}
</style>
<g id="Layer_6">
</g>
<g id="Layer_9">
</g>
<g id="Layer_7">
	<g>
		<g>
			<g>
				<g>
					<g>
						<g>
							<path class="st7" d="M138.3,182.8c6,0.9,10.2,6.6,9.2,12.6l-3.1,32.2c-0.9,6-6.6,10.2-12.6,9.2l0,0c-6-1-10.2-6.6-9.2-12.6
								l3.1-32.2C126.6,186,132.3,181.8,138.3,182.8L138.3,182.8z"/>
						</g>
						<path class="st7" d="M217,313.7V367h-54v-53.3c0-10.9,8.2-19.7,17.3-19.7h20.9C210.2,294,217,302.9,217,313.7z"/>
						<g>
							<path class="st7" d="M166.2,271.4c5.5-5.4,14.3-5.3,19.6,0.2l28.5,27.2c5.4,5.5,5.3,14.3-0.1,19.6l0,0
								c-5.5,5.4-14.3,5.3-19.6-0.2l-28.5-27.2C160.7,285.6,160.8,276.8,166.2,271.4L166.2,271.4z"/>
						</g>
						<g>
							<path class="st7" d="M139.7,256.2c8.1-5.5,19.2-3.4,24.7,4.8l29.5,40.9c5.5,8.1,3.4,19.2-4.7,24.7l0,0
								c-8.1,5.5-19.2,3.4-24.7-4.8l-29.5-40.9C129.4,272.7,131.5,261.7,139.7,256.2L139.7,256.2z"/>
						</g>
						<path class="st7" d="M144.6,222.5c-7.2,1.2-14.5,1.9-21.8,2.5l5.3,45.3c1,8.3,8.5,14.3,16.4,13.4c7.9-0.9,13.8-8.5,12.8-16.8
							L144.6,222.5z"/>
						<path class="st8" d="M174.4,257.9c-8.9,2.9-18.3-1.3-21.2-9.3l-4.7-12.8c-1.5,0.7-2.5,1.3-3.6,2.3c-5.1,4.5-5.7,11.8-1.1,16.3
							l24.8,24.1c2.9,2.9,7.2,3.8,11.2,3C177.6,273.6,175.7,265.8,174.4,257.9z"/>
						<path class="st7" d="M162,233c-6.5,2.4-9.7,9.6-7.3,16.1l13.2,35c2.4,6.4,9.6,9.7,16.1,7.3l0,0c6.4-2.4,9.7-9.6,7.3-16.1
							l-13.2-35C175.6,233.8,168.4,230.6,162,233L162,233z"/>
					</g>
					<rect x="165" y="343" class="st8" width="53" height="37"/>
					<path class="st0" d="M239,407v-33.7c0-10.2-8.1-18.3-18.3-18.3h-57.1c-10.2,0-18.6,8.1-18.6,18.3V407H239z"/>
				</g>
				<g>
					<g>
						<g>
							<path class="st7" d="M374.7,182.8c-6,0.9-10.2,6.6-9.2,12.6l3.1,32.2c0.9,6,6.6,10.2,12.6,9.2l0,0c6-1,10.2-6.6,9.2-12.6
								l-3.1-32.2C386.3,186,380.7,181.8,374.7,182.8L374.7,182.8z"/>
						</g>
						<path class="st7" d="M295,313.7V367h54v-53.3c0-10.9-7.3-19.7-16.3-19.7h-20.9C302.8,294,295,302.9,295,313.7z"/>
						<g>
							<path class="st7" d="M346.8,271.4c-5.5-5.4-14.3-5.3-19.7,0.2l-28.5,27.2c-5.4,5.5-5.3,14.3,0.1,19.6l0,0
								c5.5,5.4,14.3,5.3,19.6-0.2l28.5-27.2C352.3,285.6,352.2,276.8,346.8,271.4L346.8,271.4z"/>
						</g>
						<g>
							<path class="st7" d="M373.3,256.2c-8.1-5.5-19.2-3.4-24.7,4.8l-29.5,40.9c-5.5,8.1-3.4,19.2,4.7,24.7l0,0
								c8.1,5.5,19.2,3.4,24.7-4.8l29.5-40.9C383.5,272.7,381.4,261.7,373.3,256.2L373.3,256.2z"/>
						</g>
						<path class="st7" d="M368.4,222.5c7.2,1.2,14.5,1.9,21.8,2.5l-5.3,45.3c-1,8.3-8.5,14.3-16.4,13.4
							c-7.9-0.9-13.8-8.5-12.8-16.8L368.4,222.5z"/>
						<path class="st8" d="M338.6,257.9c8.9,2.9,18.3-1.3,21.2-9.3l4.7-12.8c1.5,0.7,2.5,1.3,3.5,2.3c5.1,4.5,5.7,11.8,1.1,16.3
							l-24.8,24.1c-2.9,2.9-7.2,3.8-11.2,3C335.4,273.6,337.3,265.8,338.6,257.9z"/>
						<path class="st7" d="M351,233c6.5,2.4,9.7,9.6,7.3,16.1l-13.2,35c-2.4,6.4-9.6,9.7-16.1,7.3l0,0c-6.4-2.4-9.7-9.6-7.3-16.1
							l13.2-35C337.4,233.8,344.5,230.6,351,233L351,233z"/>
					</g>
					<rect x="295" y="343" class="st8" width="53" height="37"/>
					<path class="st0" d="M368,407v-33.7c0-10.2-8.4-18.3-18.6-18.3h-57.1c-10.2,0-18.3,8.1-18.3,18.3V407H368z"/>
				</g>
			</g>
			<g>
				<path class="st0" d="M311,198c0,14.9-12.1,27-27,27h-55c-14.9,0-27-12.1-27-27l0,0c0-14.9,12.1-27,27-27h55
					C298.9,171,311,183.1,311,198L311,198z"/>
				<path class="st0" d="M283.7,177.4c0,18.8-12.2,34-27.2,34c-15,0-27.2-15.2-27.2-34s12.2-34,27.2-34
					C271.5,143.4,283.7,158.7,283.7,177.4z"/>
				<g>
					<path class="st0" d="M305.3,123.7c0,11.6-9.4,21-21,21c-11.6,0-21-9.4-21-21c0-11.6,9.4-21,21-21
						C295.9,102.7,305.3,112.1,305.3,123.7z"/>
					<path class="st0" d="M249.7,123.7c0,11.6-9.4,21-21,21c-11.6,0-21-9.4-21-21c0-11.6,9.4-21,21-21
						C240.3,102.7,249.7,112.1,249.7,123.7z"/>
				</g>
				<g>
					<path class="st0" d="M209.5,159.8c0,9.7-7.9,17.6-17.6,17.6c-9.7,0-17.6-7.9-17.6-17.6c0-9.7,7.9-17.6,17.6-17.6
						C201.6,142.2,209.5,150.1,209.5,159.8z"/>
					
						<ellipse transform="matrix(0.9999 -1.249746e-02 1.249746e-02 0.9999 -1.9723 4.0249)" class="st0" cx="321.1" cy="159.8" rx="17.6" ry="17.6"/>
				</g>
			</g>
		</g>
	</g>
</g>
</svg>
