<?xml version="1.0" encoding="utf-8"?>
<!-- Generator: Adobe Illustrator 27.5.0, SVG Export Plug-In . SVG Version: 6.00 Build 0)  -->
<svg version="1.1" xmlns="http://www.w3.org/2000/svg" xmlns:xlink="http://www.w3.org/1999/xlink" x="0px" y="0px"
	 viewBox="0 0 500 500" style="enable-background:new 0 0 500 500;" xml:space="preserve">
<g id="BACKGROUND">
	<rect style="fill:#FFFFFF;" width="500" height="500"/>
</g>
<g id="OBJECTS">
	<g>
		<g>
			<path style="fill:#FFE7D2;" d="M87.172,104.939c0,0-11.244,16.458-21.368,18.111c-10.123,1.653-17.923,0.137-24.168-5.335
				c-6.245-5.472-16.331-3.95-19.404-1.137c-3.074,2.813,2.625,0.749,2.588,2.868c-0.037,2.118-2.057,15.168,2.107,21.465
				c4.164,6.298,4.164,7.291,0.734,8.867c-3.43,1.576-1.461,4.125,3.451,3.823s14.446,1.134,10.074,3.51
				c-4.372,2.375,5.808,4.003,9.444,1.208c3.636-2.795,2.29,8.886,16.61-1.506C81.56,146.423,103.304,120.482,87.172,104.939z"/>
			<path style="fill:#E5B283;" d="M86.28,136.769c-5.304,8.187-12.862,15.563-19.039,20.045c-14.32,10.391-12.974-1.289-16.61,1.506
				c-3.636,2.795-13.817,1.167-9.444-1.208c4.372-2.375-5.162-3.811-10.074-3.51s-6.881-2.247-3.451-3.823
				c3.43-1.576,3.43-2.57-0.734-8.867c0,0,7.62-2.061,8.616,2.174c0.996,4.235,9.715-8.22,9.466,0
				c-0.249,8.22,14.448-10.199,13.451-1.488c-0.996,8.711,15.34-13.137,15.143-4.828C73.406,145.078,86.28,136.769,86.28,136.769z"
				/>
			<path style="fill:none;stroke:#000000;stroke-width:0.75;stroke-linecap:round;stroke-linejoin:round;stroke-miterlimit:10;" d="
				M87.172,104.939c0,0-11.244,16.458-21.368,18.111c-10.123,1.653-17.923,0.137-24.168-5.335
				c-6.245-5.472-16.331-3.95-19.404-1.137c-3.074,2.813,2.625,0.749,2.588,2.868c-0.037,2.118-2.057,15.168,2.107,21.465
				c4.164,6.298,4.164,7.291,0.734,8.867c-3.43,1.576-1.461,4.125,3.451,3.823s14.446,1.134,10.074,3.51
				c-4.372,2.375,5.808,4.003,9.444,1.208c3.636-2.795,2.29,8.886,16.61-1.506C81.56,146.423,103.304,120.482,87.172,104.939z"/>
			<path style="fill:#FFD7AF;" d="M52.589,130.342c0,0,1.907,0.644,2.939-0.413c1.032-1.057,0.713-1.422-1.141-1.669
				C52.533,128.011,51.904,129.835,52.589,130.342z"/>
			<path style="fill:#FFD7AF;" d="M45.873,132.028c0,0,1.864,0.713,2.616,0.458c0.752-0.255,0.086-1.377-1.071-1.58
				C46.26,130.703,44.836,131.7,45.873,132.028z"/>
			<path style="fill:#FFD7AF;" d="M45.274,127.281c0,0,0.81,0.451,1.763,0.309c0.953-0.143,3.557-1.001,1.142-1.502
				c-2.415-0.5-1.887-1.104-3.912-0.685C42.241,125.822,44.359,126.987,45.274,127.281z"/>
		</g>
		<g>
			<path style="fill:#E5B283;" d="M98.874,139.757c-0.046,1.218-1.672,18.393-1.045,30.516c0,0,1.329,8.448,6.883,7.359
				c5.554-1.089,3.928-3.15,3.928-3.15s0.411,3.108,5.421,1.91c5.009-1.198,3.212-3.795,3.212-3.795s2.828,3.941,6.191-0.312
				c4.787-6.055-2.79-8.861-7.952-9.237c-1.374-0.1-2.363-1.364-2.171-2.728c0.343-2.432,3.202-13.458,3.778-15.284
				C117.12,145.035,99.331,127.635,98.874,139.757z"/>
			<path style="fill:none;stroke:#000000;stroke-width:0.75;stroke-linecap:round;stroke-linejoin:round;stroke-miterlimit:10;" d="
				M98.874,139.757c-0.046,1.218-1.672,18.393-1.045,30.516c0,0,1.329,8.448,6.883,7.359c5.554-1.089,3.928-3.15,3.928-3.15
				s0.411,3.108,5.421,1.91c5.009-1.198,3.212-3.795,3.212-3.795s2.828,3.941,6.191-0.312c4.787-6.055-2.79-8.861-7.952-9.237
				c-1.374-0.1-2.363-1.364-2.171-2.728c0.343-2.432,3.202-13.458,3.778-15.284C117.12,145.035,99.331,127.635,98.874,139.757z"/>
			<path style="fill:none;stroke:#000000;stroke-width:0.75;stroke-linecap:round;stroke-linejoin:round;stroke-miterlimit:10;" d="
				M117.273,172.596c0,0-0.067-4.162-4.2-6.354"/>
			<path style="fill:none;stroke:#000000;stroke-width:0.75;stroke-linecap:round;stroke-linejoin:round;stroke-miterlimit:10;" d="
				M108.816,175.493c0,0,0.125-4.305-3.757-7.436"/>
		</g>
		<g>
			<path style="fill:#FFD7AF;" d="M176.962,145.659c-2.13,3.744-4.643,9.765-0.64,7.524c4.002-2.241-1.001,9.445,1.5,6.724
				c2.502-2.721-2.461,11.046,0.901,6.884s1.601,6.404,3.842,3.042c2.241-3.362,3.522,9.765,9.125,9.445
				c5.603-0.32,5.113-2.701,5.113-2.701s0.961,4.326,5.48,2.403c4.518-1.923,2.98-3.845,2.98-3.845s2.571,4.782,6.116,2.337
				c3.545-2.445-0.426-12.402-10.035-11.921c0,0-1.428-4.962,0.323-14.104C201.667,151.446,183.263,134.58,176.962,145.659z"/>
			<path style="fill:#E5B283;" d="M176.962,145.659c-3.539,2.456-4.643,9.765-0.64,7.524c4.002-2.241-1.001,9.445,1.5,6.724
				c2.502-2.721-2.461,11.046,0.901,6.884s1.601,6.404,3.842,3.042c2.241-3.362,3.522,9.765,9.125,9.445
				c5.603-0.32,5.113-2.701,5.113-2.701s-5.124-0.436-5.625-4.512c-0.5-4.076-5.475-4.995-1.463-8.467
				c4.012-3.472,0.176-2.261,4.169-7.965C197.877,149.927,193.414,134.243,176.962,145.659z"/>
			<path style="fill:none;stroke:#000000;stroke-width:0.75;stroke-linecap:round;stroke-linejoin:round;stroke-miterlimit:10;" d="
				M176.962,145.659c-2.13,3.744-4.643,9.765-0.64,7.524c4.002-2.241-1.001,9.445,1.5,6.724c2.502-2.721-2.461,11.046,0.901,6.884
				s1.601,6.404,3.842,3.042c2.241-3.362,3.522,9.765,9.125,9.445c5.603-0.32,5.113-2.701,5.113-2.701s0.961,4.326,5.48,2.403
				c4.518-1.923,2.98-3.845,2.98-3.845s2.571,4.782,6.116,2.337c3.545-2.445-0.426-12.402-10.035-11.921
				c0,0-1.428-4.962,0.323-14.104C201.667,151.446,183.263,134.58,176.962,145.659z"/>
			<path style="fill:none;stroke:#000000;stroke-width:0.75;stroke-linecap:round;stroke-linejoin:round;stroke-miterlimit:10;" d="
				M201.569,168.994c0,0,1.555,0.839,3.694,6.141"/>
			<path style="fill:none;stroke:#000000;stroke-width:0.75;stroke-linecap:round;stroke-linejoin:round;stroke-miterlimit:10;" d="
				M196.803,176.577c0,0-0.171-2.647-2.919-5.676"/>
		</g>
		<g>
			<path style="fill:#FFE7D2;" d="M145.937,90.923c0,0-3.344,4.389-21.528,3.762c-18.184-0.627-24.872-0.209-35.114,7.942
				c-10.242,8.152-22.991,32.815-18.393,32.188c4.598-0.627-4.232,7.315-0.967,7.733c3.266,0.418-2.796,7.943-1.751,8.57
				c1.045,0.627-1.672,18.393-1.045,30.516c0,0,1.329,8.448,6.883,7.359c5.554-1.089,3.928-3.15,3.928-3.15s0.411,3.108,5.421,1.91
				c5.01-1.198,3.212-3.795,3.212-3.795s2.828,3.941,6.191-0.312c4.787-6.055-2.79-8.861-7.952-9.237
				c-1.374-0.1-2.363-1.364-2.171-2.728c0.343-2.432,0.89-5.86,1.466-7.685c0.955-3.025,5.414-1.592,9.394-4.936
				c3.981-3.344,3.503,3.025,6.369-1.911c2.866-4.936,5.331,0.806,7.116-4.864c1.785-5.669,2.835,0.525,5.25-4.305
				c2.415-4.83,2.094,5.251,6.096-1.153c4.002-6.403,1.601,5.603,4.643,1.281c3.042-4.322,3.362,9.605,6.724,3.042
				c3.362-6.564,0.96,7.844,5.123,1.601c4.162-6.243,3.042,8.164,5.763,3.842c2.721-4.322,1.281,0.8,4.482-2.081
				c3.202-2.882-4.643,9.765-0.64,7.524c4.002-2.241-1.001,9.445,1.5,6.724c2.502-2.721-2.461,11.046,0.901,6.884
				c3.362-4.162,1.601,6.403,3.842,3.042s3.522,9.765,9.125,9.445c5.603-0.32,5.113-2.701,5.113-2.701s0.975,4.358,5.48,2.403
				c3.349-1.453,3.737-2.957,3.737-2.957s1.814,3.894,5.359,1.449c3.545-2.445-0.426-12.402-10.035-11.921
				c0,0-1.662-12.051,2.233-20.327c3.895-8.277-1.785,7.628,3.733,3.408c5.518-4.22,8.764-7.465,8.926-4.22
				c0.162,3.246,3.733,8.115,7.628,0.487c3.895-7.628,5.031-4.869,6.979-2.434c1.948,2.434,9.088,2.921,5.193-2.434
				c-3.895-5.356,0.341-20.449,1.144-14.931c0.803,5.518,7.944,5.031,5.51-2.434c-2.434-7.465-1.474-9.989,1.409-9.44
				c2.883,0.549,0.824-1.51-1.647-7.826c-2.471-6.315-6.623-14.946-4.59-23.811c2.032-8.865-18.29-23.852-36.325-12.167
				C151.615,89.958,154.017,87.821,145.937,90.923z"/>
			<path style="fill:#FFD7AF;" d="M84.823,174.409c-1.225-0.459-2.363-1.364-2.171-2.728c0.343-2.432,0.89-5.86,1.466-7.685
				c0.955-3.025,5.414-1.592,9.394-4.936c3.981-3.344,3.503,3.025,6.369-1.911c2.866-4.936,5.331,0.806,7.116-4.864
				c1.785-5.669,2.835,0.525,5.25-4.305c2.415-4.83,2.094,5.251,6.096-1.153c4.002-6.403,1.601,5.603,4.643,1.281
				c3.042-4.322,3.362,9.605,6.724,3.042c3.362-6.564,0.96,7.844,5.123,1.601c4.162-6.243,3.042,8.164,5.763,3.842
				c2.721-4.322,1.281,0.8,4.482-2.081c3.202-2.882-4.643,9.765-0.64,7.524c4.002-2.241-1.001,9.445,1.5,6.724
				c2.502-2.721-2.461,11.046,0.901,6.884c3.362-4.162,1.601,6.403,3.842,3.042s3.522,9.765,9.125,9.445
				c0,0-3.921-4.634-3.921-11.367c0-6.733-3.142-1.197-3.291-4.937c-0.15-3.74-2.543-2.095-2.543-6.433s-1.346-1.496-1.197-5.984
				c0.15-4.488,0.15-2.992,0-7.331c-0.15-4.339-4.189,0.299-5.236-4.638c-1.047-4.937-2.394,1.197-5.835-1.795
				c-3.441-2.992-7.63,0-7.929-2.843c-0.299-2.843-3.441-0.598-7.63-2.843c-4.189-2.244-7.848,0.898-11.03,0
				c-3.183-0.898-7.671,0.144-10.813-0.825c-3.142-0.97-2.394,7.708-5.087,8.755c-2.693,1.047-5.91,8.738-8.491,8.708
				C84.22,156.566,75.55,174.149,84.823,174.409z"/>
			<path style="fill:#E5B283;" d="M169.65,78.273c18.036-11.685,38.357,3.302,36.325,12.167c-2.032,8.865,2.119,17.496,4.59,23.811
				c2.471,6.315,4.531,8.375,1.647,7.826c0,0-6.552,0.12-10.199-3.614c-3.647-3.734-8.05-5.76-8.584-2.113
				c-0.534,3.647-3.563,0-4.075-3.039c-0.511-3.039-4.564-2.431-6.185,6.078c-1.621,8.51-5.673,9.726-7.902,7.902
				c-2.229-1.824-5.065-2.792-8.307,0.731c-3.242,3.523-2.963,6.348-9.181,3.517c-6.218-2.83-17.06-7.085-10.322-17.419
				C154.197,103.789,169.65,78.273,169.65,78.273z"/>
			<path style="fill:#EA873D;" d="M145.937,90.923c0,0-3.344,4.389-21.528,3.762c-18.184-0.627-24.872-0.209-35.114,7.942
				c0,0-4.485,9.57,0,13.955c4.485,4.385,2.579,6.212,2.198,8.921c-0.381,2.708,3.617,6.521,6.193,2.137s5.055-6.287,8.486-3.334
				c3.432,2.953,12.011,6.389,11.82,0c-0.191-6.389,7.435-8.486,11.057-3.91c3.622,4.576,10.935-0.433,11.282-1.932
				c0.347-1.499,5.261,5.8,8.165,7.87c2.904,2.07,14.31-16.016,14.113-27.372C162.412,87.605,157.677,86.234,145.937,90.923z"/>
			<path style="fill:none;stroke:#000000;stroke-width:0.75;stroke-linecap:round;stroke-linejoin:round;stroke-miterlimit:10;" d="
				M174.135,184.875c0,0,0.553-6.2-5.249-5.403"/>
			<path style="fill:none;stroke:#000000;stroke-width:0.75;stroke-linecap:round;stroke-linejoin:round;stroke-miterlimit:10;" d="
				M164.918,185.429c0,0,1.258-5.643-2.572-5.957"/>
			<path style="fill:none;stroke:#000000;stroke-width:0.75;stroke-linecap:round;stroke-linejoin:round;stroke-miterlimit:10;" d="
				M73.603,180.639c0,0,3.596,1.498,4.562,5.819"/>
			<path style="fill:none;stroke:#000000;stroke-width:0.75;stroke-linecap:round;stroke-linejoin:round;stroke-miterlimit:10;" d="
				M86.801,184.435c0,0-1.178-4.871-3.203-6.221"/>
			<path style="fill:#FF9B57;" d="M93.895,99.346c0,0-3.146,6.911,1.422,6.866c4.568-0.045,5.568-4.464,8.423-2.254
				c2.855,2.209,5.568-0.961,9.993,0.981c4.426,1.942,3.997-2.762,8.708-0.981c4.711,1.781,4.426-1.723,8.423-0.613
				c3.997,1.11,15.072-12.421,15.072-12.421s-2.56,4.054-17.865,3.822C112.766,94.514,102.799,93.429,93.895,99.346z"/>
			<path style="fill:none;stroke:#000000;stroke-width:0.75;stroke-linecap:round;stroke-linejoin:round;stroke-miterlimit:10;" d="
				M145.937,90.923c0,0-3.344,4.389-21.528,3.762c-18.184-0.627-24.872-0.209-35.114,7.942
				c-10.242,8.152-22.991,32.815-18.393,32.188c4.598-0.627-4.232,7.315-0.967,7.733c3.266,0.418-2.796,7.943-1.751,8.57
				c1.045,0.627-1.672,18.393-1.045,30.516c0,0,1.329,8.448,6.883,7.359c5.554-1.089,3.928-3.15,3.928-3.15s0.411,3.108,5.421,1.91
				c5.01-1.198,3.212-3.795,3.212-3.795s2.828,3.941,6.191-0.312c4.787-6.055-2.79-8.861-7.952-9.237
				c-1.374-0.1-2.363-1.364-2.171-2.728c0.343-2.432,0.89-5.86,1.466-7.685c0.955-3.025,5.414-1.592,9.394-4.936
				c3.981-3.344,3.503,3.025,6.369-1.911c2.866-4.936,5.331,0.806,7.116-4.864c1.785-5.669,2.835,0.525,5.25-4.305
				c2.415-4.83,2.094,5.251,6.096-1.153c4.002-6.403,1.601,5.603,4.643,1.281c3.042-4.322,3.362,9.605,6.724,3.042
				c3.362-6.564,0.96,7.844,5.123,1.601c4.162-6.243,3.042,8.164,5.763,3.842c2.721-4.322,1.281,0.8,4.482-2.081
				c3.202-2.882-4.643,9.765-0.64,7.524c4.002-2.241-1.001,9.445,1.5,6.724c2.502-2.721-2.461,11.046,0.901,6.884
				c3.362-4.162,1.601,6.403,3.842,3.042s3.522,9.765,9.125,9.445c5.603-0.32,5.113-2.701,5.113-2.701s0.934,4.26,5.48,2.403
				c2.98-1.217,3.737-2.957,3.737-2.957s1.814,3.894,5.359,1.449c3.545-2.445-0.426-12.402-10.035-11.921
				c0,0-1.662-12.051,2.233-20.327c3.895-8.277-1.785,7.628,3.733,3.408c5.518-4.22,8.764-7.465,8.926-4.22
				c0.162,3.246,3.733,8.115,7.628,0.487c3.895-7.628,5.031-4.869,6.979-2.434c1.948,2.434,9.088,2.921,5.193-2.434
				c-3.895-5.356,0.341-20.449,1.144-14.931c0.803,5.518,7.944,5.031,5.51-2.434c-2.434-7.465-1.474-9.989,1.409-9.44
				c2.883,0.549,0.824-1.51-1.647-7.826c-2.471-6.315-6.623-14.946-4.59-23.811c2.032-8.865-18.29-23.852-36.325-12.167
				C151.615,89.958,154.017,87.821,145.937,90.923z"/>
			<path style="fill:#FFD7AF;" d="M78.592,141.995c0,0-3.61,3.712-2.708,4.213c0.902,0.502,4.112,0.401,4.112-1.505
				S80.197,141.092,78.592,141.995z"/>
			<path style="fill:#FFD7AF;" d="M84.316,145.738c0,0-0.383,1.361-0.383,2.289c0,0.928,2.32,1.676,2.347,0
				c0.027-1.676,0.793-2.795,0.334-3.921C86.154,142.98,84.597,144.456,84.316,145.738z"/>
			<path style="fill:#FFD7AF;" d="M83.09,137.312c0,0-0.46,2.604-0.46,3.141c0,0.536,1.915,0.766,1.992-0.843
				c0.077-1.609,0.23-2.834,0-3.447C84.392,135.55,83.09,137.312,83.09,137.312z"/>
			<path style="fill:#FFD7AF;" d="M76.502,152.555c0,0-0.23,0.843,0,1.915c0.23,1.072,2.298,0.153,2.298-0.46
				c0-0.613,0.766-3.524,0-3.907C78.034,149.721,76.599,151.79,76.502,152.555z"/>
			<path style="fill:#FFD7AF;" d="M185.539,139.396c0,0-1.676,3.971,0,3.223c1.676-0.748,1.981-1.434,1.981-2.577
				S186.119,137.695,185.539,139.396z"/>
			<path style="fill:#FFD7AF;" d="M192.321,139.889c0,0-0.305,1.989,0.914,2.823c1.219,0.834,1.524,0.457,1.448-1.412
				C194.607,139.432,192.702,139.127,192.321,139.889z"/>
			<path style="fill:#FFD7AF;" d="M197.445,136.918c0,0,0.21,1.205,0.819,2.584c0.61,1.379,1.752,1.76,1.372-0.45
				C199.255,136.842,197.616,135.241,197.445,136.918z"/>
			<path style="fill:#FFD7AF;" d="M189.502,133.565c0,0-0.381,1.959,0,2.656c0.381,0.697,1.372-0.152,1.372-1.328
				C190.873,133.717,189.645,132.487,189.502,133.565z"/>
			<path style="fill:#FFD7AF;" d="M194.073,132.156c0,0-0.305,0.875,0,1.79c0.305,0.914,1.6,3.331,1.676,0.865
				c0.076-2.465,0.762-2.05,0-3.972C194.988,128.917,194.205,131.204,194.073,132.156z"/>
			<path style="fill:#D66A21;" d="M99.816,110.38c0,0-1.429,1.012-1.429,1.667c0,0.655,0.119,1.726,0.714,1.25
				c0.595-0.476,1.726-1.429,2.56-2.084C102.495,110.559,101.78,108.952,99.816,110.38z"/>
			<path style="fill:#D66A21;" d="M109.528,113.416c0,0-1.658-0.37-2.04,0.778c-0.383,1.148,1.849,1.275,2.295,1.02
				c0.446-0.255,4.272-0.409,3.124-1.798C111.76,112.026,109.528,113.416,109.528,113.416z"/>
			<path style="fill:#D66A21;" d="M108.572,109.539c0,0-1.658,0.829-1.722,1.722c-0.064,0.893,1.403,0.765,3.124,0
				c1.722-0.765,4.846-0.893,2.423-1.722C109.975,108.71,109.751,108.727,108.572,109.539z"/>
			<path style="fill:#D66A21;" d="M102.004,114.449c0,0-1.832,1.53-1.809,2.104c0.024,0.574,1.618,0.574,2.319,0
				c0.701-0.574,2.423-1.668,2.168-2.492C104.427,113.238,103.311,113.194,102.004,114.449z"/>
		</g>
		<g>
			<path style="fill:#D66A21;" d="M214.24,43.23c0,0,4.536-1.314,7.073,3.461c2.537,4.775,4.775,3.283,5.073,7.013
				c0.298,3.73,2.984,4.476,3.283,8.057c0.298,3.581,4.178,8.058,2.835,13.429c-1.343,5.372,0.746,4.178,1.492,10.893
				c0.746,6.715,5.521,15.369,0.746,20.293c-4.775,4.924-5.073,3.134-5.969,7.312c-0.895,4.178-4.029,1.492-5.521,4.775
				c-1.492,3.283-1.641,6.715-7.162,4.327c-5.521-2.388-7.461-4.178-8.207-9.699c-0.746-5.521-2.835-6.193-2.686-11.229
				c0.149-5.036-1.679-11.947-0.008-17.345C206.861,79.119,207.269,44.359,214.24,43.23z"/>
			<path style="fill:#EA873D;" d="M223.253,118.464c1.492-3.283,4.626-0.597,5.521-4.775c0.895-4.178,1.194-2.387,5.969-7.312
				c4.775-4.924,0-13.578-0.746-20.293c-0.746-6.715-2.835-5.521-1.492-10.893c1.343-5.372-2.537-9.848-2.835-13.429
				c-0.298-3.581-2.984-4.327-3.283-8.057c-0.298-3.73-2.537-2.238-5.073-7.013c0,0-1.756,5.094,0.913,7.509
				c2.669,2.415,1.144,7.714,3.051,10.34c1.907,2.626,2.288,6.361,2.288,9.451c0,3.09,1.466,10.458,2.86,15.834
				c1.394,5.377-3.664,9.758-1.633,13.143C230.823,106.354,223.253,118.464,223.253,118.464z"/>
			<path style="fill:none;stroke:#000000;stroke-width:0.75;stroke-linecap:round;stroke-linejoin:round;stroke-miterlimit:10;" d="
				M214.326,43.23c0,0,4.536-1.314,7.073,3.461c2.537,4.775,4.775,3.283,5.073,7.013c0.298,3.73,2.984,4.476,3.283,8.057
				c0.298,3.581,4.178,8.058,2.835,13.429c-1.343,5.372,0.746,4.178,1.492,10.893c0.746,6.715,5.521,15.369,0.746,20.293
				c-4.775,4.924-5.073,3.134-5.969,7.312c-0.895,4.178-4.029,1.492-5.521,4.775c-1.492,3.283-1.641,6.715-7.162,4.327
				c-5.521-2.388-7.461-4.178-8.207-9.699c-0.746-5.521-2.835-6.193-2.686-11.229c0.149-5.036-1.679-11.947-0.008-17.345
				C206.948,79.119,207.356,44.359,214.326,43.23z"/>
			<path style="fill:#EA873D;" d="M214.24,43.23c1.836,3.618,7.941,16.871,5.022,27.932c0,0-0.964,2.516,0.082,3.562
				c1.046,1.046-0.094,10.658-1.634,12.54c-1.54,1.882-4.876,1.027-5.389-0.855c0,0-7.955,2.536-17.536,1.91
				c0,0-8.469,5.532-13.173,1.512s-3.482-6.074-3.482-6.074s-2.317-2.308-6.874-3.251c-4.558-0.943-6.74-37.114-8.157-37.066
				c-1.417,0.048,0.456-2.854,2.97-2.854c2.515,0-0.471-6.758,3.458-3.772c3.929,2.986,31.433-0.943,38.663,2.515
				c0,0,2.306,0.787,3.224-0.882c0.918-1.669,1.753,0.668,1.085,2.086c-0.612,1.301,1.846-1.759,1.431,0.878
				C213.83,42.033,213.955,42.669,214.24,43.23z"/>
			<path style="fill:#D66A21;" d="M169.525,36.814c-3.929-2.986-0.943,3.772-3.458,3.772c-2.515,0-4.387,2.902-2.97,2.854
				c1.417-0.048,3.599,36.123,8.157,37.066c4.558,0.943,6.874,3.251,6.874,3.251s-1.223,2.053,3.482,6.074
				s13.173-1.512,13.173-1.512c9.581,0.627,17.536-1.91,17.536-1.91c0.513,1.882,3.849,2.737,5.389,0.855
				c1.173-1.433,2.114-7.35,2.034-10.552c-0.025-1.002-0.15-1.739-0.4-1.988c0,0-8.976-3.353-16.987-0.301
				c-8.011,3.052-21.345,0.89-20.018-3.56c1.327-4.45-4.268-3.89-3.887-7.794c0.382-3.904-7.121-15.787-6.231-19.637
				C173.111,39.582,169.525,36.814,169.525,36.814z"/>
			<path style="fill:#FFE7D2;" d="M177.185,84.518c0,0-2.643-5.782,4.166-8.916c6.809-3.134,13.401-5.62,15.346-9.835
				c1.945-4.215-0.642-22.232-6.589-27.921c0,0,3.137-0.132,6.481-0.033c0,0,4.864,8.61,4.864,12.5
				c0,3.891,0.648,11.996,8.538,15.022c7.889,3.026,9.605,9.952,9.605,9.952s0.418,1.132-0.112,5.494
				c-0.53,4.362-0.935,7.422-3.875,7.524c-2.94,0.102-3.288-1.897-3.288-1.897s-6.032,2.655-17.536,1.91c0,0-4.714,3.203-9.42,2.976
				C180.659,91.068,177.185,84.518,177.185,84.518z"/>
			<path style="fill:#FFD7AF;" d="M181.351,75.602c-6.809,3.134-4.166,8.916-4.166,8.916s3.474,6.55,8.18,6.777
				c4.705,0.227,9.42-2.976,9.42-2.976c11.504,0.746,17.536-1.91,17.536-1.91s0.348,1.999,3.288,1.897
				c2.94-0.102,3.345-3.163,3.875-7.524c0.53-4.362,0.112-5.494,0.112-5.494s-5.522,5.523-12.633-1.296c0,0-3.19,3.799-9.29,2.533
				c-6.1-1.266-9.54,6.075-13.129-2.368L181.351,75.602z"/>
			<path d="M189.946,60.442c0.605,2.063-0.776,4.029-2.839,4.633c-2.063,0.604-4.028-0.381-4.632-2.444
				c-0.605-2.063,0.879-4.061,2.942-4.666C187.48,57.361,189.342,58.379,189.946,60.442z"/>
			<path style="fill:#D66A21;" d="M190.44,52.011c0.605,2.063-1.561,1.305-3.624,1.91c-2.063,0.604-3.172,1.619-4.326,0.251
				c-1.386-1.644,1.252-3.326,3.315-3.93C187.868,49.637,189.835,49.948,190.44,52.011z"/>
			<path style="fill:#D66A21;" d="M208.042,51.706c-0.309,2.128,1.291,1.01,2.915,1.245c1.623,0.236,2.547,1.039,3.328-0.503
				c0.938-1.852-1.205-3.044-2.828-3.28C209.834,48.933,208.352,49.579,208.042,51.706z"/>
			<path d="M209.779,59.792c-0.438,2.105,0.822,3.897,2.614,4.271s3.438-0.814,3.877-2.919c0.438-2.105-0.911-3.918-2.703-4.292
				C211.774,56.479,210.218,57.687,209.779,59.792z"/>
			<path style="fill:#FFD7AF;" d="M213.491,61.915c-0.083,0.401,0.209,0.753,0.609,0.837c0.401,0.084,0.759-0.133,0.843-0.534
				c0.084-0.401-0.229-0.758-0.629-0.841C213.912,61.292,213.574,61.514,213.491,61.915z"/>
			<path style="fill:#FFD7AF;" d="M215.171,60.749c0.194,0.085,0.412-0.045,0.506-0.262c0.094-0.216,0.029-0.437-0.165-0.522
				c-0.194-0.085-0.417,0.056-0.511,0.272C214.907,60.454,214.977,60.664,215.171,60.749z"/>
			<path style="fill:#FFD7AF;" d="M189.356,62.13c0.004-0.41-0.351-0.698-0.761-0.702c-0.409-0.004-0.718,0.279-0.722,0.688
				c-0.004,0.41,0.372,0.699,0.781,0.703C189.064,62.822,189.352,62.54,189.356,62.13z"/>
			<path style="fill:#FFD7AF;" d="M187.58,63.166c-0.207-0.045-0.395,0.125-0.445,0.355c-0.05,0.23,0.056,0.434,0.263,0.48
				c0.207,0.045,0.398-0.136,0.448-0.367C187.896,63.403,187.787,63.211,187.58,63.166z"/>
			<path d="M206.166,71.584c0,0,0.535,3.628,0,5.056c-0.535,1.427-3.157-0.411-4.758,1.546c-5.897,7.209-9.562,5.672-14.285,5.428
				c0,0,6.46,5.306,11.518-0.485c5.058-5.791,8.224-5.048,11.073-2.85c2.85,2.198,2.524,6.595,2.524,6.595s1.71-5.537-1.384-7.816
				c-3.094-2.28-3.745-1.676-3.338-7.474C207.515,71.584,206.281,68.589,206.166,71.584z"/>
			<path d="M204.787,63.149c0,0-5.402,1.509-6.57,2.822c-1.168,1.314-0.487,2.823,2.287,4.039c2.774,1.217,3.552,3.455,6.229,3.358
				c2.676-0.097,2.482-1.217,4.331-3.212c1.849-1.995,2.385-3.699,0-5.256C208.68,63.343,207.415,62.857,204.787,63.149z"/>
			<path style="fill:none;stroke:#000000;stroke-width:0.75;stroke-linecap:round;stroke-linejoin:round;stroke-miterlimit:10;" d="
				M214.24,43.14c1.836,3.618,7.941,16.871,5.022,27.932c0,0-0.964,2.516,0.082,3.562c1.046,1.046-0.094,10.658-1.634,12.54
				c-1.54,1.882-4.876,1.026-5.389-0.855c0,0-7.955,2.536-17.536,1.91c0,0-8.469,5.533-13.173,1.512s-4.886-7.052-4.886-7.052
				s-0.913-1.329-5.471-2.272c-4.558-0.943-6.74-37.114-8.157-37.066c-1.417,0.048,0.456-2.854,2.97-2.854
				c2.515,0-0.471-6.758,3.458-3.772c3.929,2.986,31.433-0.943,38.663,2.515c0,0,2.306,0.787,3.224-0.882
				c0.918-1.669,1.753,0.668,1.085,2.087c-0.612,1.301,1.846-1.759,1.431,0.877C213.83,41.942,213.955,42.578,214.24,43.14z"/>
			<path style="fill:#EA873D;" d="M164.071,43.488c0,0-9.027,1.576-9.457,6.305c-0.43,4.728-1.146,5.015-2.579,7.164
				c-1.433,2.149,0.573,4.155-1.146,8.024c-1.719,3.869-1.719,5.588-5.158,9.743c-3.439,4.155,0.286,10.603-3.869,11.749
				c-4.155,1.146-3.973,8.861-6.391,14.211c-2.418,5.35,6.202,7.579,6.351,11.295c0.149,3.715,4.161,9.363,9.66,9.214
				c5.499-0.149,3.864,5.202,9.066,4.31c5.202-0.892,4.904-5.053,8.471-4.31c3.567,0.743,12.484,0.446,11.146-8.768
				c-1.338-9.214-1.364-10.7,0.136-15.902c1.499-5.201-5.188-6.539-4.891-12.781c0.297-6.242-4.607-6.836-4.161-15.902
				c0.446-9.065-2.527-6.539-1.189-12.632C171.396,49.115,171.459,42.766,164.071,43.488z"/>
			<path style="fill:#FF9B57;" d="M135.471,100.685c2.418-5.35,2.236-13.065,6.391-14.211c4.155-1.146,0.43-7.594,3.869-11.749
				c3.439-4.155,3.439-5.875,5.158-9.743c1.719-3.869-0.287-5.875,1.146-8.024c1.433-2.149,2.149-2.436,2.579-7.164
				c0,0,3.812-0.949,3.812,1.454s-4.244,4.544-2.358,9.211c1.886,4.667-3.144,4.51-1.572,8.596c1.572,4.087-4.269,5.973-3.156,9.509
				c1.113,3.537-3.676,3.356-3.483,7.466C148.051,90.141,135.471,100.685,135.471,100.685z"/>
			<path style="fill:#D66A21;" d="M164.071,43.488c7.388-0.722,7.325,5.627,5.987,11.72c-1.337,6.093,1.635,3.567,1.189,12.632
				c-0.446,9.066,4.458,9.66,4.161,15.902c-0.297,6.242,6.391,7.579,4.891,12.781c-1.499,5.202-1.473,6.688-0.136,15.902
				c1.338,9.214-7.579,9.511-11.146,8.768c-3.567-0.743-3.27,3.418-8.471,4.31c0,0,4.834-4.787,4.607-12.742
				c-0.227-7.955,6.212-9.774,5.379-20.002c-0.833-10.228-6.061-9.547-5.833-17.047s-4.181-17.405-2.091-22.341
				C164.7,48.436,164.071,43.488,164.071,43.488z"/>
			<path style="fill:none;stroke:#000000;stroke-width:0.75;stroke-linecap:round;stroke-linejoin:round;stroke-miterlimit:10;" d="
				M164.071,43.488c0,0-9.027,1.576-9.457,6.305c-0.43,4.728-1.146,5.015-2.579,7.164c-1.433,2.149,0.573,4.155-1.146,8.024
				c-1.719,3.869-1.719,5.588-5.158,9.743c-3.439,4.155,0.286,10.603-3.869,11.749c-4.155,1.146-3.973,8.861-6.391,14.211
				c-2.418,5.35,6.202,7.579,6.351,11.295c0.149,3.715,4.161,9.363,9.66,9.214c5.499-0.149,3.864,5.202,9.066,4.31
				c5.202-0.892,4.904-5.053,8.471-4.31c3.567,0.743,12.484,0.446,11.146-8.768c-1.338-9.214-1.364-10.7,0.136-15.902
				c1.499-5.201-5.188-6.539-4.891-12.781c0.297-6.242-4.607-6.836-4.161-15.902c0.446-9.065-2.527-6.539-1.189-12.632
				C171.396,49.115,171.459,42.766,164.071,43.488z"/>
			<path style="fill:#D66A21;" d="M143.243,101.402c0.389,0.465,1.854,2.004,2.334,1.759c0.48-0.245,0.995,0.022,0.184-1.568
				c-0.811-1.591-1.064-3.125-2.475-2.482C141.874,99.755,142.583,100.614,143.243,101.402z"/>
			<path style="fill:#D66A21;" d="M152.982,99.295c-0.292-0.532-1.429-2.326-1.948-2.179c-0.519,0.147-0.971-0.215-0.484,1.503
				c0.487,1.718,0.437,3.272,1.946,2.915C154.005,101.176,153.476,100.196,152.982,99.295z"/>
			<path style="fill:#D66A21;" d="M144.638,106.659c0.648,0.953,1.463,1.983,2.004,1.782c0.541-0.2,1.232-0.105,0.498-1.656
				c-0.734-1.551-2.101-2.77-3.005-2.826C143.232,103.903,144.084,105.843,144.638,106.659z"/>
			<path style="fill:#D66A21;" d="M151.545,105.162c0.121,0.25,1.147,2.546,1.444,2.833c0.297,0.287-0.204,1.677-1.661,0.302
				c-1.457-1.375-0.491-1.111-1.438-2.821C148.942,103.766,150.635,103.285,151.545,105.162z"/>
			<path style="fill:#D66A21;" d="M145.336,97.508c0.456,0.375,1.871,2.606,2.305,1.343c0.433-1.263,0.228-0.984-0.716-2.153
				c-0.943-1.169-1.901-2.195-2.32-1.485C144.186,95.924,145.336,97.508,145.336,97.508z"/>
			<path style="fill:#EA873D;" d="M217.173,108.5c0,0-0.063,1.75,0.458,2.147c0.52,0.397,1.444,0.953,1.427,0.191
				c-0.017-0.762-0.088-2.239-0.102-3.299C218.94,106.479,217.229,106.072,217.173,108.5z"/>
			<path style="fill:#EA873D;" d="M221.818,101.03c0,0-0.347,1.821,0.323,2.413c0.671,0.592,1.459-0.65,1.896-2.483
				c0.437-1.833,2.231-4.393,0.102-2.971C222.011,99.412,221.888,99.6,221.818,101.03z"/>
			<path style="fill:#EA873D;" d="M221.734,109.23c0,0,0.104,2.385,0.575,2.714c0.47,0.329,1.438-0.938,1.407-1.843
				c-0.03-0.906,0.145-2.938-0.665-3.235C222.242,106.569,221.529,107.43,221.734,109.23z"/>
		</g>
	</g>
	<g>
		<g>
			<path style="fill:#510C00;" d="M298.604,344.639c0,0-9.352-8.444-4.887-22.367c4.465-13.923,6.086-17.643,11.68-21.438
				c5.594-3.795,6.146-8.024,1.223-6.484c-4.924,1.54-19.36,6.171-28.081,28.563c-8.721,22.392,9.971,36.898,15.825,33.76
				C300.219,353.535,306.774,355.246,298.604,344.639z"/>
			<path style="fill:#6D1D13;" d="M293.717,322.272c4.465-13.923,6.086-17.643,11.68-21.438c5.594-3.795,6.146-8.024,1.223-6.484
				c-3.863,1.208-13.58,4.319-21.799,16.414C284.821,310.764,286.069,318.244,293.717,322.272z"/>
			<path style="fill:none;stroke:#000000;stroke-width:0.75;stroke-linecap:round;stroke-linejoin:round;stroke-miterlimit:10;" d="
				M298.604,344.639c0,0-9.352-8.444-4.887-22.367c4.465-13.923,6.086-17.643,11.68-21.438c5.594-3.795,6.146-8.024,1.223-6.484
				c-4.924,1.54-19.36,6.171-28.081,28.563c-8.721,22.392,9.971,36.898,15.825,33.76
				C300.219,353.535,306.774,355.246,298.604,344.639z"/>
		</g>
		<g>
			<path style="fill:#D66A21;" d="M328.805,364.719c-8.771-4.012-18.715,2.442-18.658,12.087c0.001,0.104,0.001,0.209,0.001,0.316
				c0,10.632,0.197,8.269-11.616,17.523c-11.813,9.254-3.938,6.3-10.435,13.388c-6.497,7.088-0.591,4.528-6.694,13.585
				s-0.788,4.528-4.061,11.813c-3.274,7.285,2.092,4.135,0.32,14.373c-1.772,10.238,4.135,8.072,9.647,11.223
				c5.513,3.15,11.223,0,11.223,0c7.285,2.166,9.844-1.969,9.844-1.969c8.663,0.394,5.907-10.041,2.559-11.026
				c-3.347-0.984-11.771-5.275-11.771-5.275c0.365-4.014,2.8-9.932,2.8-9.932c7.528-14.402,11.955-7.855,31.266-20.62
				c12.901-8.528,15.431-18.663,16.176-26.403c0.535-5.559-2.566-10.833-7.645-13.156L328.805,364.719z"/>
			<path style="fill:#EA873D;" d="M309.984,421.391c-5.441,2.332-8.02,9.435-8.02,9.435s-2.435,5.918-2.8,9.932
				c0,0,8.424,4.29,11.771,5.275c3.347,0.984,6.104,11.419-2.559,11.026c0,0-2.56,4.135-9.844,1.969c0,0-5.71,3.15-11.223,0
				c-5.513-3.15-11.419-0.984-9.647-11.223c1.772-10.238-3.594-7.088-0.32-14.373c0,0,4.905,3.827,10.496-0.146
				C293.429,429.312,309.984,421.391,309.984,421.391z"/>
			<path style="fill:none;stroke:#000000;stroke-width:0.75;stroke-linecap:round;stroke-linejoin:round;stroke-miterlimit:10;" d="
				M328.805,364.719c-8.771-4.012-18.715,2.442-18.658,12.087c0.001,0.104,0.001,0.209,0.001,0.316
				c0,10.632,0.197,8.269-11.616,17.523c-11.813,9.254-3.938,6.3-10.435,13.388c-6.497,7.088-0.591,4.528-6.694,13.585
				s-0.788,4.528-4.061,11.813c-3.274,7.285,2.092,4.135,0.32,14.373c-1.772,10.238,4.135,8.072,9.647,11.223
				c5.513,3.15,11.223,0,11.223,0c7.285,2.166,9.844-1.969,9.844-1.969c8.663,0.394,5.907-10.041,2.559-11.026
				c-3.347-0.984-11.771-5.275-11.771-5.275c0.365-4.014,2.8-9.932,2.8-9.932c7.528-14.402,11.955-7.855,31.266-20.62
				c12.901-8.528,15.431-18.663,16.176-26.403c0.535-5.559-2.566-10.833-7.645-13.156L328.805,364.719z"/>
			<path style="fill:none;stroke:#000000;stroke-width:0.75;stroke-linecap:round;stroke-linejoin:round;stroke-miterlimit:10;" d="
				M298.531,459.026c0,0,3.015-5.073-4.5-9.478"/>
			<path style="fill:none;stroke:#000000;stroke-width:0.75;stroke-linecap:round;stroke-linejoin:round;stroke-miterlimit:10;" d="
				M308.376,457.057c0,0,2.759-5.566-5.274-8.611"/>
		</g>
		<g>
			<path style="fill:#D66A21;" d="M404.355,385.245c0.655,7.855-0.371,20.867-5.924,27.767c-5.553,6.9,5.048,2.524-0.168,10.602
				c-5.217,8.078,2.861,3.871-0.168,11.443c-3.029,7.573,4.039,4.544,3.534,8.919c-0.505,4.375-1.515,14.641,6.058,17.502
				c7.573,2.861,8.919-1.851,8.919-1.851c0.673,1.515,4.544,3.197,4.544,3.197c8.078,2.02,9.92-3.702,9.92-3.702
				s8.255,4.207,9.265-5.048c1.01-9.256-17.821-9.929-17.989-15.482c-0.168-5.553,6.722-29.786,6.722-38.032
				c0-8.246,4.61-38.391-5.27-46.752C423.797,353.806,401.186,353.444,404.355,385.245z"/>
			<path style="fill:#EA873D;" d="M429.067,400.559c0,8.246-6.89,32.479-6.722,38.032c0.168,5.553,18.999,6.227,17.989,15.482
				c-1.01,9.256-9.265,5.048-9.265,5.048s-1.842,5.722-9.92,3.702c0,0-3.87-1.683-4.544-3.197c0,0-1.346,4.712-8.919,1.851
				c-7.573-2.861-6.563-13.126-6.058-17.502c0.505-4.375-6.563-1.346-3.534-8.919c3.029-7.573-5.048-3.366,0.168-11.443
				c0,0,4.829,6.486,7.435,1.853c2.606-4.633,9.141,5.501,9.782-4.633C416.122,410.7,429.067,400.559,429.067,400.559z"/>
			<path style="fill:#FF9B57;" d="M440.334,454.073c-1.01,9.256-9.265,5.048-9.265,5.048s-1.842,5.722-9.92,3.702
				c0,0-3.87-1.683-4.544-3.197c0,0-1.346,4.712-8.919,1.851c0,0,5.327-3.627,3.746-9.304c-1.581-5.677,6.367-2.697,8.638,1.277
				c2.271,3.974,11.355,5.369,5.677-2.496c-5.677-7.865,8.09,4.909,6.955,0.651c-1.135-4.258-8.121-10.031-8.121-10.031
				s3.763,2.058,7.937,3.698C437.361,447.174,441.344,450.463,440.334,454.073z"/>
			<path style="fill:none;stroke:#000000;stroke-width:0.75;stroke-linecap:round;stroke-linejoin:round;stroke-miterlimit:10;" d="
				M404.355,385.245c0.655,7.855-0.371,20.867-5.924,27.767c-5.553,6.9,5.048,2.524-0.168,10.602
				c-5.217,8.078,2.861,3.871-0.168,11.443c-3.029,7.573,4.039,4.544,3.534,8.919c-0.505,4.375-1.515,14.641,6.058,17.502
				c7.573,2.861,8.919-1.851,8.919-1.851c0.673,1.515,4.544,3.197,4.544,3.197c8.078,2.02,9.92-3.702,9.92-3.702
				s8.255,4.207,9.265-5.048c1.01-9.256-17.821-9.929-17.989-15.482c-0.168-5.553,6.722-29.786,6.722-38.032
				c0-8.246,4.61-38.391-5.27-46.752C423.797,353.806,401.186,353.444,404.355,385.245z"/>
			<path style="fill:none;stroke:#000000;stroke-width:0.75;stroke-linecap:round;stroke-linejoin:round;stroke-miterlimit:10;" d="
				M416.606,459.626c0,0,2.549-3.594-1.126-8.672"/>
			<path style="fill:none;stroke:#000000;stroke-width:0.75;stroke-linecap:round;stroke-linejoin:round;stroke-miterlimit:10;" d="
				M431.069,459.121c0,0,2.384-3.891-2.159-8.167"/>
		</g>
		<g>
			<path style="fill:#EA873D;" d="M430.352,313.614c0,0-4.099,10.628-5.162,16.094c-1.063,5.466-0.304,9.414,1.822,16.094
				c2.126,6.681,3.083,22.775,2.475,28.241c-0.607,5.466-1.915,15.953-17.202,25.339c-15.287,9.387-14.898,8.251-14.898,16.497
				c0,8.246-10.921,32.479-10.753,38.032c0.168,5.553,18.999,6.227,17.989,15.482c-1.01,9.256-9.265,5.049-9.265,5.049
				s-1.842,5.722-9.92,3.702c0,0-3.871-1.683-4.544-3.197c0,0-1.346,4.712-8.919,1.851c-7.573-2.861-6.563-13.126-6.058-17.502
				c0.505-4.375-6.563-1.346-3.534-8.919c3.029-7.573-5.048-3.366,0.168-11.443c5.217-8.078-5.385-3.702,0.168-10.602
				c5.553-6.9,6.579-19.911,5.924-27.767c-0.655-7.855-12.111,0.982-31.422-9.165c-19.311-10.147-25.857-6.873-27.494-0.327
				c-1.636,6.546,2.291,22.912-17.02,35.677c-19.311,12.765-23.738,6.219-31.266,20.62c0,0-2.435,5.918-2.8,9.932
				c0,0,8.424,4.29,11.771,5.275c3.347,0.984,6.103,11.419-2.56,11.026c0,0-2.559,4.135-9.844,1.969c0,0-5.71,3.15-11.223,0
				c-5.513-3.15-11.419-0.984-9.647-11.223c1.772-10.238-3.594-7.088-0.32-14.373c3.274-7.285-2.042-2.756,4.061-11.813
				c6.104-9.057,0.197-6.497,6.694-13.585c6.497-7.088-1.378-4.135,10.435-13.388c11.813-9.254,11.616-6.891,11.616-17.523
				c0-10.632-3.15-10.455,0.984-20.486c4.135-10.031-4.332-4.912,2.953-11.213c7.285-6.3-5.119-1.056,4.332-5.647
				c9.451-4.591,0.67-3.367,6.891-9.513c4.621-4.565,5.119-3.741,20.476-4.528c15.357-0.788,42.134,1.181,48.828-1.772
				c6.694-2.953,13.191-3.741,18.704-8.466c5.513-4.725,7.876-8.663,12.601-19.295c4.725-10.632,4.159-27.564,13.499-34.652
				C408.235,271.007,439.475,293.02,430.352,313.614z"/>
			<path style="fill:#FF9B57;" d="M397.387,415.88c0,8.246-10.921,32.479-10.753,38.032c0.168,5.553,18.999,6.227,17.989,15.482
				c-1.01,9.256-9.265,5.049-9.265,5.049s7.884-1.292,3.59-7.495c-4.294-6.203-12.05-1.112-13.989-9.89
				c-1.939-8.779-0.277-5.316,0-14.042c0.277-8.726-4.017-0.416,1.385-13.158c5.402-12.743,6.867-15.651,7.173-25.347
				c0.306-9.696,6.815-15.228,5.708-6.371C398.118,407.002,397.387,415.88,397.387,415.88z"/>
			<path style="fill:#D66A21;" d="M427.012,345.803c-2.126-6.681-2.885-10.628-1.822-16.094c1.063-5.466,5.162-16.094,5.162-16.094
				c9.123-20.594-22.117-42.607-31.457-35.519c-6.856,5.203-8.374,15.711-10.566,25.138c0,0,1.43,8.971,4.61,6.113
				c3.18-2.858,4.625,13.174,7.334,10.959c2.709-2.216,7.848,22.129,11.16,16.247C414.745,330.67,427.012,345.803,427.012,345.803z"
				/>
			<path style="fill:#D66A21;" d="M368.645,400.566c-0.655-7.855-12.111,0.982-31.422-9.165
				c-19.311-10.147-25.857-6.873-27.494-0.327c-1.636,6.546,2.291,22.912-17.02,35.677c-19.311,12.765-23.738,6.219-31.266,20.62
				c0,0-4.252-7.058,3.906-12.556c8.159-5.498,13.311-1.442,16.134-10.109c2.823-8.667,7.632,0.709,11.711-11.174
				c4.079-11.883,4.434,4.434,8.336-14.011c3.902-18.446,2.695-14.544,7.302-19.51s11.853-3.37,17.883,0
				c6.03,3.37,12.368,5.573,17.381,5.907c5.013,0.334,5.498,4.202,15.43,6.153C369.46,394.022,368.645,400.566,368.645,400.566z"/>
			<path style="fill:#510C00;" d="M387.409,306.895c0,0-3.501,16.521,3.196,23.637c6.697,7.115-7.954,10.598-4.111,14.616
				c3.843,4.018-26.606,5.57-21.473,21.012s4.988,36.724-15.614,17.642c-20.602-19.083-30.685-12.21-39.259-6.68
				c-8.575,5.53-18.272,3.99-17.028-8.229l0.018-0.175c0.585-5.739-2.196-11.226-7.029-14.376c-1.055-0.688-2.158-1.569-3.275-2.697
				c-5.953-6.012,9.321-9.132,15.875-9.221c6.554-0.089,40.453-0.255,40.453-0.255s11.821-0.635,16.481-2.311
				c4.66-1.676,8.731-3.1,12.764-4.872C371.695,333.54,381.089,327.146,387.409,306.895z"/>
			<path style="fill:#6D1D13;" d="M368.695,335.566c2.806-2.243-8.393,2.615-13.053,4.291c-4.66,1.676-16.481,2.311-16.481,2.311
				s-33.898,0.167-40.453,0.255c0,0,1.303,12.851,6.795,12.412c5.492-0.439,5.712-4.812,11.643,0.01
				c5.931,4.822,7.521-0.537,16.502,2.253c8.981,2.789,8.981,11.137,13.594,3.888c4.613-7.249,3.076-10.365,13.181-10.784
				S360.757,341.913,368.695,335.566z"/>
			<path style="fill:#FFD7AF;" d="M400.273,407.002c0,0,20.674-11.562,22.049-24.75c1.374-13.188-2.707-19.378-6.856-14.533
				c-4.15,4.844-14.414-11.066-12.762,3.23C404.355,385.245,407.261,392.997,400.273,407.002z"/>
			<path style="fill:none;stroke:#000000;stroke-width:0.75;stroke-linecap:round;stroke-linejoin:round;stroke-miterlimit:10;" d="
				M430.352,313.614c0,0-4.099,10.628-5.162,16.094c-1.063,5.466-0.304,9.414,1.822,16.094c2.126,6.681,3.083,22.775,2.475,28.241
				c-0.607,5.466-1.915,15.953-17.202,25.339c-15.287,9.387-14.898,8.251-14.898,16.497c0,8.246-10.921,32.479-10.753,38.032
				c0.168,5.553,18.999,6.227,17.989,15.482c-1.01,9.256-9.265,5.049-9.265,5.049s-1.842,5.722-9.92,3.702
				c0,0-3.871-1.683-4.544-3.197c0,0-1.346,4.712-8.919,1.851c-7.573-2.861-6.563-13.126-6.058-17.502
				c0.505-4.375-6.563-1.346-3.534-8.919c3.029-7.573-5.048-3.366,0.168-11.443c5.217-8.078-5.385-3.702,0.168-10.602
				c5.553-6.9,6.579-19.911,5.924-27.767c-0.655-7.855-12.111,0.982-31.422-9.165c-19.311-10.147-25.857-6.873-27.494-0.327
				c-1.636,6.546,2.291,22.912-17.02,35.677c-19.311,12.765-23.738,6.219-31.266,20.62c0,0-2.435,5.918-2.8,9.932
				c0,0,8.424,4.29,11.771,5.275c3.347,0.984,6.103,11.419-2.56,11.026c0,0-2.559,4.135-9.844,1.969c0,0-5.71,3.15-11.223,0
				c-5.513-3.15-11.419-0.984-9.647-11.223c1.772-10.238-3.594-7.088-0.32-14.373c3.274-7.285-2.042-2.756,4.061-11.813
				c6.104-9.057,0.197-6.497,6.694-13.585c6.497-7.088-1.378-4.135,10.435-13.388c11.813-9.254,11.616-6.891,11.616-17.523
				c0-10.632-3.15-10.455,0.984-20.486c4.135-10.031-4.332-4.912,2.953-11.213c7.285-6.3-5.119-1.056,4.332-5.647
				c9.451-4.591,0.67-3.367,6.891-9.513c4.621-4.565,5.119-3.741,20.476-4.528c15.357-0.788,42.134,1.181,48.828-1.772
				c6.694-2.953,13.191-3.741,18.704-8.466c5.513-4.725,7.876-8.663,12.601-19.295c4.725-10.632,4.159-27.564,13.499-34.652
				C408.235,271.007,439.475,293.02,430.352,313.614z"/>
			<path style="fill:none;stroke:#000000;stroke-width:0.75;stroke-linecap:round;stroke-linejoin:round;stroke-miterlimit:10;" d="
				M380.896,474.948c0,0,2.125-3.833-1.46-8"/>
			<path style="fill:none;stroke:#000000;stroke-width:0.75;stroke-linecap:round;stroke-linejoin:round;stroke-miterlimit:10;" d="
				M395.359,474.443c0,0,2.684-5.072-4.197-9.918"/>
			<path style="fill:none;stroke:#000000;stroke-width:0.75;stroke-linecap:round;stroke-linejoin:round;stroke-miterlimit:10;" d="
				M258.01,475.572c0,0,2.549-4.005-3.293-7.151"/>
			<path style="fill:none;stroke:#000000;stroke-width:0.75;stroke-linecap:round;stroke-linejoin:round;stroke-miterlimit:10;" d="
				M267.854,473.603c0,0,2.218-5.257-4.224-7.654"/>
			<path style="fill:#D66A21;" d="M381.208,405.578c-0.225,0.733-1.917,5.752-1.917,3.835c0-1.917-0.383-3.164,0-4.698
				C379.675,403.181,381.933,403.22,381.208,405.578z"/>
			<path style="fill:#D66A21;" d="M374.197,411.226c0,0-0.177,1.33,0,2.838s-1.331,4.967-1.419,2.838
				c-0.089-2.129-0.71-2.747,0-4.789C373.487,410.073,374.197,408.387,374.197,411.226z"/>
			<path style="fill:#D66A21;" d="M377.834,419.475c0,0-0.976,3.282-1.774,3.814s-2.277,0.798-1.848-0.532
				c0.429-1.33,0.722-2.484,1.773-4.08C377.035,417.08,378.557,417.427,377.834,419.475z"/>
			<path style="fill:#D66A21;" d="M376.078,401.469c0,0-0.64,3.687-1.083,2.198c-0.443-1.489-1.479-3.263-0.784-4.061
				C374.907,398.808,376.363,397.743,376.078,401.469z"/>
			<path style="fill:#D66A21;" d="M381.825,398.828c0,0-2.129,2.329-2.129,1.731c0-0.598-1.329-3.525-0.576-5.299
				C379.874,393.486,381.914,396.275,381.825,398.828z"/>
			<path style="fill:#D66A21;" d="M281.484,365.652c0,0,0.72,2.474,0,4.288c-0.719,1.814-3.853,1.814-3.193-1.319
				C278.95,365.487,281.484,361.364,281.484,365.652z"/>
			<path style="fill:#D66A21;" d="M277.69,375.682c-0.083,0.35-0.705,3.329-1.432,3.059c-0.727-0.27-2.886-1.08-1.717-3.059
				C275.711,373.703,278.047,374.173,277.69,375.682z"/>
			<path style="fill:#D66A21;" d="M280.002,379.82c0,0-0.062,4.408,0.927,4.408c0.99,0,1.26-0.27,1.26-1.259s0.72-4.415,0.72-5.311
				S279.883,377.391,280.002,379.82z"/>
			<path style="fill:#D66A21;" d="M249.373,440.909c0,0,0.51,4.542-1.275,4.924c-1.785,0.382-4.843,1.066-3.314-2.462
				C246.314,439.842,249.342,438.581,249.373,440.909z"/>
			<path style="fill:#D66A21;" d="M246.314,454.287c-0.78,0.551-2.932,3.611-2.932,0c0-3.611-2.422-4.848,0-4.739
				C245.804,449.656,248.687,452.61,246.314,454.287z"/>
			<path style="fill:#D66A21;" d="M421.396,348.03c0.083,0.215,1.384,3.059,0.874,3.569c-0.51,0.51-2.476,0.364-2.768,0
				c-0.291-0.364-1.602-1.675-0.655-3.569C419.794,346.136,420.705,346.243,421.396,348.03z"/>
			<path style="fill:#D66A21;" d="M426.186,354.585c0.138,0.791,0.309,2.913-0.711,2.913c-1.02,0-4.006,0.947-2.331-2.112
				C424.819,352.327,425.804,352.4,426.186,354.585z"/>
		</g>
		<g>
			<g>
				<path style="fill:#FF9B57;" d="M422.322,267.73c0,0,1.637-3.082,2.91-4.628c1.273-1.546,3.274,1.728,6.002,1.728
					c2.728,0,11.65-3.186,9.463,10.775C440.696,275.605,424.049,274.722,422.322,267.73z"/>
				
					<path style="fill:none;stroke:#000000;stroke-width:0.75;stroke-linecap:round;stroke-linejoin:round;stroke-miterlimit:10;" d="
					M422.322,267.73c0,0,1.637-3.082,2.91-4.628c1.273-1.546,3.274,1.728,6.002,1.728c2.728,0,11.65-3.186,9.463,10.775
					C440.696,275.605,424.049,274.722,422.322,267.73z"/>
			</g>
			<path style="fill:#EA873D;" d="M449.011,282.427c0.328,1.24,1.099,2.312,2.204,2.964c3.014,1.777,9.089,5.439,13.218,8.452
				c5.683,4.147,11.674,15.514,11.981,17.818c0.307,2.304,1.997,10.906,0,9.523c-1.997-1.382-1.075,8.141-3.072,5.222
				c-1.997-2.918-4.454,12.288-5.683,6.912c-1.229-5.376-2.419,10.445-4.282,5.069c-1.862-5.376-4.934,18.432-8.006,9.984
				c-3.072-8.448-9.216,0.307-10.291-6.298c-1.075-6.605-5.99,2.611-7.066-3.072c-1.075-5.683-6.912-1.997-7.68-10.291
				c-0.768-8.294-3.379-6.616-4.301-11.449c-0.922-4.833-9.063-10.977-11.981-10.67s-4.147,3.226-6.451-1.383
				c-2.304-4.608-4.608,2.304-7.066-2.918c-2.458-5.222,0.154-14.899-3.533-20.736c-3.686-5.837-6.912-8.602,0-11.367
				c6.912-2.765,14.131-11.827,17.51-2.458c0,0,3.072-0.614,9.37,0c6.298,0.614,12.595,7.066,15.514,7.68s5.99-0.154,6.144,2.15
				C445.676,279.609,447.877,278.136,449.011,282.427z"/>
			<path style="fill:#FF9B57;" d="M423.882,267.73c6.237,1.066,12.595,7.066,15.514,7.68s5.99-0.154,6.144,2.15
				c0.137,2.049,2.337,0.576,3.471,4.866c0.328,1.24,1.099,2.312,2.204,2.964c3.014,1.777,9.089,5.439,13.218,8.452
				c5.683,4.147,11.674,15.514,11.981,17.818c0,0-0.27,10.855-6.373,7.154c-6.103-3.7-13.582-0.681-16.649,2.155
				c-3.067,2.837-14.415-0.709-14.982-7.943c-0.567-7.234,1.811-12.421-4.113-18.188c-5.924-5.766-15.177-11.551-15.177-18.1
				c0-6.549-1.561-9.266-1.561-9.266S420.276,267.114,423.882,267.73z"/>
			<path style="fill:#FF9B57;" d="M455.37,348.371"/>
			<path style="fill:#D66A21;" d="M455.37,348.371c-3.072-8.448-9.216,0.307-10.291-6.298c-1.075-6.605-5.99,2.611-7.066-3.072
				c-1.075-5.683-6.912-1.997-7.68-10.291c-0.768-8.294-3.379-6.616-4.301-11.449c-0.922-4.833-9.063-10.977-11.981-10.67
				s-4.147,3.226-6.451-1.383c-2.304-4.608-4.608,2.304-7.066-2.918c-2.458-5.222,0.154-14.899-3.533-20.736
				c0,0,5.215,4.898,5.446,9.414c0.232,4.516,3.749,8.685,4.538,6.601c0.789-2.084,4.147,7.411,5.421,4.516
				c1.274-2.895,16.792,10.422,18.413,14.823c1.621,4.401,5.327,12.391,5.559,9.612c0.232-2.779,4.285,9.612,5.211,3.822
				c0.926-5.79,3.706,9.6,7.527,3.353C452.938,327.447,455.37,348.371,455.37,348.371z"/>
			<path style="fill:#D66A21;" d="M444.827,340.994c0,0,2.809,1.202,2.918-2.176c0.109-3.377,2.506-8.389,4.249-7.953
				c1.743,0.436,2.942,4.031,4.467,1.307c1.525-2.724,2.698,3.244,3.133-1.985c0.436-5.229,3.028-8.955,2.967-11.373
				c0,0,4.418,8.894,5.097,14.503c0,0-0.128-1.14-0.604-1.119c-0.475,0.02-1.455,7.419-2.873,7.317
				c-1.418-0.102-0.392-1.428-1.328-1.909c-0.935-0.482-3.422,8.399-4.035,9.76c-0.613,1.362-1.93,5.757-3.866,0
				c0,0-1.15-3.503-4.796-2.922C446.511,345.026,445.421,345.149,444.827,340.994z"/>
			<path d="M463.782,317.105c0,0,2.033,8.946,2.582,17.226c0,0,0.657-3.736,1.294-1.013c0,0,0.358-9.449-3.038-17.4
				c0,0-0.698-2.863-2.234,2.165c0,0-5.765,25.138-15.077,20.419c0,0-1.455-0.634-3.24-2.225c-0.296-0.264,1.681,2.982,3.375,3.98
				C447.443,340.257,458.915,345.726,463.782,317.105z"/>
			<path style="fill:#D66A21;" d="M414.964,282.727c0,0,1.23,6.141-3.025,4.622c-4.255-1.52-10.182-9.118-12.233-9.27
				c-2.052-0.152-2.052-2.712,0-2.648c2.052,0.064,7.518,4.131,8.902,5.619C409.991,282.537,414.038,288.135,414.964,282.727z"/>
			<path style="fill:none;stroke:#000000;stroke-width:0.75;stroke-linecap:round;stroke-linejoin:round;stroke-miterlimit:10;" d="
				M414.512,267.73c0,0,1.528,5.423,0.715,13.32c-0.813,7.896-4.645,1.858-6.619,0c-1.974-1.858-8.477-6.735-10.103-5.458"/>
			<path d="M430.889,291c0.722,1.696-0.256,3.509-1.952,4.232c-1.696,0.722-3.468,0.081-4.191-1.615
				c-0.722-1.696,0.34-3.547,2.036-4.27C428.479,288.624,430.167,289.304,430.889,291z"/>
			<path style="fill:#D66A21;" d="M430.461,283.77c0.722,1.696-1.198,1.269-2.895,1.991c-1.696,0.722-2.539,1.698-3.659,0.649
				c-1.346-1.26,0.732-2.958,2.428-3.681C428.032,282.007,429.739,282.074,430.461,283.77z"/>
			<path style="fill:#D66A21;" d="M445.422,281.739c-0.049,1.843,1.201,0.73,2.607,0.767c1.406,0.037,2.274,0.628,2.784-0.763
				c0.612-1.671-1.333-2.471-2.739-2.509C446.668,279.198,445.471,279.896,445.422,281.739z"/>
			<path d="M447.714,288.451c-0.161,1.837,1.092,3.237,2.656,3.374c1.564,0.138,2.846-1.039,3.008-2.876
				c0.162-1.837-1.17-3.245-2.734-3.383C449.08,285.429,447.876,286.614,447.714,288.451z"/>
			<path style="fill:#FFD7AF;" d="M451.089,289.885c-0.031,0.35,0.253,0.62,0.603,0.651c0.35,0.031,0.633-0.19,0.664-0.54
				c0.031-0.35-0.271-0.622-0.621-0.653C451.385,289.313,451.12,289.535,451.089,289.885z"/>
			<path style="fill:#FFD7AF;" d="M452.403,288.723c0.174,0.053,0.346-0.08,0.405-0.274c0.059-0.194-0.019-0.375-0.193-0.427
				c-0.174-0.053-0.349,0.09-0.408,0.283C452.148,288.499,452.229,288.671,452.403,288.723z"/>
			<path style="fill:#FFD7AF;" d="M430.556,292.497c-0.038-0.349-0.369-0.559-0.718-0.521c-0.349,0.038-0.584,0.31-0.546,0.659
				c0.038,0.349,0.387,0.558,0.736,0.52C430.377,293.116,430.594,292.846,430.556,292.497z"/>
			<path style="fill:#FFD7AF;" d="M429.148,293.558c-0.181-0.018-0.324,0.146-0.344,0.347c-0.02,0.201,0.092,0.364,0.272,0.382
				c0.181,0.017,0.325-0.156,0.345-0.357C429.441,293.728,429.329,293.575,429.148,293.558z"/>
			<path style="fill:#D66A21;" d="M452.472,319.474c0,0,0.096,0.334,0.239,1.289c0.143,0.955-1.672,2.674-1.91,0.86
				c-0.239-1.815,0.096-2.561,0.43-2.809C451.565,318.566,452.344,318.859,452.472,319.474z"/>
			<path style="fill:#D66A21;" d="M469.677,320.318c0,0,0.346,0.037,1.285,0.263c0.939,0.226,1.852,2.553,0.08,2.093
				c-1.772-0.46-2.338-1.05-2.442-1.452C468.496,320.819,469.059,320.206,469.677,320.318z"/>
			<path style="fill:#D66A21;" d="M446.15,321.947c0,0,1.049,1.983,1.049,2.612s-2.622,1.993-2.622,0.734
				c0-1.259-0.315-1.604-0.21-2.873C444.472,321.151,446.255,321.223,446.15,321.947z"/>
			<path style="fill:#D66A21;" d="M455.854,325.294c0,0-0.16,1.206-1.156,1.206c-0.996,0-2.255-0.21-1.311-1.206
				c0.944-0.996,2.102-1.416,2.467-1.416C456.219,323.878,456.058,324.691,455.854,325.294z"/>
			<path style="fill:#D66A21;" d="M468.341,326.125c0,0-0.835-0.884-0.207-1.658c0.628-0.773,1.585-1.617,1.763-0.257
				s-0.227,2.524-0.457,2.807C469.209,327.301,468.68,326.664,468.341,326.125z"/>
			<path style="fill:#D66A21;" d="M444.038,317.21c0,0,0.93,1.003-0.239,1.225c-1.17,0.223-2.805,1.727-2.517,0
				c0.289-1.727-1.104-2.117,0.511-2.172C443.409,316.207,443.689,316.484,444.038,317.21z"/>
			<path style="fill:none;stroke:#000000;stroke-width:0.75;stroke-linecap:round;stroke-linejoin:round;stroke-miterlimit:10;" d="
				M447.172,279.327c-0.826-0.576-1.556-0.615-1.633-1.767c-0.154-2.304-3.226-1.536-6.144-2.15s-9.216-7.066-15.514-7.68
				c-6.298-0.614-9.37,0-9.37,0c-3.379-9.37-10.599-0.307-17.51,2.458c-6.912,2.765-3.686,5.53,0,11.367
				c3.686,5.837,1.075,15.514,3.533,20.736c2.458,5.223,4.762-1.69,7.066,2.918c2.304,4.608,3.533,1.69,6.451,1.383
				s11.059,5.837,11.981,10.67c0.922,4.833,3.533,3.154,4.301,11.449c0.768,8.294,6.605,4.608,7.68,10.291
				c1.075,5.683,5.99-3.533,7.066,3.072c1.075,6.605,7.219-2.15,10.291,6.298c3.072,8.448,6.144-15.36,8.006-9.984
				c1.862,5.376,3.053-10.445,4.282-5.069c1.229,5.376,3.686-9.83,5.683-6.912c1.997,2.918,1.075-6.605,3.072-5.222
				c1.997,1.382,0.307-7.219,0-9.523c-0.078-0.582-0.518-1.744-1.226-3.221c0,0,0.991-2.059-1.776-3.359
				c-2.332-4.067-5.707-8.849-8.98-11.237c-4.129-3.013-10.204-6.675-13.218-8.452c-1.06-0.625-1.813-1.638-2.162-2.814
				c0,0,2.009,0.779,1.876-1.687C450.796,278.423,447.172,279.327,447.172,279.327z"/>
			<path style="fill:#510C00;" d="M460.413,309.346c-0.352-1.134,0.296-2.333,1.467-2.736c2.868-0.986,7.96-2.368,11.579-1.291
				c5.303,1.577-2.968,10.511-6.414,11.818c-3.446,1.307-5.744,0.109-5.859-3.377C461.129,312.044,460.766,310.485,460.413,309.346z
				"/>
			<path style="fill:#6D1D13;" d="M473.459,305.319c-3.619-1.077-8.711,0.305-11.579,1.291c-1.171,0.403-1.819,1.602-1.467,2.736
				c0,0,2.609-2.362,7.246-1.831C472.294,308.045,476.502,306.636,473.459,305.319z"/>
			<path d="M471.134,310.604c0,0-1.434,0.092-1.758,1.711c-0.324,1.619-1.064,1.943,0,1.758c1.064-0.185,2.22-1.665,3.006-2.359
				C473.169,311.02,472.19,310.148,471.134,310.604z"/>
			<path d="M465.146,314.056c-0.292-0.051-0.565-0.18-0.779-0.385c-0.35-0.336-0.842-0.971-0.978-1.963
				c-0.217-1.589,1.655-1.491,2.279-0.341C466.259,312.457,467.389,314.445,465.146,314.056z"/>
		</g>
	</g>
	<g>
		<g>
			<path style="fill:#505968;" d="M44.643,429.058c0,0-8.853-2.591-12.051-7.308c-3.198-4.716-21.123,19.387-1.688,27.356
				C50.339,457.075,56.296,439.847,44.643,429.058z"/>
			<path style="opacity:0.3;" d="M30.904,449.106c19.435,7.969,25.392-9.259,13.739-20.048c0,0-6.405-1.875-10.287-5.338
				C34.355,423.72,36.914,440.448,30.904,449.106z"/>
			<path style="fill:none;stroke:#000000;stroke-width:0.75;stroke-linecap:round;stroke-linejoin:round;stroke-miterlimit:10;" d="
				M44.643,429.058c0,0-8.853-2.591-12.051-7.308c-3.198-4.716-21.123,19.387-1.688,27.356
				C50.339,457.075,56.296,439.847,44.643,429.058z"/>
		</g>
		<g>
			<path style="fill:#D66A21;" d="M83.719,410.52c1.494,10.642-1.384,22.136-1.384,22.136s-15.279,16.043-9.167,22.154
				c6.112,6.112,1.91,8.785,15.661,8.021c13.751-0.764,45-4.007,54.124,0.127c9.123,4.134,10.904,1.207,10.904,0
				c0,0,4.896,4.134,8.901-0.762c0,0,5.786,4.896,7.788-0.445c0,0,5.563-11.126-9.791-15.354s-16.022,3.174-21.585,2.477
				c-5.563-0.697-21.068,1.751-17.543-1.365c3.524-3.115,13.093-2.67,25.332-12.016c12.239-9.346,14.656-38.371,7.542-45.74
				C154.499,389.754,87.987,385.061,83.719,410.52z"/>
			<path style="fill:#505968;" d="M82.335,432.656c0,0,2.877-11.494,1.384-22.136c4.269-25.458,70.781-20.765,70.781-20.765
				c7.115,7.369,4.697,36.394-7.542,45.74c-12.239,9.346-21.807,8.901-25.332,12.016c0,0-6.419,4.183-10.379,0
				C107.287,443.328,82.335,432.656,82.335,432.656z"/>
			<path style="opacity:0.3;" d="M82.335,432.656c0,0,2.877-11.494,1.384-22.136c4.269-25.458,70.781-20.765,70.781-20.765
				c7.115,7.369,4.697,36.394-7.542,45.74c-12.239,9.346-21.807,8.901-25.332,12.016c0,0-6.419,4.183-10.379,0
				C107.287,443.328,82.335,432.656,82.335,432.656z"/>
			<path style="fill:none;stroke:#000000;stroke-width:0.75;stroke-linecap:round;stroke-linejoin:round;stroke-miterlimit:10;" d="
				M83.719,410.52c1.494,10.642-1.384,22.136-1.384,22.136s-15.279,16.043-9.167,22.154c6.112,6.112,1.91,8.785,15.661,8.021
				c13.751-0.764,45-4.007,54.124,0.127c9.123,4.134,10.904,1.207,10.904,0c0,0,4.896,4.134,8.901-0.762
				c0,0,5.786,4.896,7.788-0.445c0,0,5.563-11.126-9.791-15.354s-16.022,3.174-21.585,2.477c-5.563-0.697-21.068,1.751-17.543-1.365
				c3.524-3.115,13.093-2.67,25.332-12.016c12.239-9.346,14.656-38.371,7.542-45.74C154.499,389.754,87.987,385.061,83.719,410.52z"
				/>
			<path style="fill:none;stroke:#000000;stroke-width:0.75;stroke-linecap:round;stroke-linejoin:round;stroke-miterlimit:10;" d="
				M162.757,462.197c0,0,4.252-4.44-1.25-10.33"/>
			<path style="fill:none;stroke:#000000;stroke-width:0.75;stroke-linecap:round;stroke-linejoin:round;stroke-miterlimit:10;" d="
				M148.796,453.704c0,0,7.485,0.815,5.06,9.254"/>
		</g>
		<g>
			<path style="fill:#D66A21;" d="M194.435,333.958c0,0-2.245,58.072-3.844,73.749c-1.6,15.676-0.32,36.791-0.32,36.791
				s12.066,1.901,12.066,7.89c0,5.988-2.245,8.533-5.539,7.186c0,0-4.042,4.297-8.533,0.352c0,0-1.946,3.535-7.785,1.667
				c-5.838-1.869-2.844-3.815-4.79-8.156c-1.946-4.341-1.497-6.886-2.695-15.419c-1.198-8.533-2.096-23.803-2.096-30.24
				c0-6.437-2.166-20.77-2.166-20.77S180.31,325.013,194.435,333.958z"/>
			<path style="fill:#EA873D;" d="M172.996,438.016c1.198,8.533,0.749,11.078,2.695,15.419c1.946,4.341-1.048,6.287,4.79,8.156
				c5.838,1.869,7.785-1.667,7.785-1.667c4.491,3.945,8.533-0.352,8.533-0.352c3.293,1.347,5.539-1.198,5.539-7.186
				c0-5.988-12.066-7.89-12.066-7.89s-0.763-23.564,0.175-35.267c0,0-4.651,11.898-9.263,15.269
				C176.57,427.871,173.148,431.131,172.996,438.016z"/>
			<path style="fill:none;stroke:#000000;stroke-width:0.75;stroke-linecap:round;stroke-linejoin:round;stroke-miterlimit:10;" d="
				M194.435,333.958c0,0-2.245,58.072-3.844,73.749c-1.6,15.676-0.32,36.791-0.32,36.791s12.066,1.901,12.066,7.89
				c0,5.988-2.245,8.533-5.539,7.186c0,0-4.042,4.297-8.533,0.352c0,0-1.946,3.535-7.785,1.667c-5.838-1.869-2.844-3.815-4.79-8.156
				c-1.946-4.341-1.497-6.886-2.695-15.419c-1.198-8.533-2.096-23.803-2.096-30.24c0-6.437-2.166-20.77-2.166-20.77
				S180.31,325.013,194.435,333.958z"/>
			<path style="fill:none;stroke:#000000;stroke-width:0.75;stroke-linecap:round;stroke-linejoin:round;stroke-miterlimit:10;" d="
				M188.266,459.925c0,0,2.823-4.077-2.325-7.892"/>
			<path style="fill:none;stroke:#000000;stroke-width:0.75;stroke-linecap:round;stroke-linejoin:round;stroke-miterlimit:10;" d="
				M196.799,459.573c0,0,2.805-5.093-2.359-8.499"/>
		</g>
		<g>
			<path style="fill:#EA873D;" d="M194.435,333.958"/>
			<path style="fill:#505968;" d="M132.741,289.524c2.054-3.174,12.389-7.655,19.297-27.072c6.908-19.417,43.704-7.094,43.704-7.094
				s3.547,51.716,0,53.769c-3.547,2.054,0.335,41.022-2.092,43.823c0,0-5.128,16.843-10.445,21.724
				c-5.317,4.881-7.392,8.191-19.257,15.286c0,0-2.707,22.978-4.306,38.654c-1.6,15.676-0.32,36.791-0.32,36.791
				s12.066,1.901,12.066,7.889c0,5.988-2.245,8.533-5.539,7.186c0,0-4.042,4.297-8.533,0.352c0,0-1.946,3.535-7.784,1.667
				c-5.838-1.869-2.844-3.815-4.79-8.156c-1.946-4.341-1.497-6.886-2.695-15.419c-1.198-8.533-2.096-23.803-2.096-30.24
				c0-6.437-2.906-35.132-2.906-35.132c-7.396,1.804-1.966,26.934-6.836,29.099c-4.871,2.165-2.525,5.412-6.494,6.674
				c-3.969,1.263-9.509,10.064-21.748,19.41c-12.239,9.346-21.807,8.901-25.332,12.016s11.98,0.668,17.543,1.365
				c5.563,0.697,6.231-6.705,21.585-2.477c15.354,4.228,9.791,15.354,9.791,15.354c-2.003,5.341-7.788,0.445-7.788,0.445
				c-4.005,4.896-8.901,0.762-8.901,0.762c0,1.207-1.78,4.134-10.904,0c-9.123-4.134-40.373-0.891-54.124-0.127
				c-13.751,0.764-9.549-1.91-15.661-8.021c-6.111-6.111,9.167-22.154,9.167-22.154s2.403-9.601,1.677-19.377
				c-0.153-2.054,0.02-4.118,0.587-6.099c2.315-8.1,9.391-28.941,23.453-40.076c17.702-14.017,14.646-29.02,23.635-46.387
				C95.684,316.592,132.741,289.524,132.741,289.524"/>
			<path style="opacity:0.15;fill:#D2E0FF;" d="M39.021,426.52c-0.153-2.054,0.02-4.118,0.587-6.099
				c2.315-8.1,9.391-28.941,23.453-40.076c17.702-14.017,14.646-29.02,23.635-46.387c6.515-12.588,27.778-30.273,38.985-39.053
				c0,0-10.293,19.787-7.367,29.955c2.925,10.168,2.939,22.243-1.357,27.327c-4.296,5.084,0.725,24.245-10.047,23.721
				c-10.772-0.525-38.099,5.945-45.407,17.644C54.193,405.252,39.021,426.52,39.021,426.52z"/>
			<path style="fill:#EA873D;" d="M28.177,468.051c6.111,6.112,1.91,8.785,15.661,8.021c13.751-0.764,45.001-4.007,54.124,0.127
				c9.123,4.134,10.904,1.207,10.904,0c0,0,4.896,4.134,8.901-0.762c0,0,5.786,4.896,7.788-0.445c0,0,5.563-11.126-9.791-15.354
				c-15.354-4.228-16.022,3.175-21.585,2.477c-5.563-0.697-21.068,1.751-17.543-1.365c0,0-27.55,10.598-34.253,5.748
				c-1.378-0.997-2.881-1.795-4.554-2.098C32.26,463.394,22.367,462.228,28.177,468.051z"/>
			<path style="opacity:0.3;" d="M153.622,263.198c-8.731,18.668-20.473,24.551-20.882,26.326c-0.578,2.516,3.671,5.929,9.074,3.614
				c5.402-2.315,8.49-2.573,9.708,1.801c1.218,4.374,11.388,1.544,16.481-2.573c5.093-4.116,4.94,0.772,8.363,5.66
				c0,0,1.654-0.151,6.919,0c5.265,0.151,12.664,7.49,13.864,3.94c1.2-3.55,0.591-27.715,0.591-27.715
				S160.606,248.265,153.622,263.198z"/>
			<path style="opacity:0.3;" d="M101.967,448.736c0,0,16.914-9.774,2.744-34.005s-41.651-10.92-41.651-10.92
				s8.357-7.762,15.447-9.787c7.09-2.026,10.888,3.115,18.738,3.583c7.85,0.468,8.773,9.727,13.123,11.175
				c4.35,1.448,1.058,9.708,5.363,15.327C120.036,429.727,112.41,442.501,101.967,448.736z"/>
			<path style="fill:none;stroke:#000000;stroke-width:0.75;stroke-linecap:round;stroke-linejoin:round;stroke-miterlimit:10;" d="
				M104.659,469.281c0,0,5.856,1.111,4.206,6.919"/>
			<path style="fill:none;stroke:#000000;stroke-width:0.75;stroke-linecap:round;stroke-linejoin:round;stroke-miterlimit:10;" d="
				M117.766,475.439c0,0,2.814-6.53-4.321-9.725"/>
			<path style="fill:#EA873D;" d="M193.108,354.637c-0.287-0.404-0.583-0.824-0.892-1.26c-3.658-5.16-3.515-10.676,2.417-13.572
				c0,0-0.07,8.269-0.301,10.086C194.101,351.708,193.108,354.637,193.108,354.637z"/>
			<path style="fill:#FF9B57;" d="M179.03,341.534c0,0-5.063-0.646-8.942-0.157c-3.879,0.489-6.196,0.299-6.12,7.196
				c0.076,6.897,0.397,11.995,0.373,17.78c-0.024,5.785,2.719,10.739,5.161,9.307c2.442-1.432,0.974-5.744,6.838-8.25
				c5.863-2.506,7.438-6.077,10.481-12.885C189.864,347.716,187.973,341.691,179.03,341.534z"/>
			<path style="opacity:0.3;" d="M99.515,450.504c0,0-23.722,11.565-40.567,15.705c0,0-4.028-0.591,0-4.487
				c4.028-3.896,7.228-1.252,10.429-5.009c3.2-3.757,4.87,0.696,11.271-3.618C87.05,448.781,94.726,452.227,99.515,450.504z"/>
			<path style="opacity:0.3;" d="M130.209,422.651c0,0-0.868-6.141-1.425-13.42c-0.557-7.28,0.808-1.897,1.425-13.59
				c0.617-11.693,6.374-12.343,6.836-2.088c0,0-3.789,0.323-4.121,9.341C132.591,411.911,133.244,420.624,130.209,422.651z"/>
			<path style="opacity:0.3;" d="M149.532,482.5c5.838,1.869,7.784-1.667,7.784-1.667c4.491,3.945,8.533-0.352,8.533-0.352
				c3.293,1.347,5.539-1.198,5.539-7.186c0-5.988-12.066-7.889-12.066-7.889s-1.28-21.115,0.32-36.791
				c1.6-15.676,4.306-38.654,4.306-38.654c11.865-7.095,13.94-10.405,19.257-15.286c5.317-4.882,10.445-21.724,10.445-21.724
				s-8.025-6.047-17.581,7.763s-11.882,15.564-18.115,20.705c-6.233,5.14-0.999,20.615-4.523,45.837
				c-3.524,25.222-1.312,34.735,0.908,37.84c2.22,3.106,11.962,9.747,7.75,11.692c-4.213,1.945-4.967-1.875-7.75,1.549
				C151.557,481.76,154.352,481.265,149.532,482.5z"/>
			<path style="fill:none;stroke:#000000;stroke-width:0.75;stroke-linecap:round;stroke-linejoin:round;stroke-miterlimit:10;" d="
				M132.741,289.524c2.054-3.174,12.389-7.655,19.297-27.072c6.908-19.417,43.704-7.094,43.704-7.094s3.547,51.716,0,53.769
				c-3.547,2.054,0.335,41.022-2.092,43.823c0,0-5.128,16.843-10.445,21.724c-5.317,4.881-7.392,8.191-19.257,15.286
				c0,0-2.707,22.978-4.306,38.654c-1.6,15.676-0.32,36.791-0.32,36.791s12.066,1.901,12.066,7.889c0,5.988-2.245,8.533-5.539,7.186
				c0,0-4.042,4.297-8.533,0.352c0,0-1.946,3.535-7.784,1.667c-5.838-1.869-2.844-3.815-4.79-8.156
				c-1.946-4.341-1.497-6.886-2.695-15.419c-1.198-8.533-2.096-23.803-2.096-30.24c0-6.437-2.906-35.132-2.906-35.132
				c-7.396,1.804-1.966,26.934-6.836,29.099c-4.871,2.165-2.525,5.412-6.494,6.674c-3.969,1.263-9.509,10.064-21.748,19.41
				c-12.239,9.346-21.807,8.901-25.332,12.016s11.98,0.668,17.543,1.365c5.563,0.697,6.231-6.705,21.585-2.477
				c15.354,4.228,9.791,15.354,9.791,15.354c-2.003,5.341-7.788,0.445-7.788,0.445c-4.005,4.896-8.901,0.762-8.901,0.762
				c0,1.207-1.78,4.134-10.904,0c-9.123-4.134-40.373-0.891-54.124-0.127c-13.751,0.764-9.549-1.91-15.661-8.021
				c-6.111-6.111,9.167-22.154,9.167-22.154s2.597-10.374,1.576-20.535c-0.124-1.23,0.008-2.466,0.331-3.659
				c1.871-6.919,8.929-29.574,23.81-41.358c17.702-14.017,14.646-29.02,23.635-46.387
				C95.684,316.592,132.741,289.524,132.741,289.524"/>
			<path style="fill:none;stroke:#000000;stroke-width:0.75;stroke-linecap:round;stroke-linejoin:round;stroke-miterlimit:10;" d="
				M157.316,480.833c0,0,4.124-3.326-1.902-8.092"/>
			<path style="fill:none;stroke:#000000;stroke-width:0.75;stroke-linecap:round;stroke-linejoin:round;stroke-miterlimit:10;" d="
				M165.849,480.481c0,0,3.166-5.608-2.635-8.292"/>
			<path style="opacity:0.15;" d="M181.539,323.657c0,0,2.528-0.704,3.338-2.783c0.81-2.078,0.106-4.606-2.451-1.66
				C179.869,322.161,179.279,324.924,181.539,323.657z"/>
			<path style="opacity:0.15;" d="M182.628,313.374c0,0,1.576,1.16,2.484,0.032c0.908-1.128,5.556-5.245,1.611-4.131
				C182.777,310.39,181.86,313.543,182.628,313.374z"/>
			<path style="opacity:0.15;" d="M176.29,321.825c0,0,2.011-1.556,2.622-2.722c0.611-1.166,0.654-3.879-1.365-1.702
				C175.528,319.577,175.05,323.604,176.29,321.825z"/>
			<path style="opacity:0.15;" d="M87.161,418.891c0,0,0.676,2.536,2.745,3.37c2.069,0.834,4.605,0.158,1.688-2.432
				C88.675,417.238,85.92,416.617,87.161,418.891z"/>
			<path style="opacity:0.15;" d="M97.431,420.096c0,0-1.178,1.563-0.06,2.483c1.118,0.921,5.182,5.615,4.112,1.657
				C100.414,420.279,97.271,419.326,97.431,420.096z"/>
			<path style="opacity:0.15;" d="M89.052,413.663c0,0,1.533,2.028,2.693,2.652c1.159,0.624,3.872,0.698,1.718-1.345
				C91.308,412.927,87.287,412.404,89.052,413.663z"/>
			<path style="opacity:0.15;" d="M136.569,348.895c0,0,3.368-3.372,3.821-4.534c0.453-1.162-3.008-4.184-3.414,0.175
				C136.569,348.895,133.566,350.903,136.569,348.895z"/>
			<path style="opacity:0.15;" d="M137.52,335.142c0,0,1.505,3.221,2.787,2.647c1.282-0.573,1.465-2.063,2.661-4.62
				c1.196-2.558-0.576-4.517-2.866-1.898C137.813,333.89,136.705,333.742,137.52,335.142z"/>
			<path style="opacity:0.15;" d="M130.276,348.218c0,0,2.23,0.787,3.256-1.845c1.026-2.632,1.091-6.801-2.202-3.11
				C128.037,346.955,129.028,348.155,130.276,348.218z"/>
			<path style="opacity:0.15;" d="M146.113,339.02c0,0,2.712-2.247,3.015-3.966c0.303-1.718-1.486-2.783-3.218,0.092
				C144.177,338.021,145.039,340.023,146.113,339.02z"/>
		</g>
		<g>
			<g>
				<path style="fill:#505968;" d="M201.48,217.658c0,0,7.053-3.736,12.686,3.409c5.633,7.144,8.188,20.354,5.044,24.871
					C216.064,250.456,200.209,229.187,201.48,217.658z"/>
				
					<path style="fill:none;stroke:#000000;stroke-width:0.75;stroke-linecap:round;stroke-linejoin:round;stroke-miterlimit:10;" d="
					M201.573,217.658c0,0,7.053-3.736,12.686,3.409c5.633,7.144,8.188,20.354,5.044,24.871
					C216.157,250.456,200.302,229.187,201.573,217.658z"/>
			</g>
			<path style="fill:#505968;" d="M136.873,234.189c0,0-1.641,4.159-7.771,9.373c-6.129,5.215-4.043,14.972,6.415,20.853
				c10.458,5.881,14.518,5.051,15.522,11.102c1.005,6.051,3.731,0.935,5.295-1.812c1.565-2.747,13.99,1.874,19.557,9.189
				c5.567,7.314,14.614,12.186,29.515,9.245c14.901-2.94,13.113-6.219,13.802-18.924c0,0,7.486,1.089,9.054-6.322
				c1.568-7.411,1.902-18.503-7.574-22.215c0,0-4.463,1.207-5.013-5.852c-0.55-7.059-4.806-14.902-12.164-19.898
				s-16.745-7.324-32.737-4.358c0,0-4.117,0.528-9.514,3.6C155.864,221.243,150.929,212.114,136.873,234.189z"/>
			<path style="fill:#EA873D;" d="M175.893,282.894c5.567,7.314,14.614,12.186,29.515,9.245c14.901-2.94,13.113-6.219,13.802-18.924
				c0,0,7.486,1.089,9.054-6.322c0,0,3.057-17.487-4.081-18.613c0,0-6.297,12.878-9.368,12.575c0,0-15.676-2.244-19.072-5.498
				c-3.395-3.254-11.312,2.681-15.205-2.223c-3.893-4.905-9.148,0.696-10.134-6.209c-0.986-6.904-15.11,15.692-6.533,27.292
				C163.87,274.218,170.004,276.344,175.893,282.894z"/>
			<path style="opacity:0.3;" d="M150.388,249.009c-2.59-16.757,10.873-30.839,10.873-30.839c4.457-2.805,7.292-3.101,7.292-3.101
				c-4.815,6.377-5.615,23.516,0.079,31.772c6.031,8.746,2.76,10.161,6.271,20.177c4.938,14.083,16.063,16.726,16.063,16.726
				c20.251,6.255,28.243-10.529,28.243-10.529c-0.689,12.705,1.099,15.984-13.802,18.924c-14.901,2.94-23.948-1.931-29.515-9.245
				c-5.567-7.314-17.992-11.936-19.557-9.189C156.335,273.705,152.459,262.41,150.388,249.009z"/>
			<path style="opacity:0.15;fill:#D2E0FF;" d="M156.335,273.705c-1.199,2.925-4.291,7.863-5.295,1.812
				c-1.005-6.051-5.064-5.222-15.522-11.102c-10.458-5.88-12.545-15.638-6.415-20.853c6.129-5.215,7.771-9.373,7.771-9.373
				c14.056-22.075,18.991-12.946,24.388-16.018c0,0,1.141,4.275-4.13,9.696S167.225,247.131,156.335,273.705z"/>
			<path style="fill:#505968;" d="M151.434,219.302c4.143-1.365,6.918,0.525,9.827-1.131c0,0,1.141,4.275-4.13,9.696
				s10.093,19.264-0.796,45.838c-1.199,2.925-4.291,7.863-5.295,1.812c-1.005-6.051-5.064-5.222-15.522-11.102
				c0,0,5.834-3.751,7.405-15.322C144.495,237.522,153.427,240.578,151.434,219.302z"/>
			<path style="opacity:0.3;" d="M149.393,271.742c0,0,9.044-19.181,7.384-29.175c-1.659-9.994-3.061-16.83,1.742-18.427
				c4.803-1.598,2.651-0.096,1.873,6.463s2.998,21.27,4.509,25.553c1.511,4.284,1.533,16.288,1.614,19.273
				c0,0-7.105-3.675-9.705-2.259c0,0-0.844,1.085-1.112,1.839c-0.269,0.754-2.643,5.725-4.035,2.644
				C150.271,274.571,151.611,273.392,149.393,271.742z"/>
			<path style="opacity:0.15;fill:#D2E0FF;" d="M217.134,258.888c0,0-5.681,7.078-13.673,4.364
				c-7.991-2.714-5.818-5.851-12.875-6.884c-7.057-1.033-13.388-22.616-12.926-32.728c0.462-10.112,20.359-6.724,24.096,2.854
				c3.737,9.579,8.995,19.696,13.553,21.403C219.867,249.604,220.754,255.823,217.134,258.888z"/>
			<path style="fill:none;stroke:#000000;stroke-width:0.75;stroke-linecap:round;stroke-linejoin:round;stroke-miterlimit:10;" d="
				M156.335,273.705c0,0,6.91-10.027,2.735-30.314c0,0-1.961-6.23-2.406-8.366c-0.444-2.137-1.35-4.307,0.467-7.158
				c1.817-2.851,4.165-2.823,4.13-9.696"/>
			<path d="M219.209,273.216c5.6,0.631,8.091-3.703,8.091-3.703s-3.734,1.286-7.252-0.379c-3.518-1.665-5.658-9.654-5.658-9.654
				s0.918,4.814-0.04,8.683c-0.957,3.869-1.833,4.614-7.685,4.286c-5.852-0.328-22.491-4.845-28.21-11.612
				c0,0,6.547,20.635,25.04,23.567C221.989,287.335,219.209,273.216,219.209,273.216z"/>
			<path style="fill:#FF7867;" d="M190.027,278.09c0,0,7.323-5.12,14.759-2.45c0,0,12.965-7.384,23.486,4.297
				c10.521,11.68-3.101,17.04-9.286,13.623c-6.185-3.416-8.557-7.561-15.49-9.156C196.563,282.807,194.878,282.049,190.027,278.09z"
				/>
			<path style="fill:#E24B40;" d="M218.986,293.56c-6.185-3.416-8.439-6.849-15.372-8.444c-6.933-1.596-8.737-3.066-13.587-7.025
				c0,0,7.323-5.12,14.759-2.45c0,0,9.531,2.173,9.741,8.733c2.881,4.005,12.503,7.718,16.171,7.242
				C230.697,291.615,226.528,297.165,218.986,293.56z"/>
			<g>
				<path style="fill:#C62622;" d="M204.778,275.39c1.577-0.191,3.152-0.107,4.702,0.175c1.552,0.266,3.071,0.74,4.516,1.382
					c1.442,0.644,2.827,1.438,4.054,2.434c1.266,0.945,2.321,2.139,3.26,3.377c0.084,0.11,0.062,0.268-0.048,0.351
					c-0.094,0.071-0.221,0.066-0.309-0.005l-0.013-0.01c-1.19-0.962-2.348-1.91-3.617-2.698c-1.244-0.817-2.557-1.518-3.918-2.105
					c-1.353-0.607-2.762-1.095-4.201-1.491c-1.438-0.386-2.92-0.717-4.408-0.91l-0.019-0.002c-0.137-0.018-0.234-0.143-0.216-0.281
					C204.574,275.49,204.667,275.403,204.778,275.39z"/>
			</g>
			<path d="M184.8,239.262c0.932,2.358-0.477,4.814-2.835,5.746c-2.357,0.932-4.77-0.013-5.702-2.37
				c-0.932-2.357,0.595-4.863,2.952-5.796C181.572,235.91,183.867,236.904,184.8,239.262z"/>
			<path style="fill:#D66A21;" d="M184.471,229.31c0.932,2.357-1.692,1.701-4.05,2.633c-2.357,0.932-3.55,2.243-5.053,0.761
				c-1.804-1.781,1.111-4.04,3.469-4.972C181.194,226.799,183.538,226.952,184.471,229.31z"/>
			<path style="fill:#D66A21;" d="M205.106,227.055c-0.133,2.531,1.625,1.046,3.556,1.148c1.932,0.102,3.103,0.945,3.854-0.949
				c0.902-2.275-1.743-3.445-3.674-3.546C206.91,223.605,205.24,224.523,205.106,227.055z"/>
			<path d="M208.017,236.361c-0.288,2.518,1.385,4.487,3.529,4.733c2.145,0.245,3.949-1.326,4.237-3.845
				c0.288-2.519-1.492-4.502-3.636-4.748C210.002,232.257,208.305,233.843,208.017,236.361z"/>
			<path style="fill:#FFD7AF;" d="M212.603,238.453c-0.055,0.48,0.326,0.862,0.806,0.917c0.48,0.055,0.877-0.238,0.932-0.718
				c0.055-0.48-0.35-0.865-0.83-0.92C213.031,237.677,212.658,237.974,212.603,238.453z"/>
			<path style="fill:#FFD7AF;" d="M214.451,236.904c0.237,0.079,0.479-0.098,0.566-0.362c0.087-0.264-0.013-0.516-0.25-0.595
				c-0.237-0.078-0.483,0.111-0.571,0.375S214.214,236.825,214.451,236.904z"/>
			<path style="fill:#FFD7AF;" d="M184.288,241.307c-0.04-0.481-0.487-0.782-0.969-0.742c-0.481,0.04-0.814,0.405-0.774,0.886
				c0.04,0.481,0.512,0.78,0.993,0.741C184.02,242.152,184.328,241.788,184.288,241.307z"/>
			<path style="fill:#FFD7AF;" d="M182.315,242.715c-0.248-0.031-0.45,0.189-0.485,0.465c-0.034,0.276,0.113,0.504,0.361,0.535
				c0.248,0.031,0.452-0.203,0.487-0.479C182.712,242.96,182.563,242.746,182.315,242.715z"/>
			<path d="M202.484,247.596c0,0,9.372-4.777,14.481-4.316c5.109,0.46,7.964,2.502,8.468,4.331
				c0.505,1.828-3.564,8.844-8.087,12.514c-4.524,3.67-7.083-1.441-11.341-4.055C201.746,253.455,199.969,250.026,202.484,247.596z"
				/>
			<path style="fill:none;stroke:#000000;stroke-width:0.75;stroke-linecap:round;stroke-linejoin:round;stroke-miterlimit:10;" d="
				M216.852,242.986c-0.573-0.888-1.024-2.208-1.176-4.159c-0.28-3.585-1.514-7.371-3.626-10.885c0,0,1.218-1.254,0.391-2.516
				c-0.827-1.261-2.791-1.732-3.564-1.793c-1.544-1.734-3.337-3.327-5.365-4.705c-7.358-4.996-16.745-7.324-32.737-4.358
				c0,0-4.117,0.528-9.514,3.6c-5.397,3.072-10.332-6.057-24.388,16.018c0,0-1.641,4.159-7.771,9.373
				c-6.129,5.215-4.043,14.972,6.415,20.853c10.458,5.881,14.518,5.051,15.522,11.102c1.005,6.051,3.731,0.935,5.295-1.812
				c1.565-2.747,13.99,1.874,19.557,9.189c5.567,7.314,14.614,12.186,29.515,9.245c3.484-0.688,6.056-1.393,7.96-2.234
				c0,0,5.327,4.425,9.429,4.919c4.102,0.494,9.894-2.743,9.304-7.8c-0.59-5.057-6.017-10.566-12.748-12.949l-0.143-0.859
				c0,0,7.486,1.089,9.054-6.322c1.236-5.841,1.705-13.968-2.79-18.967c0,0,0.024-1.838-3.114-3.35
				C219.222,243.064,216.852,242.986,216.852,242.986z"/>
			<path style="opacity:0.3;" d="M200.525,260.362c0,0-1.355,0.982-0.833,1.631c0.522,0.649,1.425-0.007,1.686-0.648
				C201.64,260.704,201.41,259.872,200.525,260.362z"/>
			<path style="opacity:0.3;" d="M204.94,264.384c0,0-0.741,0.816-0.475,1.43c0.266,0.613,1.217,1.058,1.644,0.33
				c0.427-0.728,0.932-1.082,0.869-1.678C206.914,263.868,204.94,264.384,204.94,264.384z"/>
			<path style="opacity:0.3;" d="M197.205,264.662c0,0-0.809,1.066,0.23,1.386c1.04,0.321,1.864-0.326,1.799-0.718
				C199.169,264.939,198.317,263.437,197.205,264.662z"/>
			<path style="opacity:0.3;" d="M222.64,261.418c0,0-0.364,0.781,0.223,1.341c0.586,0.56,1.561,0.202,1.266-0.938
				C223.833,260.68,222.709,260.557,222.64,261.418z"/>
			<path style="opacity:0.3;" d="M225.319,257.584c0,0-0.263,1.875,0.33,1.984c0.593,0.109,1.318-0.669,1.103-1.702
				C226.537,256.834,225.366,256.39,225.319,257.584z"/>
			<path style="opacity:0.3;" d="M226.305,261.846c0,0-0.697,0.523-0.138,0.838c0.559,0.315,1.619,0.393,1.317-0.422
				C227.18,261.446,226.645,261.41,226.305,261.846z"/>
		</g>
	</g>
	<g>
		<g>
			<path style="fill:#505968;" d="M426.307,159.492c-4.095,9.782-6.142,20.928-6.142,35.487c0,14.559-1.137,22.975,2.502,30.027
				c0,0,15.415,1.105,15.28,13.459c0,0,0.027,3.583-4.024,3.583c0,0-1.967,3.125-6.712,2.199c0,0-5.324,1.273-8.333-0.81
				c-3.009-2.083-7.291-1.273-7.522-5.092c-0.231-3.819-1.389-10.647-3.472-13.425c-2.083-2.777-2.478-4.356-2.478-14.617
				c0-10.261-4.058-31.962-4.353-45.206C401.053,165.096,426.777,124.148,426.307,159.492z"/>
			<path style="opacity:0.3;" d="M420.165,194.979c0-14.559,2.047-25.705,6.142-35.487c0.47-35.344-25.254,5.605-25.254,5.605
				c0.295,13.244,4.353,34.945,4.353,45.206C405.406,210.302,408.771,198.166,420.165,194.979z"/>
			<path style="fill:#FFE7D2;" d="M437.947,238.465c0,0,0.027,3.583-4.024,3.583c0,0-1.967,3.125-6.712,2.199
				c0,0-5.324,1.273-8.333-0.81c-3.009-2.083-7.291-1.273-7.522-5.092c0,0,2.994,2.247,5.462,2.057
				c2.468-0.19,5.62-4.914,9.491-1.274c0,0,4.506-5.337,6.974-2.615c0,0,1.143-5.138,4.19-1.712
				C437.473,234.8,438.255,236.908,437.947,238.465z"/>
			<path style="fill:none;stroke:#000000;stroke-width:0.75;stroke-linecap:round;stroke-linejoin:round;stroke-miterlimit:10;" d="
				M426.307,159.492c-4.095,9.782-6.142,20.928-6.142,35.487c0,14.559-1.137,22.975,2.502,30.027c0,0,15.415,1.105,15.28,13.459
				c0,0,0.027,3.583-4.024,3.583c0,0-1.967,3.125-6.712,2.199c0,0-5.324,1.273-8.333-0.81c-3.009-2.083-7.291-1.273-7.522-5.092
				c-0.231-3.819-1.389-10.647-3.472-13.425c-2.083-2.777-2.478-4.356-2.478-14.617c0-10.261-4.058-31.962-4.353-45.206
				C401.053,165.096,426.777,124.148,426.307,159.492z"/>
			<path style="fill:none;stroke:#000000;stroke-width:0.75;stroke-linecap:round;stroke-linejoin:round;stroke-miterlimit:10;" d="
				M427.21,244.247c0,0,0.945-3.292-1.914-6.502"/>
			<path style="fill:none;stroke:#000000;stroke-width:0.75;stroke-linecap:round;stroke-linejoin:round;stroke-miterlimit:10;" d="
				M428.858,233.28c0,0,6.066,0.431,5.065,8.768"/>
		</g>
		<g>
			<path style="fill:#505968;" d="M309.63,125.49c-13.472,0-6.072,13.778-5.605,29.192c0.467,15.413-1.168,20.551-8.874,29.892
				c-7.707,9.341-8.874,7.706-10.509,15.647c-1.635,7.94-5.838,29.659-5.724,36.974c0.114,7.315,5.715,4.457,9.258,6.058
				c3.543,1.6,9.301,0.114,9.301,0.114c5.986,1.143,7.958-2.4,7.958-2.4c2.514-0.457,4.292-4.242,4.292-4.242
				c2.173-5.796-7.969-10.626-7.969-10.626s-7.486-7.969-2.657-21.735c4.83-13.765,17.871-16.18,31.395-27.772
				c13.524-11.592,17.629-35.742,17.629-35.742S327.731,125.49,309.63,125.49z"/>
			<path style="opacity:0.3;" d="M284.642,200.221c1.635-7.94,2.802-6.305,10.509-15.647c7.707-9.341,9.341-14.479,8.874-29.892
				c-0.467-15.413-7.867-29.192,5.605-29.192c18.101,0,38.494,15.36,38.494,15.36s-4.105,24.15-17.629,35.742
				c-6.405,5.49-12.703,8.922-18.07,12.476c0,0-9.465,0.039-12.308,3.781C297.274,196.591,284.642,200.221,284.642,200.221z"/>
			<path style="fill:#FFE7D2;" d="M308.158,230.815c1.464,1.698,2.382,3.736,1.566,5.909c0,0-1.777,3.785-4.292,4.242
				c0,0-1.971,3.543-7.958,2.4c0,0-5.758,1.486-9.301-0.114c-3.543-1.6-9.144,1.257-9.258-6.058c0,0,7.026-0.258,8.653-1.009
				c1.627-0.751,7.758-3.378,9.885,0.626c0,0,1.502-5.631,6.256-3.629C303.71,233.182,302.869,229.977,308.158,230.815z"/>
			<path style="fill:none;stroke:#000000;stroke-width:0.75;stroke-linecap:round;stroke-linejoin:round;stroke-miterlimit:10;" d="
				M309.63,125.49c-13.472,0-6.072,13.778-5.605,29.192c0.467,15.413-1.168,20.551-8.874,29.892
				c-7.707,9.341-8.874,7.706-10.509,15.647c-1.635,7.94-5.838,29.659-5.724,36.974c0.114,7.315,5.715,4.457,9.258,6.058
				c3.543,1.6,9.301,0.114,9.301,0.114c5.986,1.143,7.958-2.4,7.958-2.4c2.514-0.457,4.292-4.242,4.292-4.242
				c2.173-5.796-7.969-10.626-7.969-10.626s-7.486-7.969-2.657-21.735c4.83-13.765,17.871-16.18,31.395-27.772
				c13.524-11.592,17.629-35.742,17.629-35.742S327.731,125.49,309.63,125.49z"/>
			<path style="fill:none;stroke:#000000;stroke-width:0.75;stroke-linecap:round;stroke-linejoin:round;stroke-miterlimit:10;" d="
				M297.412,243.347c0,0,2.829-6.072-3.682-11.963"/>
			<path style="fill:none;stroke:#000000;stroke-width:0.75;stroke-linecap:round;stroke-linejoin:round;stroke-miterlimit:10;" d="
				M305.37,240.947c0,0,1.951-6.927-5.801-11.009"/>
		</g>
		<g>
			<path style="fill:#505968;" d="M292.329,118.694c0,0-15.032,1.9-23.364-16.747c-8.332-18.647-1.829-35.112,11.682-34.318
				c13.511,0.794,4.981-4.166-3.152-4.563c-8.133-0.397-19.44,5.951-23.011,21.027c-3.571,15.076,12.696,44.435,29.756,47.213
				C301.299,134.083,305.575,118.777,292.329,118.694z"/>
			<path style="opacity:0.15;fill:#D2E0FF;" d="M254.484,84.094c3.571-15.076,14.878-21.424,23.011-21.027
				c8.133,0.397,16.663,5.356,3.152,4.563c-13.511-0.794-20.013,15.671-11.682,34.318
				C268.965,101.947,254.484,92.918,254.484,84.094z"/>
			<path style="opacity:0.3;" d="M280.517,115.741c6.24,3.657,11.812,2.953,11.812,2.953c13.247,0.083,8.971,15.389-8.089,12.612
				c-8.095-1.318-16.011-8.621-21.714-17.542C262.525,113.764,267.801,118.844,280.517,115.741z"/>
			<path style="fill:none;stroke:#000000;stroke-width:0.75;stroke-linecap:round;stroke-linejoin:round;stroke-miterlimit:10;" d="
				M292.329,118.694c0,0-15.032,1.9-23.364-16.747c-8.332-18.647-1.829-35.112,11.682-34.318c13.511,0.794,4.981-4.166-3.152-4.563
				c-8.133-0.397-19.44,5.951-23.011,21.027c-3.571,15.076,12.696,44.435,29.756,47.213
				C301.299,134.083,305.575,118.777,292.329,118.694z"/>
		</g>
		<g>
			<path style="fill:#505968;" d="M431.222,102.859c0,0-2.028,8.891-2.496,15.286c-0.468,6.395,4.367,15.286,4.367,20.901
				c0,5.615,2.369,10.307-10.421,25.749c-12.79,15.442-19.527,16.21-29.665,22.137c0,0-2.496,7.643-2.652,18.873
				c-0.156,11.231-0.312,20.121,0.936,25.893c1.248,5.771,4.835,10.451,4.835,10.451s9.359,3.9,9.047,10.919
				c-0.312,7.019-5.771,5.147-5.771,5.147s-1.248,3.432-6.239,2.028c0,0-4.523,1.404-7.643-0.312
				c-3.12-1.716-8.891,0.156-9.047-5.147c-0.156-5.303,0.78-9.983-1.404-14.662c-2.184-4.679-3.391-12.649-3.391-29.071
				s0.724-20.769-5.313-33.085c0,0-13.282-0.483-29.221-12.075c-15.939-11.592-28.014-11.35-28.014-11.35
				s-4.105,24.15-17.629,35.742c-13.524,11.592-26.565,14.007-31.395,27.772c-4.83,13.765,2.656,21.735,2.656,21.735
				s10.143,4.83,7.969,10.626c0,0-1.777,3.785-4.292,4.242c0,0-1.971,3.543-7.958,2.4c0,0-5.758,1.486-9.301-0.114
				c-3.543-1.6-9.144,1.257-9.258-6.058c-0.114-7.315,4.089-29.033,5.724-36.974c1.635-7.94,2.802-6.305,10.509-15.647
				c7.707-9.341,9.341-14.479,8.874-29.892c-0.467-15.413-1.868-17.982,5.605-29.192c7.473-11.209,10.276-16.814,24.521-21.485
				c14.246-4.671,43.437-5.371,54.18-7.473c10.743-2.102,25.222-4.437,29.425-9.808c4.204-5.371,7.24-27.09,14.479-38.3
				S448.886,75.412,431.222,102.859z"/>
			<path style="opacity:0.15;fill:#D2E0FF;" d="M295.157,117.695c14.246-4.671,43.437-5.371,54.18-7.473
				c10.743-2.102,25.222-4.437,29.425-9.808c0,0-5.605,21.684-14.667,23.446c-9.061,1.762-31.966-2.032-45.055,5.654
				C305.952,137.2,282.098,125.123,295.157,117.695z"/>
			<path style="fill:#FFE7D2;" d="M269.166,244.505c1.465,1.698,2.381,3.736,1.566,5.909c0,0-1.777,3.785-4.292,4.242
				c0,0-1.971,3.543-7.958,2.4c0,0-5.758,1.486-9.301-0.114c-3.543-1.6-9.144,1.257-9.258-6.058c0,0,7.027-0.258,8.653-1.009
				c1.627-0.751,7.758-3.378,9.885,0.626c0,0,1.501-5.631,6.256-3.629C264.719,246.873,263.878,243.668,269.166,244.505z"/>
			<path style="fill:#FFE7D2;" d="M403.892,248.4c0.833,1.353,1.36,2.912,1.282,4.667c-0.312,7.019-5.771,5.147-5.771,5.147
				s-1.248,3.432-6.239,2.028c0,0-4.523,1.404-7.643-0.312c-3.12-1.716-8.891,0.156-9.047-5.147c0,0,3.697,2.035,6.119,1.668
				c2.422-0.367,5.505-4.991,10.13-1.321c0,0,2.349-4.184,5.505-2.349C398.227,252.781,398.325,248.938,403.892,248.4z"/>
			<path style="opacity:0.3;" d="M385.196,82.318c2.117-7.187,4.607-14.881,8.045-20.204c7.24-11.21,55.644,13.298,37.981,40.745
				c0,0-2.555,14.229-12.431,13.337c-9.876-0.892-5.732-11.527-14.335-17.247C395.853,93.229,388.098,86.873,385.196,82.318z"/>
			<path style="opacity:0.3;" d="M328.847,151.947c11.138,5.38,20.976,15.353,31.788,15.353s9.082,2.811,12.326,13.407
				c3.244,10.596-1.283,30.343-1.283,30.343c0-16.422,0.724-20.769-5.313-33.085c0,0-13.282-0.483-29.221-12.075
				c-15.939-11.592-28.014-11.35-28.014-11.35s-4.105,24.15-17.629,35.742c-13.524,11.592-26.565,14.007-31.395,27.772
				c0,0-0.358-10.183,16.945-23.18c17.304-12.997,18.271-20.737,18.916-33.313C296.613,148.983,297.059,136.594,328.847,151.947z"/>
			<path style="fill:none;stroke:#000000;stroke-width:0.75;stroke-linecap:round;stroke-linejoin:round;stroke-miterlimit:10;" d="
				M431.222,102.859c0,0-2.028,8.891-2.496,15.286c-0.468,6.395,4.367,15.286,4.367,20.901c0,5.615,2.369,10.307-10.421,25.749
				c-12.79,15.442-19.527,16.21-29.665,22.137c0,0-2.496,7.643-2.652,18.873c-0.156,11.231-0.312,20.121,0.936,25.893
				c1.248,5.771,4.835,10.451,4.835,10.451s9.359,3.9,9.047,10.919c-0.312,7.019-5.771,5.147-5.771,5.147s-1.248,3.432-6.239,2.028
				c0,0-4.523,1.404-7.643-0.312c-3.12-1.716-8.891,0.156-9.047-5.147c-0.156-5.303,0.78-9.983-1.404-14.662
				c-2.184-4.679-3.391-12.649-3.391-29.071s0.724-20.769-5.313-33.085c0,0-13.282-0.483-29.221-12.075
				c-15.939-11.592-28.014-11.35-28.014-11.35s-4.105,24.15-17.629,35.742c-13.524,11.592-26.565,14.007-31.395,27.772
				c-4.83,13.765,2.656,21.735,2.656,21.735s10.143,4.83,7.969,10.626c0,0-1.777,3.785-4.292,4.242c0,0-1.971,3.543-7.958,2.4
				c0,0-5.758,1.486-9.301-0.114c-3.543-1.6-9.144,1.257-9.258-6.058c-0.114-7.315,4.089-29.033,5.724-36.974
				c1.635-7.94,2.802-6.305,10.509-15.647c7.707-9.341,9.341-14.479,8.874-29.892c-0.467-15.413-1.868-17.982,5.605-29.192
				c7.473-11.209,10.276-16.814,24.521-21.485c14.246-4.671,43.437-5.371,54.18-7.473c10.743-2.102,25.222-4.437,29.425-9.808
				c4.204-5.371,7.24-27.09,14.479-38.3S448.886,75.412,431.222,102.859z"/>
			<path style="fill:#FFE7D2;" d="M431.886,150.052c0,0,3.188-4.748-3.006-11.797c-6.194-7.048-2.777-13.883-12.174-3.204
				c-9.397,10.679-8.116,10.679-7.048,21.572c1.068,10.893,2.945,18.427,13.229,7.078
				C422.886,163.701,429.737,155.675,431.886,150.052z"/>
			<path style="fill:none;stroke:#000000;stroke-width:0.75;stroke-linecap:round;stroke-linejoin:round;stroke-miterlimit:10;" d="
				M393.163,260.242c0,0,1.45-6.295-4.819-10.309"/>
			<path style="fill:none;stroke:#000000;stroke-width:0.75;stroke-linecap:round;stroke-linejoin:round;stroke-miterlimit:10;" d="
				M399.402,258.215c0,0,1.014-6.687-6.094-9.436"/>
			<path style="fill:none;stroke:#000000;stroke-width:0.75;stroke-linecap:round;stroke-linejoin:round;stroke-miterlimit:10;" d="
				M258.483,257.056c0,0,2.829-6.071-3.682-11.963"/>
			<path style="fill:none;stroke:#000000;stroke-width:0.75;stroke-linecap:round;stroke-linejoin:round;stroke-miterlimit:10;" d="
				M266.441,254.656c0,0,1.951-6.927-5.801-11.009"/>
			<path style="opacity:0.3;" d="M395.961,173.303c0,0-0.364,2.794-0.85,3.159c-0.486,0.365-3.037-0.243-2.551-1.579
				C393.045,173.546,396.152,172.125,395.961,173.303z"/>
			<path style="opacity:0.3;" d="M401.792,173.424c0,0-1.701,2.065-1.822,0c-0.121-2.065-1.093-3.159,0.911-3.159
				C402.885,170.266,403.614,173.424,401.792,173.424z"/>
			<path style="opacity:0.3;" d="M385.83,106.285c0,0-0.352,2.339-1,2.339c-0.648,0-2.296-0.43-1.866-1.791
				C383.394,105.471,386.83,103.946,385.83,106.285z"/>
			<path style="opacity:0.3;" d="M385.544,101.243c0,0-1.003,2.006-1.863,1.218c-0.86-0.788-2.362-1.157-0.787-2.048
				C384.469,99.523,386.618,99.309,385.544,101.243z"/>
			<path style="opacity:0.3;" d="M274.803,149.199c0,0,0.805,6.84-0.671,6.84c-1.475,0-2.548-0.939-2.28-2.682
				C272.12,151.613,274.585,145.713,274.803,149.199z"/>
			<path style="opacity:0.3;" d="M270.387,159.588c0,0,1.406,1.015,0.703,2.031c-0.703,1.015-2.967,2.187-2.967,0
				S268.356,157.948,270.387,159.588z"/>
			<path style="opacity:0.3;" d="M276.634,159.353c0,0,0.859,4.061,0,4.373c-0.859,0.312-2.421,0.469-2.343-1.64
				C274.37,159.978,276.335,157.486,276.634,159.353z"/>
		</g>
		<g>
			<g>
				<path style="fill:#505968;" d="M441.452,27.538c1.795,3.709,5.267,12.209,3.688,19.771c0,0-13.746-3.819-12.181-10.636
					c0,0,3.348-4.505,6.39-9.256C439.857,26.622,441.041,26.689,441.452,27.538z"/>
				<path style="opacity:0.3;" d="M445.14,47.309c1.58-7.562-1.893-16.062-3.688-19.771c-0.411-0.849-1.595-0.916-2.104-0.122
					c0,0,2.427,1.886,2.512,6.289C441.945,38.107,445.14,47.309,445.14,47.309z"/>
				
					<path style="fill:none;stroke:#000000;stroke-width:0.75;stroke-linecap:round;stroke-linejoin:round;stroke-miterlimit:10;" d="
					M441.452,27.538c1.795,3.709,5.267,12.209,3.688,19.771c0,0-13.746-3.819-12.181-10.636c0,0,3.348-4.505,6.39-9.256
					C439.857,26.622,441.041,26.689,441.452,27.538z"/>
			</g>
			<path style="fill:#505968;" d="M436.666,39.779c0,0,3.384,5.134,6.067,5.834c2.684,0.7,8.867,9.101,8.401,14.351
				c-0.467,5.25-0.583,5.134,3.85,7.351c4.434,2.217,5.951,11.668,6.884,15.402c0.933,3.734-5.601,19.718-10.618,22.752
				c-5.017,3.034-10.734-3.15-11.434-6.067c0,0-2.684,4.317-7.467,5.484c-4.784,1.167-14.235,0.583-18.785-6.534
				c-4.55-7.117-2.45-9.334-8.517-11.318c-6.067-1.983-12.251-3.85-12.718-8.517c-0.467-4.667-3.034-24.931-4.084-29.248
				c-1.05-4.317-3.734-4.005-3.384-12.172c0.35-8.167,6.184-15.518,7.234-17.035s5.717,3.967,12.951,15.751
				c0,0,9.801-3.15,17.385-0.117C422.432,35.695,431.205,32.97,436.666,39.779z"/>
			<path style="opacity:0.3;" d="M423.874,35.378c4.811,5.905,5.488,9.847,5.488,9.847s-4.443-7.539-13.059-10.905
				c0,0,3.931,0.736,6.129,1.375C422.432,35.695,423.097,35.487,423.874,35.378z"/>
			<path d="M447.531,77.39c0,0,0.175,5.944,0,7.256c-0.175,1.311,4.983,6.469,3.934,10.927c-1.049,4.458-1.899-0.437-1.899-0.437
				s-5.138,3.983-9.75,4.265c0,0-4.121,7.397-14.638,5.762c0,0,6.005-0.498,8.103-4.782c2.098-4.284,8.13-12.588,10.928-14.949
				c2.797-2.36,1.573-8.917,1.573-8.917S447.881,74.855,447.531,77.39z"/>
			<path style="fill:#505968;" d="M446.513,86.052c0,0,3.052,4,3.053,6.542c0.001,2.542-0.872,1.817-3.344,2.908
				c-2.472,1.09-6.906,2.253-9.45,2.253c0,0,2.035-2.617,3.199-4.943C441.133,90.487,445.188,86.501,446.513,86.052z"/>
			<path style="opacity:0.15;fill:#D2E0FF;" d="M406.665,39.772c0,0,6.244-3.42,10.26-0.795c4.015,2.625,14.307,12.487,14.307,6.247
				c0-6.239,2.991-4.463,4.955-1.565c1.963,2.898,6.939,3.739,7.162,6.544s-4.912,2.618-3.835,6.544s-8.186,6.745-5.152,9.442
				c3.035,2.698,5.226,15.455-0.506,17.421c-5.732,1.967-7.543-10.678-14.224-12.701c-6.681-2.023-7.187-17.028-13.931-18.714
				C398.957,50.51,394.984,43.196,406.665,39.772z"/>
			<path d="M421.117,60.033c0.697,2.318-0.842,4.542-3.16,5.238c-2.318,0.697-4.537-0.397-5.234-2.715
				c-0.697-2.318,0.958-4.579,3.276-5.276C418.317,56.584,420.421,57.715,421.117,60.033z"/>
			<path d="M443.44,59.147c-0.477,2.373,0.955,4.381,2.976,4.787c2.021,0.406,3.865-0.943,4.342-3.316
				c0.477-2.373-1.056-4.404-3.077-4.81C445.66,55.402,443.917,56.774,443.44,59.147z"/>
			<path style="fill:#FFD7AF;" d="M447.635,61.508c-0.091,0.452,0.241,0.846,0.693,0.937c0.452,0.091,0.853-0.156,0.944-0.608
				c0.091-0.452-0.263-0.851-0.715-0.942C448.105,60.804,447.726,61.056,447.635,61.508z"/>
			<path style="fill:#FFD7AF;" d="M449.517,60.182c0.219,0.094,0.463-0.054,0.568-0.299c0.104-0.244,0.03-0.492-0.189-0.586
				c-0.219-0.094-0.469,0.066-0.573,0.311C449.218,59.853,449.298,60.089,449.517,60.182z"/>
			<path style="fill:#FFD7AF;" d="M420.466,61.938c0.001-0.461-0.401-0.783-0.862-0.784c-0.461-0.001-0.807,0.319-0.808,0.78
				c-0.001,0.461,0.424,0.784,0.885,0.785C420.142,62.72,420.465,62.399,420.466,61.938z"/>
			<path style="fill:#FFD7AF;" d="M418.475,63.118c-0.233-0.049-0.444,0.143-0.499,0.403c-0.055,0.26,0.067,0.488,0.3,0.538
				c0.233,0.049,0.447-0.156,0.502-0.416C418.832,63.383,418.708,63.167,418.475,63.118z"/>
			<path style="opacity:0.3;" d="M393.449,24.933c0,0,5.848,5.38,6.667,11.345c0,0-4.912,1.404-8.655,6.199
				c0,0-4.105-1.708-2.124-8.772C391.319,26.641,393.449,24.933,393.449,24.933z"/>
			<path style="opacity:0.3;" d="M384.862,37.095c-0.35,8.167,2.333,7.855,3.384,12.172c1.05,4.317,3.617,24.581,4.084,29.248
				c0.467,4.667,6.651,6.534,12.718,8.517c6.067,1.984,3.967,4.2,8.517,11.318c4.55,7.117,14.001,7.701,18.785,6.534
				c4.784-1.167,7.467-5.484,7.467-5.484c0.7,2.917,6.417,9.101,11.434,6.067c5.017-3.034,11.551-19.018,10.618-22.752
				c0,0-5.169,9.38-12.773,6.148c0,0-0.212,4.67-5.748,4.67s-12.652,0.931-18.169-3.568c-5.517-4.499-11.722-9.618-18.703-9.618
				c-6.981,0,0.002-17.219-6.359-22.339C393.755,52.891,384.862,37.095,384.862,37.095z"/>
			<path style="fill:none;stroke:#000000;stroke-width:0.75;stroke-linecap:round;stroke-linejoin:round;stroke-miterlimit:10;" d="
				M436.666,39.779c0,0,3.384,5.134,6.067,5.834c2.684,0.7,8.867,9.101,8.401,14.351c-0.467,5.25-0.583,5.134,3.85,7.351
				c4.434,2.217,5.951,11.668,6.884,15.402c0.933,3.734-5.601,19.718-10.618,22.752c-5.017,3.034-10.734-3.15-11.434-6.067
				c0,0-2.684,4.317-7.467,5.484c-4.784,1.167-14.235,0.583-18.785-6.534c-4.55-7.117-2.45-9.334-8.517-11.318
				c-6.067-1.983-12.251-3.85-12.718-8.517c-0.467-4.667-3.034-24.931-4.084-29.248c-1.05-4.317-3.734-4.005-3.384-12.172
				c0.35-8.167,6.184-15.518,7.234-17.035s5.717,3.967,12.951,15.751c0,0,9.801-3.15,17.385-0.117
				C422.432,35.695,431.205,32.97,436.666,39.779z"/>
			<path style="fill:#FFE7D2;" d="M447.62,65.479c0,0-9.279-4.733-11.238-10.406c-1.959-5.674-3.718,1.756-3.548,4.458
				c0.17,2.702,4.643,8.714,10.334,8.479S451.504,69.15,447.62,65.479z"/>
			<path d="M440.935,66.298c0,0,7.901-1.802,11.631-0.495c3.729,1.307,5.477,3.37,5.51,4.831c0.033,1.461-4.329,5.935-8.4,7.824
				c-4.071,1.889-5.02-2.411-7.708-5.167C439.28,70.535,438.598,67.639,440.935,66.298z"/>
			<path style="opacity:0.3;" d="M434.813,80.49c0,0,1.606,1.205,1.491,2.065c-0.115,0.86-1.835,0.918-2.122,0
				C433.895,81.637,433.834,79.566,434.813,80.49z"/>
			<path style="opacity:0.3;" d="M432.823,85.308c0,0,1.015,2.122-0.361,2.122c-1.377,0-2.925,0.516-2.409-1.061
				C430.569,84.792,432.209,84.333,432.823,85.308z"/>
			<path style="opacity:0.3;" d="M440.492,82.44c0,0,0.172,2.18,0.975,1.778c0.803-0.401,1.549-0.426,1.032-2.479
				C441.983,79.687,440.275,81.307,440.492,82.44z"/>
			<path style="opacity:0.3;" d="M453.34,83.818c0,0-1.033,0.288-1.434,0c-0.401-0.288-1.174-1.034-0.3-1.665
				C452.48,81.522,454.258,83.417,453.34,83.818z"/>
			<path style="opacity:0.3;" d="M457.126,82.512c0,0,0.688-0.974,0-1.756c-0.688-0.782-0.746-0.094-1.262,0.251
				C455.348,81.35,456.38,83.099,457.126,82.512z"/>
		</g>
	</g>
</g>
</svg>
