<?xml version="1.0" encoding="UTF-8"?>
<!DOCTYPE svg PUBLIC "-//W3C//DTD SVG 1.1//EN" "http://www.w3.org/Graphics/SVG/1.1/DTD/svg11.dtd">
<!-- Creator: CorelDRAW -->
<svg xmlns="http://www.w3.org/2000/svg" xml:space="preserve" width="2048px" height="2048px" style="shape-rendering:geometricPrecision; text-rendering:geometricPrecision; image-rendering:optimizeQuality; fill-rule:evenodd; clip-rule:evenodd"
viewBox="0 0 2048 2048"
 xmlns:xlink="http://www.w3.org/1999/xlink">
 <defs>
  <style type="text/css">
   <![CDATA[
    .fil2 {fill:none}
    .fil5 {fill:#EBE5D3}
    .fil8 {fill:#FEFEFE}
    .fil15 {fill:#212121}
    .fil6 {fill:#282B2C}
    .fil1 {fill:#3949AB}
    .fil16 {fill:#424242}
    .fil0 {fill:#5C6BC0}
    .fil4 {fill:#5D5450}
    .fil9 {fill:#6D4C41}
    .fil10 {fill:#8D6E63}
    .fil3 {fill:#AB988D}
    .fil7 {fill:#C4B4AB}
    .fil12 {fill:white}
    .fil13 {fill:#212121;fill-rule:nonzero}
    .fil14 {fill:#424242;fill-rule:nonzero}
    .fil11 {fill:#4E342E;fill-rule:nonzero}
   ]]>
  </style>
   <clipPath id="id0">
    <path d="M1024 -0.0011811c565.539,0 1024,458.462 1024,1024 0,565.539 -458.462,1024 -1024,1024 -565.539,0 -1024,-458.462 -1024,-1024 0,-565.539 458.462,-1024 1024,-1024z"/>
   </clipPath>
 </defs>
 <g id="Layer_x0020_1">
  <metadata id="CorelCorpID_0Corel-Layer"/>
  <path class="fil0" d="M1024 -0.0011811c565.539,0 1024,458.462 1024,1024 0,565.539 -458.462,1024 -1024,1024 -565.539,0 -1024,-458.462 -1024,-1024 0,-565.539 458.462,-1024 1024,-1024z"/>
  <g style="clip-path:url(#id0)">
   <g id="_300476120">
    <g>
     <polygon id="_2996431681" class="fil1" points="1519.63,1031.53 2655.51,2167.42 2659.86,2172.6 2664.02,2177.99 2667.99,2183.55 2671.77,2189.29 1535.89,1053.41 1532.11,1047.67 1528.14,1042.1 1523.98,1036.72 "/>
     <polygon id="_299643000" class="fil1" points="1535.89,1053.41 2671.77,2189.29 2673.71,2192.41 2675.59,2195.58 2677.42,2198.78 2679.19,2202.03 2680.9,2205.31 2682.56,2208.63 2684.16,2211.99 2685.71,2215.38 2687.2,2218.79 2688.64,2222.23 2690.03,2225.7 2691.36,2229.19 2692.63,2232.71 2693.85,2236.24 2695.02,2239.79 2696.13,2243.35 2697.19,2246.93 2698.2,2250.52 2699.15,2254.11 2700.05,2257.71 2700.9,2261.32 2701.69,2264.93 2702.43,2268.54 2703.12,2272.15 2703.76,2275.76 2704.34,2279.36 2704.88,2282.95 2705.36,2286.53 2705.79,2290.1 2706.17,2293.65 2706.49,2297.19 2706.77,2300.71 1570.89,1164.83 1570.61,1161.31 1570.29,1157.77 1569.91,1154.21 1569.48,1150.65 1569,1147.06 1568.46,1143.47 1567.88,1139.87 1567.24,1136.27 1566.55,1132.66 1565.81,1129.05 1565.02,1125.44 1564.17,1121.83 1563.27,1118.23 1562.32,1114.63 1561.31,1111.04 1560.25,1107.47 1559.14,1103.9 1557.97,1100.36 1556.75,1096.82 1555.48,1093.31 1554.15,1089.82 1552.76,1086.35 1551.32,1082.91 1549.83,1079.49 1548.28,1076.11 1546.68,1072.75 1545.02,1069.43 1543.31,1066.15 1541.54,1062.9 1539.71,1059.69 1537.83,1056.53 "/>
     <polygon id="_299644512" class="fil1" points="885.851,504.665 2021.73,1640.55 2023.9,1646.06 2025.7,1651.69 2027.15,1657.43 2028.28,1663.26 2029.1,1669.15 2029.63,1675.09 2029.89,1681.06 2029.9,1687.04 2029.68,1693.01 2029.25,1698.95 2028.64,1704.83 2027.85,1710.64 2026.91,1716.36 2025.83,1721.97 2024.64,1727.46 2023.37,1732.79 2022.01,1737.95 2020.61,1742.92 2019.16,1747.68 2017.71,1752.21 2016.26,1756.5 2014.83,1760.51 2013.44,1764.24 2012.12,1767.66 2010.88,1770.75 2009.74,1773.49 2008.73,1775.86 2007.85,1777.85 2007.14,1779.43 2006.6,1780.58 2006.27,1781.29 2006.15,1781.53 870.271,645.645 870.387,645.406 870.722,644.699 871.256,643.547 871.971,641.966 872.846,639.98 873.863,637.604 875,634.863 876.239,631.773 877.561,628.355 878.946,624.629 880.374,620.614 881.827,616.33 883.283,611.797 884.725,607.036 886.132,602.065 887.485,596.904 888.764,591.573 889.951,586.092 891.024,580.48 891.966,574.759 892.755,568.946 893.374,563.063 893.801,557.128 894.018,551.161 894.007,545.182 893.746,539.211 893.215,533.269 892.397,527.374 891.271,521.547 889.817,515.806 888.017,510.173 "/>
     <polygon id="_299644776" class="fil1" points="870.271,645.645 2006.15,1781.53 2008.33,1785.23 2010.44,1788.9 2012.48,1792.52 2014.46,1796.1 2016.38,1799.64 2018.23,1803.14 2020.03,1806.6 2021.76,1810.02 2023.44,1813.4 2025.05,1816.74 2026.61,1820.04 2028.11,1823.3 2029.56,1826.52 2030.95,1829.7 2032.28,1832.84 2033.56,1835.94 2034.79,1839 2035.97,1842.02 2037.1,1845.01 2038.17,1847.95 2039.2,1850.86 2040.17,1853.73 2041.1,1856.56 2041.98,1859.35 2042.82,1862.11 2043.61,1864.82 2044.35,1867.5 2045.06,1870.14 2045.71,1872.75 2046.33,1875.32 2046.91,1877.85 2047.44,1880.34 911.56,744.456 911.025,741.963 910.45,739.433 909.833,736.866 909.176,734.262 908.473,731.62 907.727,728.942 906.937,726.224 906.102,723.469 905.22,720.677 904.292,717.846 903.315,714.979 902.29,712.071 901.215,709.125 900.089,706.141 898.912,703.118 897.683,700.055 896.402,696.955 895.066,693.814 893.677,690.635 892.231,687.415 890.73,684.156 889.171,680.858 887.555,677.519 885.881,674.139 884.147,670.72 882.351,667.261 880.496,663.76 878.578,660.219 876.597,656.638 874.554,653.014 872.444,649.35 "/>
     <polygon id="_299644656" class="fil1" points="911.56,744.456 2047.44,1880.34 2047.81,1882.14 2048.16,1883.91 2048.48,1885.67 2048.79,1887.41 2049.07,1889.13 2049.34,1890.82 2049.59,1892.51 2049.81,1894.17 2050.02,1895.81 2050.21,1897.43 2050.39,1899.03 2050.54,1900.62 2050.68,1902.19 2050.8,1903.73 2050.9,1905.26 2050.99,1906.77 915.109,770.888 915.022,769.379 914.918,767.851 914.798,766.303 914.661,764.737 914.506,763.152 914.332,761.548 914.142,759.925 913.933,758.284 913.705,756.623 913.458,754.942 913.192,753.243 912.907,751.524 912.601,749.787 912.275,748.029 911.927,746.253 "/>
     <polygon id="_299644584" class="fil1" points="876.595,480.727 2012.48,1616.61 2014.22,1618.64 2015.8,1620.94 2017.22,1623.51 2018.46,1626.36 2019.54,1629.48 2020.44,1632.89 2021.17,1636.58 2021.73,1640.55 885.851,504.665 885.292,500.693 884.56,497.006 883.655,493.601 882.581,490.476 881.335,487.627 879.921,485.054 878.34,482.756 "/>
     <polygon id="_299644632" class="fil1" points="1388.1,1094.1 2523.99,2229.98 2526.98,2234.95 2529.9,2240 2532.76,2245.14 2535.56,2250.37 2538.29,2255.68 2540.96,2261.07 2543.56,2266.54 2546.09,2272.1 2548.56,2277.73 2550.95,2283.43 2553.29,2289.21 2555.55,2295.06 2557.75,2300.98 2559.87,2306.96 2561.93,2313.02 2563.92,2319.14 2565.84,2325.31 2567.69,2331.56 2569.47,2337.86 2571.18,2344.21 2572.82,2350.62 2574.39,2357.09 2575.89,2363.6 2577.31,2370.17 2578.67,2376.78 2579.95,2383.45 2581.15,2390.15 2582.29,2396.9 2583.35,2403.68 2584.34,2410.51 2585.26,2417.37 2586.1,2424.27 1450.21,1288.39 1449.37,1281.49 1448.46,1274.63 1447.47,1267.8 1446.41,1261.01 1445.27,1254.27 1444.07,1247.56 1442.78,1240.9 1441.43,1234.29 1440.01,1227.72 1438.51,1221.21 1436.94,1214.74 1435.3,1208.33 1433.59,1201.97 1431.81,1195.67 1429.96,1189.43 1428.04,1183.25 1426.05,1177.13 1423.99,1171.08 1421.86,1165.09 1419.67,1159.18 1417.4,1153.33 1415.07,1147.55 1412.67,1141.84 1410.21,1136.21 1407.68,1130.66 1405.08,1125.19 1402.41,1119.79 1399.68,1114.48 1396.88,1109.26 1394.02,1104.12 1391.1,1099.07 "/>
     <polygon id="_299644704" class="fil1" points="893.495,850.866 2029.38,1986.75 2035.84,1994.68 2041.78,2002.56 2047.2,2010.37 2052.15,2018.1 2056.62,2025.74 2060.66,2033.27 2064.27,2040.69 2067.48,2047.97 2070.31,2055.11 2072.78,2062.09 2074.91,2068.89 2076.73,2075.52 2078.25,2081.95 2079.5,2088.16 2080.5,2094.16 2081.26,2099.92 2081.81,2105.43 2082.18,2110.68 2082.37,2115.65 2082.42,2120.34 2082.34,2124.73 2082.16,2128.8 2081.9,2132.55 2081.57,2135.96 2081.2,2139.01 2080.81,2141.7 2080.43,2144.01 2080.07,2145.93 2079.75,2147.45 2079.49,2148.55 2079.32,2149.22 2079.26,2149.44 943.381,1013.56 943.442,1013.33 943.611,1012.66 943.865,1011.57 944.185,1010.05 944.547,1008.13 944.933,1005.82 945.321,1003.13 945.689,1000.07 946.015,996.666 946.281,992.918 946.462,988.844 946.539,984.458 946.49,979.771 946.294,974.796 945.93,969.546 945.377,964.035 944.615,958.276 943.619,952.281 942.372,946.064 940.849,939.636 939.031,933.011 936.898,926.203 934.426,919.224 931.596,912.087 928.386,904.805 924.776,897.392 920.742,889.86 916.264,882.22 911.322,874.489 905.894,866.677 899.959,858.799 "/>
     <polygon id="_299644128" class="fil1" points="907.179,1055.97 2043.06,2191.85 2009.9,2175.78 874.022,1039.9 "/>
     <polygon id="_299644728" class="fil1" points="874.022,1039.9 2009.9,2175.78 1994.14,2219.95 858.257,1084.07 "/>
     <polygon id="_299644800" class="fil1" points="1000.01,1208.26 2135.89,2344.15 2134.92,2350.18 999.043,1214.3 "/>
     <polygon id="_299644200" class="fil1" points="825.557,1077.77 1961.44,2213.65 1935.73,2264.09 799.847,1128.2 "/>
     <polygon id="_299644320" class="fil1" points="509.546,1015.11 1645.43,2150.99 1642.27,2152.35 1639.3,2154.03 1636.5,2155.98 1633.88,2158.14 1631.45,2160.45 1629.21,2162.86 1627.17,2165.31 1625.32,2167.73 1623.68,2170.09 1622.24,2172.31 1621.02,2174.35 1620,2176.15 1619.21,2177.64 1618.64,2178.78 1618.29,2179.5 1618.17,2179.76 482.293,1043.87 482.41,1043.62 482.756,1042.89 483.329,1041.76 484.122,1040.26 485.136,1038.47 486.362,1036.43 487.799,1034.21 489.442,1031.85 491.288,1029.42 493.333,1026.98 495.571,1024.57 498,1022.26 500.617,1020.1 503.416,1018.15 506.393,1016.47 "/>
     <polygon id="_299644944" class="fil1" points="560.756,1092.66 1696.64,2228.54 1675.53,2254.83 539.645,1118.95 "/>
     <polygon id="_299644968" class="fil1" points="625.2,1109.31 1761.08,2245.19 1722.96,2298.82 587.077,1162.93 "/>
     <polygon id="_299645304" class="fil1" points="943.381,1013.56 2079.26,2149.44 2060.34,2149.44 924.464,1013.56 "/>
     <polygon id="_299645376" class="fil1" points="924.464,1013.56 2060.34,2149.44 2047.23,2185.35 911.344,1049.46 "/>
     <polygon id="_299645616" class="fil1" points="999.043,1214.3 2134.92,2350.18 2133.81,2357.68 997.932,1221.8 "/>
     <polygon id="_299645208" class="fil1" points="858.257,1084.07 1994.14,2219.95 1961.44,2213.65 825.557,1077.77 "/>
     <polygon id="_299645184" class="fil1" points="997.932,1221.8 2133.81,2357.68 2133.5,2359.78 2133.2,2361.78 2132.91,2363.7 2132.61,2365.53 2132.31,2367.28 2132.01,2368.96 2131.69,2370.56 2131.35,2372.11 2130.98,2373.59 2130.59,2375.02 2130.17,2376.4 2129.71,2377.74 2129.21,2379.04 2128.67,2380.31 2128.07,2381.55 2127.41,2382.77 2126.7,2383.97 2125.92,2385.16 2125.07,2386.35 2124.14,2387.53 2123.14,2388.71 2122.05,2389.91 2120.87,2391.12 2119.6,2392.34 2118.23,2393.6 2116.75,2394.88 2115.17,2396.2 2113.48,2397.55 2111.67,2398.95 2109.74,2400.41 2107.68,2401.91 2105.49,2403.48 969.604,1267.6 971.795,1266.03 973.854,1264.52 975.787,1263.07 977.598,1261.67 979.292,1260.31 980.872,1259 982.345,1257.71 983.715,1256.46 984.987,1255.24 986.166,1254.03 987.255,1252.83 988.26,1251.65 989.185,1250.46 990.035,1249.28 990.816,1248.09 991.531,1246.89 992.186,1245.67 992.785,1244.43 993.331,1243.16 993.832,1241.86 994.292,1240.52 994.713,1239.14 995.103,1237.71 995.465,1236.22 995.805,1234.68 996.125,1233.07 996.432,1231.4 996.731,1229.65 997.026,1227.82 997.321,1225.9 997.621,1223.9 "/>
     <polygon id="_299644920" class="fil1" points="535.927,877.988 1671.81,2013.87 1666.97,2011.32 1662.45,2008.56 1658.25,2005.6 1654.35,2002.44 1650.75,1999.1 514.87,863.214 518.469,866.557 522.365,869.715 526.568,872.678 531.085,875.438 "/>
     <polygon id="_299645520" class="fil1" points="1024.41,1107.78 2160.3,2243.67 2159.22,2245.68 2158.17,2247.79 2157.16,2249.99 2156.18,2252.27 2155.22,2254.65 2154.29,2257.11 2153.39,2259.65 2152.51,2262.27 2151.66,2264.98 2150.83,2267.76 2150.02,2270.61 2149.23,2273.54 2148.46,2276.54 2147.71,2279.6 2146.98,2282.73 2146.26,2285.93 2145.55,2289.19 2144.86,2292.51 2144.18,2295.89 2143.51,2299.32 2142.85,2302.81 2142.2,2306.35 2141.56,2309.94 2140.92,2313.58 2140.29,2317.26 2139.66,2320.99 2139.03,2324.76 2138.41,2328.56 2137.78,2332.41 2137.15,2336.29 2136.52,2340.2 2135.89,2344.15 1000.01,1208.26 1000.64,1204.32 1001.27,1200.41 1001.9,1196.53 1002.52,1192.68 1003.15,1188.87 1003.78,1185.1 1004.41,1181.38 1005.04,1177.7 1005.68,1174.06 1006.32,1170.47 1006.97,1166.93 1007.63,1163.44 1008.3,1160.01 1008.98,1156.63 1009.67,1153.31 1010.38,1150.05 1011.1,1146.85 1011.83,1143.72 1012.58,1140.65 1013.35,1137.66 1014.14,1134.73 1014.95,1131.87 1015.78,1129.09 1016.63,1126.39 1017.51,1123.77 1018.41,1121.22 1019.34,1118.76 1020.29,1116.39 1021.28,1114.1 1022.29,1111.9 1023.34,1109.8 "/>
     <polygon id="_299645424" class="fil1" points="564.7,469.913 1700.58,1605.79 1702.02,1607.28 1703.48,1608.94 1704.97,1610.79 1706.48,1612.82 1708.02,1615.05 572.136,479.164 570.597,476.94 569.084,474.906 567.598,473.06 566.136,471.397 "/>
     <polygon id="_299645592" class="fil1" points="651.284,1134.52 1787.17,2270.4 1782.25,2286.17 646.365,1150.28 "/>
     <polygon id="_299646240" class="fil1" points="719.535,1121.9 1855.42,2257.78 1820.73,2339.7 684.852,1203.82 "/>
     <polygon id="_299645712" class="fil1" points="763.477,1115.59 1899.36,2251.48 1880.64,2292.46 744.756,1156.58 "/>
     <polygon id="_299646048" class="fil1" points="532.81,877.985 1668.69,2013.87 1668.72,2013.9 1668.8,2013.99 1668.93,2014.13 1669.11,2014.34 1669.35,2014.6 1669.63,2014.91 1669.96,2015.28 1670.35,2015.7 534.466,879.816 534.083,879.396 533.75,879.029 533.465,878.715 533.232,878.455 533.048,878.252 532.916,878.104 532.837,878.014 "/>
     <polygon id="_299646120" class="fil1" points="1104.08,1550.21 2239.96,2686.09 2238.66,2685.29 2237.36,2684.49 2236.06,2683.67 2234.77,2682.85 2233.48,2682.01 2232.2,2681.17 2230.92,2680.31 2229.65,2679.45 1093.77,1543.57 1095.04,1544.43 1096.32,1545.28 1097.6,1546.13 1098.89,1546.96 1100.18,1547.79 1101.47,1548.6 1102.78,1549.41 "/>
     <polygon id="_299645856" class="fil1" points="1093.77,1543.57 2229.65,2679.45 2228.46,2678.64 2227.28,2677.82 2226.1,2676.98 2224.93,2676.14 2223.76,2675.3 2222.6,2674.44 2221.44,2673.58 2220.29,2672.71 2219.14,2671.83 2218,2670.94 2216.86,2670.05 2215.72,2669.15 2214.59,2668.24 2213.47,2667.32 2212.35,2666.39 2211.24,2665.46 1075.35,1529.57 1076.47,1530.51 1077.59,1531.44 1078.71,1532.35 1079.84,1533.26 1080.97,1534.17 1082.11,1535.06 1083.26,1535.95 1084.41,1536.83 1085.56,1537.7 1086.72,1538.56 1087.88,1539.42 1089.05,1540.26 1090.22,1541.1 1091.4,1541.93 1092.58,1542.75 "/>
     <polygon id="_299645736" class="fil1" points="1075.35,1529.57 2211.24,2665.46 2205.89,2660.79 1070.01,1524.91 "/>
     <polygon id="_299645952" class="fil1" points="799.847,1128.2 1935.73,2264.09 1899.36,2251.48 763.477,1115.59 "/>
     <polygon id="_299646528" class="fil1" points="969.604,1267.6 2105.49,2403.48 2102.36,2405.62 2099.28,2407.59 2096.24,2409.38 2093.25,2410.99 2090.3,2412.44 2087.4,2413.71 2084.54,2414.82 2081.72,2415.77 2078.95,2416.55 2076.23,2417.18 2073.55,2417.65 2070.92,2417.97 2068.34,2418.13 2065.8,2418.15 2063.3,2418.02 2060.86,2417.75 2058.46,2417.33 2056.11,2416.78 2053.81,2416.08 2051.56,2415.26 2049.35,2414.3 2047.19,2413.21 2045.09,2412 2043.03,2410.66 2041.02,2409.2 2039.06,2407.61 2037.14,2405.91 901.263,1270.03 903.174,1271.73 905.135,1273.31 907.145,1274.77 909.204,1276.11 911.312,1277.33 913.47,1278.42 915.675,1279.38 917.93,1280.2 920.232,1280.89 922.581,1281.45 924.979,1281.86 927.424,1282.14 929.916,1282.27 932.454,1282.25 935.039,1282.09 937.671,1281.77 940.348,1281.3 943.071,1280.67 945.84,1279.89 948.655,1278.94 951.515,1277.83 954.419,1276.55 957.367,1275.11 960.361,1273.49 963.398,1271.71 966.479,1269.74 "/>
     <polygon id="_299647128" class="fil1" points="1344.43,1551.36 2480.32,2687.24 2476.9,2689.28 2473.46,2691.25 2469.98,2693.16 2466.48,2695 2462.94,2696.78 2459.38,2698.49 2455.79,2700.13 2452.18,2701.71 2448.54,2703.22 2444.88,2704.67 2441.19,2706.04 2437.48,2707.36 2433.75,2708.61 2430.01,2709.79 2426.24,2710.91 2422.46,2711.96 2418.66,2712.94 2414.84,2713.86 2411.01,2714.72 2407.16,2715.51 2403.31,2716.23 2399.44,2716.89 2395.56,2717.48 2391.67,2718.01 2387.77,2718.47 2383.87,2718.86 2379.96,2719.2 2376.04,2719.46 2372.12,2719.66 2368.2,2719.8 2364.27,2719.87 2360.34,2719.88 1224.46,1584 1228.39,1583.99 1232.31,1583.92 1236.24,1583.78 1240.16,1583.58 1244.08,1583.31 1247.99,1582.98 1251.89,1582.59 1255.79,1582.12 1259.68,1581.6 1263.56,1581 1267.43,1580.35 1271.28,1579.62 1275.13,1578.83 1278.96,1577.98 1282.78,1577.06 1286.58,1576.07 1290.36,1575.02 1294.13,1573.91 1297.87,1572.73 1301.6,1571.48 1305.31,1570.16 1308.99,1568.78 1312.66,1567.34 1316.3,1565.83 1319.91,1564.25 1323.5,1562.61 1327.06,1560.9 1330.6,1559.12 1334.1,1557.28 1337.58,1555.37 1341.02,1553.4 "/>
     <polygon id="_299646768" class="fil1" points="1224.46,1584 2360.34,2719.88 2356.42,2719.82 2352.49,2719.7 2348.57,2719.51 2344.65,2719.25 2340.74,2718.94 2336.82,2718.55 2332.92,2718.11 2329.02,2717.6 2325.12,2717.02 2321.24,2716.38 2317.36,2715.68 2313.5,2714.91 2309.65,2714.08 2305.81,2713.18 2301.98,2712.22 2298.17,2711.19 2294.37,2710.1 2290.59,2708.95 2286.83,2707.73 2283.08,2706.45 2279.36,2705.1 2275.65,2703.69 2271.97,2702.22 2268.31,2700.68 2264.67,2699.08 2261.06,2697.42 2257.47,2695.69 2253.91,2693.9 2250.38,2692.04 2246.88,2690.12 2243.41,2688.14 2239.96,2686.09 1104.08,1550.21 1107.53,1552.26 1111,1554.24 1114.5,1556.16 1118.03,1558.01 1121.59,1559.81 1125.18,1561.53 1128.79,1563.2 1132.43,1564.8 1136.09,1566.34 1139.77,1567.81 1143.48,1569.22 1147.2,1570.57 1150.94,1571.85 1154.71,1573.07 1158.49,1574.22 1162.28,1575.31 1166.1,1576.33 1169.93,1577.3 1173.77,1578.19 1177.62,1579.03 1181.48,1579.8 1185.36,1580.5 1189.24,1581.14 1193.14,1581.71 1197.04,1582.23 1200.94,1582.67 1204.85,1583.05 1208.77,1583.37 1212.69,1583.62 1216.61,1583.81 1220.54,1583.94 "/>
     <polygon id="_299647008" class="fil1" points="584.046,489.492 1719.93,1625.37 1723.76,1629.3 1727.52,1633.42 1731.2,1637.72 1734.8,1642.17 1738.31,1646.74 1741.72,1651.42 1745.04,1656.17 1748.26,1660.97 1751.38,1665.81 1754.38,1670.64 1757.27,1675.46 1760.04,1680.22 1762.69,1684.92 1765.21,1689.53 1767.6,1694.01 1769.86,1698.35 1771.97,1702.52 1773.94,1706.5 1775.76,1710.27 1777.43,1713.79 1778.94,1717.04 1780.29,1720 1781.48,1722.65 1782.49,1724.96 1783.33,1726.9 1783.99,1728.45 1784.47,1729.59 1784.76,1730.3 1784.85,1730.54 648.974,594.654 648.877,594.414 648.588,593.712 648.11,592.571 647.45,591.018 646.61,589.075 645.597,586.769 644.412,584.121 643.062,581.158 641.55,577.904 639.882,574.384 638.06,570.622 636.089,566.643 633.975,562.47 631.72,558.129 629.33,553.645 626.808,549.041 624.159,544.342 621.388,539.574 618.498,534.759 615.494,529.923 612.381,525.09 609.162,520.287 605.842,515.534 602.426,510.858 598.917,506.285 595.321,501.835 591.641,497.539 587.881,493.415 "/>
     <polygon id="_299646552" class="fil1" points="915.109,770.888 2050.99,1906.77 2051.04,1907.76 2051.08,1908.73 2051.12,1909.7 2051.15,1910.66 2051.17,1911.61 2051.19,1912.56 2051.2,1913.5 2051.2,1914.42 2051.2,1915.35 2051.19,1916.26 2051.17,1917.16 2051.15,1918.06 2051.12,1918.95 2051.09,1919.83 2051.05,1920.7 2051.01,1921.57 915.125,785.685 915.17,784.82 915.21,783.947 915.243,783.066 915.271,782.177 915.292,781.281 915.308,780.376 915.317,779.463 915.321,778.542 915.317,777.614 915.308,776.677 915.291,775.732 915.269,774.78 915.239,773.819 915.203,772.85 915.159,771.873 "/>
     <polygon id="_299646432" class="fil1" points="1414.62,1100.04 2550.5,2235.92 2548.88,2234.39 2547.16,2233.03 2545.34,2231.85 2543.43,2230.85 2541.41,2230.04 2539.28,2229.42 2537.03,2228.99 2534.67,2228.77 2532.19,2228.75 2529.59,2228.95 2526.85,2229.35 2523.99,2229.98 1388.1,1094.1 1390.97,1093.47 1393.71,1093.06 1396.31,1092.87 1398.79,1092.89 1401.15,1093.11 1403.4,1093.54 1405.53,1094.16 1407.55,1094.97 1409.46,1095.97 1411.28,1097.15 1413,1098.51 "/>
     <polygon id="_299647056" class="fil1" points="1570.89,1164.83 2706.77,2300.71 2707,2304.31 2707.17,2307.89 2707.3,2311.44 2707.36,2314.98 2707.38,2318.49 2707.34,2321.97 2707.24,2325.42 2707.1,2328.84 2706.89,2332.22 2706.64,2335.57 2706.34,2338.88 2705.98,2342.15 2705.57,2345.38 2705.11,2348.57 2704.59,2351.7 2704.03,2354.79 2703.41,2357.83 2702.74,2360.81 2702.02,2363.74 2701.25,2366.6 2700.43,2369.41 2699.55,2372.16 2698.63,2374.84 2697.66,2377.46 2696.63,2380.01 2695.56,2382.48 2694.44,2384.89 2693.27,2387.22 2692.04,2389.47 2690.77,2391.64 2689.45,2393.73 2688.08,2395.74 1552.2,1259.86 1553.57,1257.85 1554.89,1255.76 1556.16,1253.59 1557.38,1251.34 1558.56,1249.01 1559.68,1246.6 1560.75,1244.13 1561.78,1241.58 1562.75,1238.96 1563.67,1236.28 1564.54,1233.53 1565.37,1230.72 1566.14,1227.85 1566.86,1224.93 1567.53,1221.94 1568.14,1218.91 1568.71,1215.82 1569.23,1212.68 1569.69,1209.5 1570.1,1206.27 1570.46,1203 1570.76,1199.69 1571.01,1196.34 1571.21,1192.96 1571.36,1189.54 1571.45,1186.08 1571.49,1182.6 1571.48,1179.09 1571.41,1175.56 1571.29,1172 1571.12,1168.43 "/>
     <polygon id="_299646480" class="fil1" points="1475.06,1267.6 2610.94,2403.48 2608.75,2401.91 2606.69,2400.41 2604.76,2398.95 2602.95,2397.55 2601.26,2396.2 2599.68,2394.88 2598.2,2393.6 2596.83,2392.34 2595.56,2391.12 2594.38,2389.91 1458.5,1254.03 1459.68,1255.24 1460.95,1256.46 1462.32,1257.71 1463.79,1259 1465.37,1260.31 1467.07,1261.67 1468.88,1263.07 1470.81,1264.52 1472.87,1266.03 "/>
     <polygon id="_299646672" class="fil1" points="1552.2,1259.86 2688.08,2395.74 2686.43,2397.99 2684.72,2400.14 2682.96,2402.17 2681.15,2404.1 2679.28,2405.91 2677.37,2407.61 2675.41,2409.2 2673.4,2410.66 2671.34,2412 2669.24,2413.21 2667.08,2414.3 2664.87,2415.26 2662.62,2416.08 2660.32,2416.78 2657.97,2417.33 2655.57,2417.75 2653.13,2418.02 2650.63,2418.15 2648.09,2418.13 2645.51,2417.97 2642.88,2417.65 2640.2,2417.18 2637.48,2416.55 2634.71,2415.77 2631.89,2414.82 2629.03,2413.71 2626.13,2412.44 2623.18,2410.99 2620.19,2409.38 2617.15,2407.59 2614.07,2405.62 2610.94,2403.48 1475.06,1267.6 1478.19,1269.74 1481.27,1271.71 1484.31,1273.49 1487.3,1275.11 1490.25,1276.55 1493.15,1277.83 1496.01,1278.94 1498.83,1279.89 1501.6,1280.67 1504.32,1281.3 1507,1281.77 1509.63,1282.09 1512.21,1282.25 1514.75,1282.27 1517.24,1282.14 1519.69,1281.86 1522.09,1281.45 1524.44,1280.89 1526.74,1280.2 1528.99,1279.38 1531.2,1278.42 1533.35,1277.33 1535.46,1276.11 1537.52,1274.77 1539.53,1273.31 1541.49,1271.73 1543.4,1270.03 1545.26,1268.22 1547.08,1266.29 1548.84,1264.25 1550.54,1262.11 "/>
     <polygon id="_299647248" class="fil1" points="915.125,785.685 2051.01,1921.57 2050.9,1923.3 2050.78,1924.99 2050.63,1926.66 2050.46,1928.29 2050.28,1929.89 2050.08,1931.46 2049.85,1932.99 2049.61,1934.5 2049.36,1935.98 2049.09,1937.42 2048.8,1938.83 2048.5,1940.21 2048.18,1941.57 2047.86,1942.89 2047.52,1944.18 2047.17,1945.44 911.288,809.558 911.638,808.297 911.976,807.007 912.303,805.685 912.616,804.333 912.917,802.951 913.204,801.537 913.476,800.094 913.731,798.618 913.971,797.111 914.194,795.575 914.398,794.005 914.584,792.405 914.75,790.773 914.897,789.109 915.022,787.413 "/>
     <polygon id="_299647800" class="fil1" points="911.288,809.558 2047.17,1945.44 2046.77,1946.8 2046.37,1948.12 2045.95,1949.41 2045.52,1950.66 2045.09,1951.87 2044.64,1953.05 2044.19,1954.19 2043.74,1955.3 2043.28,1956.37 2042.82,1957.41 2042.36,1958.41 2041.89,1959.38 2041.43,1960.31 2040.96,1961.21 2040.5,1962.08 2040.05,1962.91 904.164,827.024 904.622,826.194 905.083,825.329 905.547,824.43 906.011,823.497 906.476,822.53 906.94,821.528 907.4,820.491 907.859,819.419 908.313,818.312 908.762,817.169 909.205,815.99 909.64,814.776 910.067,813.526 910.485,812.24 910.893,810.917 "/>
     <polygon id="_299647392" class="fil1" points="904.164,827.024 2040.05,1962.91 2038.6,1965.37 2037.23,1967.48 2035.97,1969.25 2034.86,1970.68 2033.94,1971.78 2033.24,1972.56 2032.79,1973.03 2032.64,1973.18 896.754,837.299 896.911,837.146 897.357,836.682 898.06,835.901 898.981,834.797 900.088,833.363 901.345,831.595 902.715,829.483 "/>
     <polygon id="_299647728" class="fil1" points="896.754,837.299 2032.64,1973.18 2032.61,1973.23 2032.55,1973.38 2032.45,1973.64 2032.32,1973.99 2032.16,1974.45 2031.97,1975.02 2031.76,1975.69 2031.53,1976.47 2031.28,1977.37 2031.02,1978.37 2030.75,1979.48 2030.47,1980.7 2030.2,1982.04 2029.92,1983.49 2029.64,1985.06 2029.38,1986.75 893.495,850.866 893.762,849.179 894.036,847.61 894.315,846.158 894.594,844.82 894.87,843.595 895.14,842.483 895.4,841.483 895.648,840.592 895.88,839.812 896.091,839.138 896.279,838.572 896.441,838.111 896.573,837.754 896.671,837.5 896.733,837.349 "/>
     <polygon id="_299647872" class="fil1" points="1056.86,1094.18 2192.74,2230.06 2189.84,2229.4 2187.08,2228.97 2184.45,2228.76 2181.94,2228.76 2179.56,2228.97 2177.29,2229.38 2175.14,2230 2173.1,2230.8 2171.17,2231.8 2169.34,2232.98 2167.61,2234.34 2165.97,2235.88 2164.42,2237.58 2162.97,2239.45 2161.59,2241.48 2160.3,2243.67 1024.41,1107.78 1025.71,1105.6 1027.09,1103.57 1028.54,1101.7 1030.09,1099.99 1031.72,1098.46 1033.46,1097.1 1035.29,1095.92 1037.22,1094.92 1039.26,1094.12 1041.41,1093.5 1043.67,1093.09 1046.06,1092.88 1048.57,1092.88 1051.2,1093.09 1053.96,1093.52 "/>
     <polygon id="_299647416" class="fil1" points="1450.21,1288.39 2586.1,2424.27 2587.19,2434.76 2588,2445.05 2588.55,2455.15 2588.84,2465.07 2588.87,2474.78 2588.65,2484.31 2588.17,2493.65 2587.46,2502.79 2586.5,2511.75 2585.32,2520.51 2583.9,2529.08 2582.26,2537.47 2580.4,2545.66 2578.33,2553.66 2576.05,2561.47 2573.56,2569.1 2570.88,2576.53 2568,2583.77 2564.93,2590.83 2561.68,2597.69 2558.25,2604.37 2554.64,2610.86 2550.86,2617.15 2546.92,2623.27 2542.82,2629.19 2538.56,2634.92 2534.15,2640.47 2529.6,2645.83 2524.91,2651 2520.08,2655.98 2515.12,2660.78 2510.03,2665.39 1374.15,1529.5 1379.24,1524.89 1384.2,1520.1 1389.02,1515.11 1393.72,1509.94 1398.27,1504.59 1402.68,1499.04 1406.94,1493.31 1411.04,1487.38 1414.98,1481.27 1418.76,1474.97 1422.36,1468.49 1425.8,1461.81 1429.05,1454.94 1432.12,1447.89 1435,1440.65 1437.68,1433.21 1440.17,1425.59 1442.45,1417.78 1444.52,1409.78 1446.38,1401.58 1448.02,1393.2 1449.44,1384.63 1450.62,1375.86 1451.58,1366.91 1452.29,1357.76 1452.76,1348.43 1452.99,1338.9 1452.96,1329.18 1452.67,1319.27 1452.12,1309.17 1451.3,1298.88 "/>
     <polygon id="_299647584" class="fil1" points="1374.15,1529.5 2510.03,2665.39 2508.93,2666.34 2507.83,2667.29 2506.72,2668.24 2505.61,2669.17 2504.49,2670.09 2503.36,2671.01 2502.23,2671.92 2501.09,2672.82 2499.95,2673.71 2498.81,2674.59 2497.66,2675.46 2496.5,2676.33 2495.34,2677.18 2494.17,2678.03 2493,2678.87 2491.83,2679.7 1355.95,1543.82 1357.12,1542.99 1358.29,1542.15 1359.46,1541.3 1360.62,1540.44 1361.78,1539.58 1362.93,1538.7 1364.07,1537.82 1365.21,1536.93 1366.35,1536.03 1367.48,1535.13 1368.61,1534.21 1369.73,1533.29 1370.84,1532.35 1371.95,1531.41 1373.05,1530.46 "/>
     <polygon id="_299647224" class="fil1" points="1355.95,1543.82 2491.83,2679.7 2490.41,2680.68 2488.99,2681.66 2487.56,2682.62 2486.12,2683.57 2484.68,2684.5 2483.23,2685.43 2481.78,2686.34 2480.32,2687.24 1344.43,1551.36 1345.9,1550.46 1347.35,1549.54 1348.8,1548.62 1350.24,1547.68 1351.68,1546.74 1353.11,1545.77 1354.53,1544.8 "/>
    </g>
    <path id="_300476216" class="fil1" d="M1317.48 1017.69c107.836,-61.5142 179.039,-26.3374 218.41,35.7213 20.9646,33.0449 32.3244,73.9749 34.9937,111.421 2.74134,38.4591 -3.82559,74.0764 -18.6851,95.028 -17.4154,24.5587 -43.5756,31.5461 -77.1402,7.74331 -24.0851,-17.0776 -24.9425,-22.8815 -28.3264,-45.8008l-1.11142 -7.49764 -0.968505 -6.0378c-6.76654,-42.2339 -12.7394,-79.5095 -24.404,-100.48 -6.66378,-11.9811 -16.5,-17.6327 -32.1473,-13.6819 32.2441,52.4504 53.5465,120.522 62.1095,194.289 13.1032,112.872 -21.1666,192.949 -76.0631,241.112 -5.84174,5.13662 -11.9221,9.90591 -18.2043,14.3138 -3.76772,2.64331 -7.60749,5.1567 -11.5122,7.54016 -36.2303,22.1162 -78.0686,32.9185 -119.975,32.6386 -41.8512,-0.281103 -83.8205,-11.6197 -120.377,-33.7855 -3.48898,-2.11536 -6.92953,-4.32874 -10.3146,-6.64016 -6.33898,-4.32402 -12.4866,-8.99056 -18.4134,-13.9949 -57.7063,-48.7311 -94.4044,-129.608 -80.8926,-241.242 8.91733,-73.6772 30.2398,-141.71 62.3977,-194.156 -15.8197,-4.09961 -25.7386,1.54843 -32.4449,13.6063 -11.6634,20.9705 -17.6362,58.2461 -24.404,100.48l-0.967324 6.0378 -1.11142 7.49764c-3.38386,22.9193 -4.24252,28.7233 -28.3276,45.8008 -33.5646,23.8028 -59.7237,16.8154 -77.1402,-7.74331 -14.8583,-20.9516 -21.4264,-56.5689 -18.6851,-95.028 2.60079,-36.4855 13.4528,-76.278 33.4004,-108.861l-33.1571 -16.0677 -15.7654 44.1685 -32.7 -6.30355 -25.7103 50.4378 -36.3697 -12.6083 -18.7205 40.9866 -25.2213 -34.6831 -34.6831 81.9201 -33.5681 -69.2989 -4.9193 15.7654 -21.1642 -40.9725 -38.1237 53.6221 -26.3209 -70.2733 -21.111 26.2902c-18.9295,-34.6878 -30.0981,-103.846 -30.0992,-103.846 -17.2725,6.30473 -27.2516,28.7646 -27.2528,28.7681 -27.2457,-78.7867 50.517,-165.888 50.517,-165.888 0,0 0.571654,0.644882 1.65591,1.83071 0.938977,-1.2189 1.46102,-1.82717 1.46102,-1.82717 -53.387,-26.0351 -50.2311,-89.6635 -35.8158,-143.075 1.6748,-6.24095 3.51142,-12.3402 5.43426,-18.2221 12.274,-37.6772 27.887,-66.5162 27.887,-66.5162 -27.7394,-78.5729 0,-166.252 0,-166.252 10.1882,-21.1063 22.1445,-29.5099 38.7036,-4.75867 43.3406,32.3528 76.8379,115.489 76.8379,115.489 6.8752,-1.22953 14.1662,-1.96417 21.5988,-2.32087 3.51378,-0.173622 7.06064,-0.259843 10.6099,-0.272835 2.63032,-0.0129921 5.26182,0.0153543 7.88268,0.0791339 7.51772,0.175984 14.9516,0.633071 22.0264,1.25079 3.60945,0.311811 7.1256,0.667323 10.5106,1.04882 7.99843,0.89882 15.2728,1.93937 21.3319,2.90906 11.0917,1.7752 18.1228,3.31299 18.1217,3.31299 16.4847,-74.1686 82.0465,-84.5198 95.778,-126.682 16.5177,-0.97441 26.5051,8.74016 29.0173,30.6862 25.1303,57.9957 -15.5799,140.98 -15.5799,140.98 23.5382,39.7441 35.7981,72.4134 41.289,98.8111 2.01851,9.6319 3.12638,18.4299 3.54922,26.4319 0.285827,5.27481 0.271654,10.2036 0.0153543,14.7969 -0.491339,9.30119 -1.94528,17.2288 -3.83622,23.8725 -2.07992,7.34764 -4.69134,13.1268 -7.12441,17.4662 -3.93898,7.02756 -7.41024,10.2756 -7.41024,10.2756 0,0 -1.86142,4.25906 -3.25866,13.5662 71.8382,84.8611 49.8863,162.695 49.8863,162.695l-18.9177 0 -13.1197 35.9044c39.8729,-59.5902 110.345,-91.9938 215.922,-31.728 27.9591,-18.8315 59.7638,-29.3918 95.0717,-29.3918 35.2831,0 67.1292,10.5402 95.1461,29.3421z"/>
   </g>
  </g>
  <path class="fil2" d="M1024 -0.0011811c565.539,0 1024,458.462 1024,1024 0,565.539 -458.462,1024 -1024,1024 -565.539,0 -1024,-458.462 -1024,-1024 0,-565.539 458.462,-1024 1024,-1024z"/>
  <path class="fil3" d="M648.974 594.654c0,0 -33.4973,-83.1367 -76.8379,-115.489 -16.5591,-24.7512 -28.5154,-16.3477 -38.7036,4.75867 0,0 -27.7394,87.6792 0,166.252 0,0 -97.056,179.267 2.49449,227.814 0,-0.00236221 -38.3776,44.7626 -48.5067,134.516l431.911 0 -14.6693 -55.2933c-22.7811,-85.8768 -7.90749,-119.912 -7.90749,-119.912 0.00236221,-0.00236221 55.9878,-52.4044 -26.4827,-191.654 0,0 40.7103,-82.9843 15.5799,-140.98 -2.51221,-21.9461 -12.4996,-31.6607 -29.0173,-30.6862 -13.7315,42.1618 -79.2934,52.513 -95.778,126.682 0.00236221,-0.0011811 -65.5489,-14.328 -112.082,-6.00709z"/>
  <path class="fil4" d="M712.596 633.805c-0.18189,-13.4067 -0.569292,-26.9351 -1.50473,-40.415 -7.07481,-0.615355 -14.5099,-1.07244 -22.0264,-1.25079 0.559843,13.891 1.58032,27.7819 2.24173,41.6658 1.30512,27.6295 0.88819,56.8382 8.78741,83.4792 1.1185,3.73583 6.51024,3.77599 7.59331,0 7.77166,-26.974 5.29252,-55.6678 4.90867,-83.4792z"/>
  <path class="fil4" d="M670.573 592.333c-2.6374,20.5701 0.699213,41.0091 0.608268,61.6902 -0.00472441,1.84488 2.61969,2.14252 3.15591,0.427559 6.27166,-20.2512 9.61654,-41.3233 6.84567,-62.3906 -3.54922,0.0153543 -7.09607,0.102756 -10.6099,0.272835z"/>
  <path class="fil4" d="M721.602 594.439c0.0496063,0.979135 0.0956694,1.95945 0.133465,2.9374 0.715749,18.2622 1.38071,36.9059 7.063,54.3945 0.996851,3.05315 5.19567,3.05315 6.19134,0 5.00197,-15.4347 7.87678,-35.0634 7.9441,-54.4229 -6.05906,-0.969686 -13.3335,-2.01024 -21.3319,-2.90906z"/>
  <path class="fil4" d="M548.121 745.545c-14.2677,-9.49725 -27.6732,-20.3882 -42.5752,-28.8544 -1.91811,5.88426 -3.74882,11.9835 -5.43426,18.2221 13.6831,8.61024 28.3937,15.3532 43.63,21.0248 6.3378,2.36221 9.47599,-7.00276 4.37953,-10.3925z"/>
  <path class="fil4" d="M531.539 772.185c-11.4945,-5.0067 -24.574,-9.58111 -37.474,-9.96969 -1.13504,6.7004 -1.99252,13.4291 -2.50158,20.1095 12.6272,0.377953 25.7114,-2.7626 38.1461,-3.34016 3.27402,-0.153543 5.39528,-5.23347 1.82953,-6.79961z"/>
  <path class="fil4" d="M537.561 794.877c-16.1232,2.72126 -30.6225,9.10394 -45.8528,14.7815 0.924804,9.37914 2.86654,18.3898 6.05315,26.7744 17.439,-7.963 33.4512,-19.1421 45.189,-32.2902 3.8752,-4.34055 0.0318898,-10.1728 -5.38937,-9.26576z"/>
  <path class="fil4" d="M905.635 722.006c-17.7602,8.41182 -34.8862,19.7882 -49.3914,31.4918 -7.22127,5.82993 0.601182,17.0445 8.64922,14.8642 16.2744,-4.40552 32.2583,-13.3347 46.6678,-23.9055 -1.46575,-7.03229 -3.41457,-14.511 -5.9256,-22.4504z"/>
  <path class="fil4" d="M915.109 770.888c-11.4697,2.91851 -22.9169,5.93504 -34.6925,7.85788 -2.75788,0.452363 -2.81339,5.22166 0,5.62796 11.4224,1.63701 23.1898,2.39055 34.7079,1.31102 0.246851,-4.59449 0.266929,-9.52087 -0.0153543,-14.7969z"/>
  <path class="fil4" d="M911.288 809.558c-10.8295,-2.55355 -21.3638,-8.37875 -30.6225,-13.7421 -5.21103,-3.01181 -9.90237,3.75 -6.18544,8.01851 8.22048,9.42639 18.4689,17.7626 29.6835,23.1898 2.43307,-4.33937 5.03977,-10.1232 7.12441,-17.4662z"/>
  <path class="fil5" d="M826.405 756.282c0,0 -15.639,27.9366 -34.9087,27.9366 -19.2862,-0.0011811 -34.9158,-27.9355 -34.9158,-27.9355 0.00236221,-0.0011811 15.6272,-27.9331 34.9158,-27.9331 19.2721,-0.00354331 34.9087,27.9331 34.9087,27.9319z"/>
  <path class="fil5" d="M826.405 756.282l-2.35984 -1.32402 -0.154725 0.272835c-0.827953,1.42559 -4.92048,8.18977 -10.8839,14.4626 -2.9811,3.13819 -6.42875,6.14174 -10.0925,8.3126 -3.67323,2.17914 -7.52717,3.51142 -11.4177,3.5067 -4.15394,0.00472441 -8.263,-1.50945 -12.1547,-3.94961 -5.82756,-3.6437 -11.0067,-9.32599 -14.6539,-14.087 -1.82244,-2.38229 -3.27402,-4.52953 -4.25906,-6.07087 -0.49252,-0.777166 -0.871654,-1.39843 -1.12087,-1.82008l-0.364961 -0.627166 -2.35984 1.32402 2.35984 1.32047 0.154725 -0.276378c0.829134,-1.42205 4.91339,-8.18505 10.8815,-14.4532 2.97756,-3.13229 6.42402,-6.14174 10.0925,-8.31024 3.67559,-2.17559 7.52717,-3.5067 11.4248,-3.5067 4.15276,-0.0011811 8.25709,1.51536 12.1488,3.94961 5.82284,3.64016 11.0067,9.32363 14.648,14.087 1.82717,2.37992 3.2752,4.52953 4.26378,6.07087 0.49252,0.768898 0.871654,1.39134 1.12087,1.81299l0.367323 0.625985 2.35984 -1.32047 -2.35984 -1.32402 2.35984 1.32402 2.36221 -1.32402c-0.0614174,-0.103937 -4.04528,-7.22481 -10.5815,-14.4591 -3.27756,-3.61536 -7.19764,-7.26851 -11.6669,-10.0772 -4.46575,-2.79921 -9.53505,-4.77166 -15.0225,-4.77756 -5.48741,0.00236221 -10.565,1.98071 -15.0284,4.77756 -13.3441,8.4378 -22.1162,24.3851 -22.252,24.5362l-0.734646 1.32402 0.737008 1.32047c0.0625985,0.103937 4.03937,7.22717 10.5827,14.4614 3.27638,3.62008 7.19292,7.27323 11.6669,10.0819 4.46693,2.79567 9.54095,4.77284 15.0284,4.77874 5.48859,-0.00826772 10.5567,-1.98189 15.0225,-4.77874 13.3453,-8.44253 22.1162,-24.3851 22.2473,-24.5421l0.740552 -1.32165 -0.739371 -1.32402 -2.36221 1.32402z"/>
  <path class="fil6" d="M807.389 757.348c0,15.2138 -6.68268,27.5469 -14.9256,27.5469 -8.25119,-0.00354331 -14.9232,-12.3331 -14.9232,-27.5457 0,-15.2185 6.67087,-27.5492 14.9232,-27.5492 8.2441,-0.0011811 14.9256,12.3319 14.9256,27.5481z"/>
  <path class="fil5" d="M645.895 753.128c0,0 -18.0307,26.4508 -37.2319,24.7583 -19.2095,-1.6937 -32.3327,-30.8882 -32.3327,-30.8882 0,0 18.026,-26.452 37.2355,-24.7583 19.2,1.6878 32.328,30.8894 32.3292,30.8882z"/>
  <path class="fil5" d="M645.895 753.128l-2.24055 -1.52835 -0.167717 0.244488c-0.88819,1.26496 -5.27599,7.2756 -11.4461,12.8599 -6.16182,5.62205 -14.0906,10.6122 -21.5965,10.5567 -0.51378,0 -1.02992,-0.0212599 -1.5437,-0.068504 -4.13859,-0.36378 -8.10001,-2.23701 -11.7638,-5.0067 -5.48268,-4.14213 -10.1469,-10.2484 -13.3606,-15.3142 -1.6063,-2.53465 -2.86181,-4.80118 -3.70748,-6.42402 -0.426378,-0.81378 -0.745276,-1.45984 -0.96378,-1.90512l-0.305906 -0.656693 -2.46851 1.1126 2.23465 1.5189 0.168898 -0.238583c0.892914,-1.26496 5.27481,-7.27678 11.4437,-12.8563 6.16418,-5.62323 14.0917,-10.611 21.6024,-10.5579 0.519685,-0.00354331 1.03347,0.0212599 1.54843,0.0708662 4.13504,0.355512 8.09528,2.22874 11.7532,5.00079 5.48859,4.1374 10.1528,10.2484 13.3606,15.313 1.61339,2.5311 2.86772,4.8 3.71339,6.42402 0.421654,0.810237 0.745276,1.46102 0.957875,1.90394l0.314173 0.660237 2.46732 -1.10906 -2.24055 -1.52835 2.24055 1.52835 2.46732 -1.11142c-0.0543308,-0.111024 -3.39331,-7.55079 -9.27639,-15.3331 -2.94213,-3.89174 -6.5256,-7.87442 -10.7362,-11.061 -4.20473,-3.18307 -9.07914,-5.59607 -14.5453,-6.08268 -0.675591,-0.0602363 -1.35236,-0.0874016 -2.02441,-0.0874016 -10.5142,0.0708662 -19.7516,6.78189 -26.5311,13.161 -6.77599,6.42756 -11.0835,12.7595 -11.1532,12.8587l-0.855119 1.24843 0.622441 1.38543c0.0531496,0.108662 3.39213,7.54961 9.2693,15.3319 2.94921,3.88937 6.5315,7.87323 10.7421,11.0658 4.20473,3.17717 9.08505,5.59134 14.5512,6.07796 0.677953,0.0578741 1.34646,0.090945 2.01851,0.090945 10.5154,-0.0696851 19.7516,-6.78544 26.5311,-13.1658 6.77127,-6.43111 11.0835,-12.7606 11.1532,-12.8575l0.851575 -1.24961 -0.617717 -1.38307 -2.46732 1.11142z"/>
  <path class="fil6" d="M626.847 752.522c-1.33819,15.1512 -9.08741,26.8512 -17.2854,26.1272 -8.21457,-0.725197 -13.7823,-13.5933 -12.4524,-28.7504 1.3311,-15.1595 9.07442,-26.8524 17.2843,-26.1284 8.21457,0.725197 13.7894,13.5898 12.4536,28.7516z"/>
  <path class="fil7" d="M799.636 609.951c0,0 41.126,-68.2808 62.9008,-72.7619 21.7736,-4.47756 -9.32953,89.478 -9.32953,89.478 0.00354331,-0.0011811 -25.2272,-10.0063 -53.5713,-16.7162z"/>
  <path class="fil7" d="M560.81 628.073c0,0 27.5705,-16.1398 56.3599,-22.6264 0,-0.00354331 -43.9146,-78.841 -56.3611,-75.7288 -12.4465,3.10866 -15.5528,53.7414 0.0011811,98.3552z"/>
  <path class="fil8" d="M728.782 798.472c-16.5886,0 -30.8244,11.7378 -34.8236,27.2197 -0.66378,-1.78228 -1.42795,-3.53977 -2.4189,-5.23819 -3.00827,-5.08819 -7.06182,-9.14056 -12.1536,-12.1547l-0.935434 -0.398032c-2.72717,-1.1563 -5.46733,-2.30788 -8.19449,-3.46063 -6.08623,-1.64055 -12.1701,-1.63937 -18.2575,0 -5.82284,1.62992 -10.8768,4.56733 -15.1583,8.82757 -2.84528,2.86536 -5.05394,6.11339 -6.72638,9.66969 -4.45748,7.75394 -4.96772,17.7768 -1.55197,26.0669 2.1378,7.46103 8.98701,14.5465 15.2209,18.2043 5.3693,3.1004 11.1425,4.66536 17.3398,4.68662 6.20197,-0.0212599 11.9693,-1.58622 17.3268,-4.68662l0.936615 -0.4063c5.09292,-3.01063 9.14528,-7.06064 12.1536,-12.1536 1.53307,-2.62441 2.66811,-5.35748 3.44292,-8.18859 5.03741,13.8366 18.3921,23.9469 33.7996,23.9469 19.6063,-0.0011811 35.9693,-16.3642 35.9693,-35.9693 0.0011811,-19.6016 -16.3642,-35.9658 -35.9693,-35.9658z"/>
  <path class="fil6" d="M691.509 791.231c-21.5551,1.1126 -34.5473,3.36614 -18.9414,23.139 15.613,19.7728 21.2079,21.8469 43.0418,0.634252 21.861,-21.2138 -8.23583,-24.5894 -24.1004,-23.7732z"/>
  <path class="fil7" d="M532.81 877.985c0,0 -77.7627,87.1016 -50.517,165.888 0.0011811,-0.00354331 9.98032,-22.4634 27.2528,-28.7681 0.0011811,0 11.1697,69.1583 30.0992,103.846l21.111 -26.2902 26.3209 70.2733 38.1237 -53.6221 21.1642 40.9725 4.9193 -15.7654 33.5681 69.2989 34.6831 -81.9201 25.2213 34.6831 18.7205 -40.9866 36.3697 12.6083 25.7103 -50.4378 32.7 6.30355 15.7654 -44.1685 34.676 16.8036 15.7654 -43.1433 18.9177 0c0,0 22.0666,-78.2375 -50.4473,-163.355 0,-0.00236221 -95.615,119.225 -198.434,128.555 -66.939,6.07796 -161.691,-100.772 -161.691,-100.775z"/>
  <path class="fil9" d="M1222.34 988.345c61.3926,0 112.383,31.9122 150.891,83.7343 40.6028,54.6437 67.1682,131.734 76.9855,216.312 15.3354,132.104 -34.2201,219.284 -105.78,262.966 -36.2303,22.1162 -78.0686,32.9185 -119.975,32.6386 -41.8512,-0.281103 -83.8205,-11.6197 -120.377,-33.7855 -73.6229,-44.6422 -125.261,-132.653 -109.621,-261.877 10.2461,-84.6579 36.8705,-161.863 77.4922,-216.532 38.38,-51.6508 89.1072,-83.4568 150.384,-83.4568z"/>
  <path class="fil10" d="M1374.15 1529.5c-5.84646,5.13071 -11.928,9.89646 -18.2091,14.3067 -27.9437,-1.0748 -53.4319,-6.23032 -75.3237,-17.3646 -24.7748,-12.5988 -44.7662,-32.6575 -58.2815,-62.8052 -13.5154,30.1477 -33.5055,50.2063 -58.2804,62.8052 -20.5701,10.461 -44.315,15.6449 -70.2886,17.1248 -6.3378,-4.3252 -12.4831,-8.99646 -18.4087,-14.0008 31.0347,0.18189 59.002,-4.27087 82.1292,-16.0323 26.0374,-13.2413 46.1847,-36.0177 57.9709,-72.3166l6.87756 2.23701 6.87993 -2.23701c11.785,36.2988 31.9335,59.0752 57.9697,72.3166 24.3225,12.3685 53.9977,16.6547 86.9646,15.9662z"/>
  <path class="fil11" d="M1128.49 1018.44c-108.567,-62.5465 -180.183,-27.3355 -219.712,34.9725 -20.9646,33.0449 -32.3256,73.9749 -34.9949,111.421 -2.74134,38.4591 3.82677,74.0764 18.6851,95.028 17.4165,24.5587 43.5756,31.5461 77.1402,7.74331 24.0851,-17.0776 24.9437,-22.8815 28.3276,-45.8008 0.504331,-3.41339 1.06181,-7.18938 1.11142,-7.49764l0.967324 -6.0378c6.76772,-42.2339 12.7406,-79.5095 24.404,-100.48 7.1504,-12.8563 17.9528,-18.4252 35.6658,-12.6626 5.02914,-8.21103 10.3748,-16.1646 16.0536,-23.8075 15.2799,-20.5642 32.7579,-38.5394 52.3524,-52.878z"/>
  <path class="fil11" d="M1315.57 1018.79c108.907,-63.0284 180.718,-27.8032 220.322,34.6217 20.9646,33.0449 32.3244,73.9749 34.9937,111.421 2.74134,38.4591 -3.82559,74.0764 -18.6851,95.028 -17.4154,24.5587 -43.5756,31.5461 -77.1402,7.74331 -24.0851,-17.0776 -24.9425,-22.8815 -28.3264,-45.8008 -0.504331,-3.41339 -1.06181,-7.18938 -1.11142,-7.49764l-0.968505 -6.0378c-6.76654,-42.2339 -12.7394,-79.5095 -24.404,-100.48 -7.25197,-13.0382 -18.2599,-18.5811 -36.4264,-12.4099 -5.02205,-8.2004 -10.3618,-16.1445 -16.037,-23.7815 -15.2386,-20.5087 -32.6752,-38.4567 -52.2166,-52.8059z"/>
  <path class="fil12" d="M1149.03 1146.36c10.9642,0 20.6209,5.56182 27.365,14.5547 5.8441,7.79292 9.45946,18.2835 9.45946,29.6221 0,11.3386 -3.61536,21.828 -9.45946,29.6221 -6.74528,8.99174 -16.4008,14.5559 -27.365,14.5559 -10.9654,0 -20.6209,-5.56418 -27.3638,-14.5559 -5.84528,-7.7941 -9.46182,-18.2835 -9.46182,-29.6221 0,-11.3374 3.61654,-21.8292 9.46064,-29.6221 6.74528,-8.99174 16.3996,-14.5547 27.365,-14.5547z"/>
  <path class="fil13" d="M1158.28 1172.55c-3.14292,-2.48032 -6.63426,-4.01575 -9.72284,-4.01575 -3.09095,0 -6.58229,1.53543 -9.7252,4.01575 -5.42717,4.28504 -8.78505,10.6217 -8.78505,17.9917 0,7.37008 3.35906,13.7067 8.78741,17.9917 3.14173,2.48032 6.63426,4.01693 9.72284,4.01693 3.08859,0 6.57993,-1.53662 9.72284,-4.01693 5.42717,-4.28504 8.78623,-10.6217 8.78623,-17.9917 0,-7.37008 -3.35906,-13.7067 -8.78623,-17.9917z"/>
  <path class="fil14" d="M1158.28 1172.55c-0.22441,-0.177165 -0.451181,-0.349607 -0.679134,-0.517323 -0.809056,0.0720473 -1.69488,0.488977 -2.5004,1.12441 -1.53425,1.21063 -2.48268,3.00118 -2.48268,5.08465 0,2.08229 0.948426,3.87402 2.48268,5.08465 0.88819,0.701575 1.87559,1.13504 2.74843,1.13504 0.872835,0 1.85906,-0.433465 2.74725,-1.13504 1.53425,-1.21063 2.48386,-3.00236 2.48386,-5.08465 0,-0.219685 -0.0106299,-0.435827 -0.0307087,-0.648426 -1.31693,-1.89095 -2.92323,-3.58583 -4.7693,-5.04331z"/>
  <path class="fil12" d="M1295.64 1146.36c10.9642,0 20.6209,5.56182 27.3638,14.5547 5.84528,7.79292 9.46064,18.2835 9.46064,29.6221 0,11.3386 -3.61536,21.828 -9.46064,29.6221 -6.7441,8.99174 -16.3996,14.5559 -27.3638,14.5559 -10.9654,0 -20.6209,-5.56418 -27.365,-14.5559 -5.8441,-7.7941 -9.46064,-18.2835 -9.46064,-29.6221 0,-11.3374 3.61654,-21.8292 9.46064,-29.6221 6.74528,-8.99174 16.3996,-14.5547 27.365,-14.5547z"/>
  <path class="fil13" d="M1304.9 1172.55c-3.14292,-2.48032 -6.63426,-4.01575 -9.72284,-4.01575 -3.09095,0 -6.58229,1.53543 -9.7252,4.01575 -5.42717,4.28504 -8.78623,10.6217 -8.78623,17.9917 0,7.37008 3.36024,13.7067 8.78741,17.9917 3.14292,2.48032 6.63426,4.01693 9.72402,4.01693 3.08859,0 6.57993,-1.53662 9.72284,-4.01693 5.42717,-4.28504 8.78623,-10.6217 8.78623,-17.9917 0,-7.37008 -3.35906,-13.7067 -8.78623,-17.9917z"/>
  <path class="fil14" d="M1304.9 1172.55c-0.22441,-0.177165 -0.45,-0.349607 -0.679134,-0.517323 -0.807875,0.0720473 -1.69488,0.488977 -2.49921,1.12441 -1.53425,1.21063 -2.48386,3.00118 -2.48386,5.08465 0,2.08229 0.949607,3.87402 2.48386,5.08465 0.88819,0.701575 1.87559,1.13504 2.74725,1.13504 0.874016,0 1.86024,-0.433465 2.74843,-1.13504 1.53425,-1.21063 2.48386,-3.00236 2.48386,-5.08465 0,-0.219685 -0.0106299,-0.435827 -0.0318898,-0.648426 -1.31575,-1.89095 -2.92323,-3.58583 -4.7693,-5.04331z"/>
  <path class="fil15" d="M1222.34 1329.8c24.0378,0 45.9886,6.62126 62.0445,17.3256 17.6067,11.7378 28.4977,28.454 28.4977,47.3634 0,18.9095 -10.891,35.6256 -28.4977,47.3634 -16.0559,10.7043 -38.0067,17.3256 -62.0445,17.3256 -24.0378,0 -45.9874,-6.62126 -62.0445,-17.3256 -17.6067,-11.7378 -28.4977,-28.454 -28.4977,-47.3634 0,-18.9095 10.891,-35.6256 28.4977,-47.3634 16.0559,-10.7043 38.0079,-17.3256 62.0445,-17.3256z"/>
  <ellipse class="fil16" transform="matrix(0.798684 -0.182217 0.182217 0.798685 1190.95 1377.25)" rx="31.9996" ry="16.0004"/>
 </g>
</svg>
