<?xml version="1.0" encoding="utf-8"?>
<!-- Generator: Adobe Illustrator 22.0.0, SVG Export Plug-In . SVG Version: 6.00 Build 0)  -->
<svg version="1.1" xmlns="http://www.w3.org/2000/svg" xmlns:xlink="http://www.w3.org/1999/xlink" x="0px" y="0px"
	 viewBox="0 0 512 512" style="enable-background:new 0 0 512 512;" xml:space="preserve">
<style type="text/css">
	.st0{fill:#E1902B;}
	.st1{fill:#3D2A3D;}
	.st2{fill:#E7AD84;}
	.st3{fill:#2961A5;}
	.st4{fill:#FFD66C;}
	.st5{fill:#A18FA1;}
	.st6{fill:#DB4646;}
	.st7{fill:#78BEDE;}
	.st8{fill:#43B06D;}
	.st9{fill:#9EC853;}
	.st10{fill:#217D44;}
	.st11{fill:#DBDBDB;}
	.st12{fill:#FFFFFF;}
	.st13{fill:#C41E1E;}
	.st14{fill:#B9BDC2;}
	.st15{fill:#856685;}
	.st16{fill:#E8E8E8;}
	.st17{fill:#BDBDBD;}
	.st18{fill:#839797;}
	.st19{fill:#D9D9D9;}
	.st20{fill:#F0F0F0;}
	.st21{fill:#BFBFBF;}
	.st22{fill:#706470;}
	.st23{fill:#4B1E4C;}
	.st24{fill:#614F61;}
	.st25{fill:#A37352;}
	.st26{fill:#7A6C7A;}
	.st27{fill:#919191;}
	.st28{fill:#6E6E6E;}
	.st29{fill:#B8B8B8;}
	.st30{fill:#FF826E;}
	.st31{fill:#7D5737;}
	.st32{fill:#2E1B17;}
	.st33{fill:#483324;}
	.st34{fill:#9E9E9E;}
	.st35{fill:#7D6F7D;}
	.st36{fill:#6B4A6B;}
	.st37{fill:#4A80C2;}
	.st38{fill:#B34B0F;}
	.st39{fill:#FFC682;}
	.st40{clip-path:url(#SVGID_2_);fill:#DBDBDB;}
	.st41{fill:#FFDBC5;}
	.st42{fill:#E3E3E3;}
	.st43{clip-path:url(#SVGID_4_);}
	.st44{clip-path:url(#SVGID_6_);fill:#DBDBDB;}
	.st45{clip-path:url(#SVGID_8_);}
	.st46{fill:#E8B494;}
	.st47{fill:#F2D7C4;}
	.st48{fill:#5D5660;}
	.st49{fill:#3B2D3F;}
	.st50{fill:#756275;}
	.st51{fill:#E1622B;}
	.st52{fill:#F0E9E9;}
	.st53{fill:#4D917B;}
	.st54{fill:#C4C4C4;}
	.st55{fill:#14855A;}
	.st56{fill:#C21B1B;}
</style>
<g id="Layer_9">
	<path class="st4" d="M512,256c0,141.4-114.6,256-256,256C114.6,512,0,397.4,0,256C0,114.6,114.6,0,256,0C397.4,0,512,114.6,512,256
		z"/>
</g>
<g id="Layer_7">
	<g>
		<g>
			<path class="st6" d="M319,380.2c0,19.2-15.6,34.8-34.8,34.8h-55.4c-19.2,0-34.8-15.6-34.8-34.8V129.8c0-19.2,15.6-34.8,34.8-34.8
				h55.4c19.2,0,34.8,15.6,34.8,34.8V380.2z"/>
			<path class="st6" d="M416,283.2c0,19.2-15.6,34.8-34.8,34.8H130.8c-19.2,0-34.8-15.6-34.8-34.8v-55.4c0-19.2,15.6-34.8,34.8-34.8
				h250.4c19.2,0,34.8,15.6,34.8,34.8V283.2z"/>
		</g>
		<g>
			<path class="st12" d="M270.2,311c-9.4,9.4-24.7,9.4-34.1,0L201.2,276c-9.4-9.4-9.4-24.7,0-34.1l0.1-0.1c9.4-9.4,24.7-9.4,34.1,0
				l34.9,34.9c9.4,9.4,9.4,24.7,0,34.1L270.2,311z"/>
			<path class="st12" d="M265.2,280.5c-11.9,11.9-29.2,13.8-38.7,4.3c-9.5-9.5-7.6-26.9,4.3-38.7c11.9-11.9,29.2-13.8,38.7-4.3
				C279,251.3,277.1,268.6,265.2,280.5z"/>
			<g>
				<path class="st12" d="M313,260.1c-7.3,7.3-19.3,7.3-26.6,0c-7.3-7.3-7.3-19.3,0-26.6c7.3-7.3,19.3-7.3,26.6,0
					C320.3,240.9,320.3,252.8,313,260.1z"/>
				<path class="st12" d="M277.7,224.9c-7.3,7.3-19.3,7.3-26.6,0c-7.3-7.3-7.3-19.3,0-26.6c7.3-7.3,19.3-7.3,26.6,0
					C285.1,205.7,285.1,217.6,277.7,224.9z"/>
			</g>
			<g>
				<path class="st12" d="M229.4,222.4c-6.2,6.2-16.1,6.2-22.3,0c-6.2-6.2-6.2-16.1,0-22.3c6.2-6.2,16.1-6.2,22.3,0
					C235.6,206.3,235.6,216.2,229.4,222.4z"/>
				<path class="st12" d="M311.2,304.2c-6.2,6.2-16.1,6.2-22.3,0c-6.2-6.2-6.2-16.1,0-22.3c6.2-6.2,16.1-6.2,22.3,0
					C317.3,288,317.3,298,311.2,304.2z"/>
			</g>
		</g>
	</g>
</g>
</svg>
