<?xml version="1.0" encoding="utf-8"?>
<!-- Generator: Adobe Illustrator 24.0.0, SVG Export Plug-In . SVG Version: 6.00 Build 0)  -->
<svg version="1.1" id="Layer_1" xmlns="http://www.w3.org/2000/svg" xmlns:xlink="http://www.w3.org/1999/xlink" x="0px" y="0px"
	 viewBox="0 0 256 256" enable-background="new 0 0 256 256" xml:space="preserve">
<g>
</g>
<g>
	<path fill="#FC5D3D" d="M240.33,169.38l-4.3,6.74c-1.49,2.33-4.58,3.02-6.91,1.53l-17.79-11.35L128,113.13L44.67,166.3
		l-17.79,11.35c-2.33,1.49-5.42,0.8-6.91-1.53l-4.3-6.75c-1.49-2.32-0.8-5.41,1.52-6.9l18.14-11.57
		c72.074-45.982,57.196-36.491,92.67-59.12c32.868,20.967,13.837,8.825,92.67,59.13l18.13,11.56
		C241.13,163.96,241.82,167.05,240.33,169.38z"/>
	<polygon fill="#EFEFEF" points="211.33,166.3 211.33,251.75 44.67,251.75 44.67,166.3 128,113.13 	"/>
	<path fill="#72C2E9" d="M220.67,82.92v67.99c-78.788-50.276-59.783-38.151-92.67-59.13c-37.398,23.857-23.191,14.794-92.67,59.12
		V82.92c0-18.51,15-33.52,33.52-33.52c18.5,0,33.52,15.01,33.52,33.52v6.89c0-14.15,11.47-25.63,25.63-25.63
		c14.3,0,25.63,11.61,25.63,25.63v-6.89c0-18.51,15.01-33.52,33.52-33.52C205.45,49.4,220.67,64.17,220.67,82.92z"/>
	<path fill="#4BA5C8" d="M220.671,141.4v9.51c-78.788-50.276-59.783-38.151-92.67-59.13c-37.398,23.857-23.191,14.794-92.67,59.12
		v-9.48c79.177-50.525,60.731-38.755,89.44-57.07c1.97-1.26,4.49-1.26,6.46,0C160.365,102.936,142.19,91.343,220.671,141.4z"/>
	<circle fill="#FEB69F" cx="68.847" cy="26.825" r="22.575"/>
	<path fill="#C5E5FE" d="M90.591,100.5c-1.381,0-2.5-1.119-2.5-2.5v-3.235c0-1.381,1.119-2.5,2.5-2.5s2.5,1.119,2.5,2.5V98
		C93.091,99.381,91.972,100.5,90.591,100.5z M90.591,87.265c-1.381,0-2.5-1.119-2.5-2.5V82.92c0-10.609-8.631-19.24-19.24-19.24
		c-1.381,0-2.5-1.119-2.5-2.5s1.119-2.5,2.5-2.5c13.366,0,24.24,10.874,24.24,24.24v1.845
		C93.091,86.146,91.972,87.265,90.591,87.265z"/>
	<circle fill="#FEB69F" cx="128.001" cy="46.917" r="17.263"/>
	<path fill="#C5E5FE" d="M139.63,85.096c-1.569-4.609-5.893-7.706-10.76-7.706c-1.381,0-2.5-1.119-2.5-2.5s1.119-2.5,2.5-2.5
		c7.008,0,13.234,4.458,15.493,11.095c0.445,1.307-0.254,2.728-1.561,3.172C141.496,87.101,140.075,86.403,139.63,85.096z"/>
	<circle fill="#FEB69F" cx="187.154" cy="26.825" r="22.575"/>
	<path fill="#C5E5FE" d="M208.901,127.75c-1.381,0-2.5-1.119-2.5-2.5v-3.492c0-1.381,1.119-2.5,2.5-2.5s2.5,1.119,2.5,2.5v3.492
		C211.401,126.631,210.282,127.75,208.901,127.75z M208.901,114.258c-1.381,0-2.5-1.119-2.5-2.5V82.92
		c0-10.609-8.636-19.24-19.25-19.24c-1.381,0-2.5-1.119-2.5-2.5s1.119-2.5,2.5-2.5c13.372,0,24.25,10.874,24.25,24.24v28.838
		C211.401,113.139,210.282,114.258,208.901,114.258z"/>
	<path fill="#FFFFFF" d="M76.31,243.83H52.33c-1.37,0-2.5-1.12-2.5-2.5c0-1.38,1.13-2.5,2.5-2.5h23.98c1.38,0,2.5,1.12,2.5,2.5
		C78.81,242.71,77.69,243.83,76.31,243.83z"/>
	<path fill="#FFFFFF" d="M199.67,243.83h-19.98c-1.38,0-2.5-1.12-2.5-2.5c0-1.37,1.12-2.5,2.5-2.5h17.48V174.8
		c0-1.37,1.12-2.49,2.5-2.49c1.37,0,2.5,1.12,2.5,2.49v66.53C202.17,242.754,201,243.83,199.67,243.83z"/>
	<path fill="#7D7B79" d="M179.692,251.75H76.31v-49.149c0-28.548,23.143-51.691,51.691-51.691h0
		c28.548,0,51.691,23.143,51.691,51.691V251.75z"/>
	<path fill="#EDC21D" d="M147.291,209.37C147.291,209.371,147.29,209.371,147.291,209.37L147.291,209.37
		c2.189-2.79,3.909-6.06,4.999-9.65c0-0.01,0-0.01,0-0.01c-0.39-0.65-0.67-1.37-0.82-2.15l-4.45-22.76
		c-4.68-3.79-11.47-5.3-19.02-5.3c-7.55,0-14.34,1.51-19.02,5.3l-4.45,22.76c-0.15,0.78-0.43,1.5-0.82,2.15
		c1.07,3.5,2.72,6.69,4.84,9.43l0,0c-9.12,7.3-14.719,18.49-14.719,30.649v2.438c0,5.259,4.263,9.522,9.522,9.522h49.295
		c5.259,0,9.523-4.263,9.523-9.522v-2.087C162.171,227.9,156.501,216.66,147.291,209.37z"/>
	<path fill="#F8E5B2" d="M143.81,204.99v8.05c-9.4,8.25-22.52,7.99-31.62,0v-8.05c0-7.17,5.81-12.99,12.99-12.99h5.64
		C138,192,143.81,197.82,143.81,204.99z"/>
	<path fill="#B34F33" d="M133.588,196.126c0,3.086-2.501,5.587-5.587,5.587c-3.086,0-5.587-2.501-5.587-5.587
		c0-3.086,2.501-4.121,5.587-4.121C131.086,192.005,133.588,193.041,133.588,196.126z"/>
	<path fill="#B34F33" d="M108.981,174.805l-4.45,22.76c-0.15,0.78-0.43,1.5-0.82,2.15c-1.43,2.46-4.31,3.87-7.26,3.29
		c-3.82-0.75-6.26-4.51-5.39-8.3C92.063,190.293,91.861,182.264,108.981,174.805z"/>
	<path fill="#B34F33" d="M159.551,203.005c-2.95,0.58-5.82-0.82-7.26-3.28c-0.01,0,0-0.01,0-0.01c-0.39-0.65-0.67-1.37-0.82-2.15
		l-4.45-22.76c16.681,7.268,16.812,15.02,17.92,19.9C165.82,198.514,163.356,202.255,159.551,203.005z"/>
	<path d="M79.65,24.33c-1.38,0-2.5,1.12-2.5,2.5c-0.01,4.56-3.74,8.28-8.3,8.29c-4.57-0.01-8.29-3.73-8.3-8.29
		c0-1.38-1.12-2.5-2.5-2.5s-2.5,1.12-2.5,2.5c0,7.32,5.97,13.29,13.3,13.29c7.32,0,13.29-5.97,13.3-13.29
		C82.15,25.45,81.02,24.33,79.65,24.33z"/>
	<path d="M133.49,44.42c-1.38,0-2.5,1.12-2.5,2.5c-0.01,1.64-1.35,2.98-2.99,2.98c-1.64,0-2.98-1.34-2.99-2.98
		c0-1.38-1.12-2.5-2.5-2.5c-1.37,0-2.49,1.12-2.49,2.5c0,4.4,3.58,7.98,7.98,7.98c4.4,0,7.98-3.58,7.99-7.98
		C135.99,45.54,134.87,44.42,133.49,44.42z"/>
	<path d="M197.95,24.32c-1.38,0-2.5,1.13-2.5,2.51c-0.01,4.56-3.73,8.28-8.29,8.29c-4.57-0.01-8.29-3.73-8.3-8.29
		c0-1.38-1.12-2.51-2.5-2.51s-2.5,1.13-2.5,2.51c0,7.32,5.97,13.29,13.3,13.29c7.32,0,13.29-5.97,13.29-13.29
		C200.45,25.45,199.33,24.32,197.95,24.32z"/>
	<path d="M13.56,170.72l4.3,6.75c2.355,3.676,7.08,4.395,10.36,2.29l13.95-8.902v80.892c0,1.366,1.111,2.5,2.5,2.5h166.66
		c1.387,0,2.5-1.113,2.5-2.5V236.3c0-1.38-1.12-2.5-2.5-2.5c-1.38,0-2.5,1.12-2.5,2.5v12.95h-26.64V202.6
		c0-29.932-24.254-54.19-54.19-54.19c-4.83,0-9.63,0.64-14.25,1.89c-1.33,0.36-2.12,1.74-1.76,3.07
		c0.37,1.343,1.763,2.131,3.06,1.76h0.01c4.2-1.14,8.55-1.72,12.94-1.72c27.171,0,49.19,21.999,49.19,49.19v46.65h-14.805
		c1.431-1.979,2.285-4.4,2.285-7.02v-2.09c0-11.764-4.983-23.163-14-31.191c1.003-1.503,1.874-3.091,2.61-4.753
		c2.104,1.31,4.544,1.712,6.749,1.265c5.108-1.01,8.555-6.051,7.35-11.32c-1.148-5.049-1.014-13.349-19.134-21.527
		C143.451,168.905,136.65,167.01,128,167c-8.662,0.01-15.471,1.91-20.267,5.628c-17.721,8.074-17.905,16.2-19.113,21.522
		c-1.195,5.088,2.114,10.275,7.35,11.31c2.44,0.454,4.761-0.025,6.753-1.27c0.703,1.585,1.528,3.097,2.467,4.529
		c-8.672,7.8-13.86,18.973-13.86,31.07c0,2.725-0.296,5.891,2.285,9.46H78.81V202.6c0-15.43,7.04-29.67,19.31-39.08
		c1.09-0.84,1.3-2.41,0.46-3.5c-0.81-1.06-2.44-1.28-3.5-0.47c-12.895,9.867-21.27,25.492-21.27,43.05v46.65H47.17v-81.583
		L128,116.09l80.83,51.578V216.3c0,1.38,1.12,2.5,2.5,2.5c1.38,0,2.5-1.12,2.5-2.5v-45.442l13.95,8.902
		c3.401,2.164,8.069,1.287,10.36-2.29l4.3-6.75c2.228-3.501,1.211-8.117-2.29-10.36l-16.98-10.833V82.92
		c0-15.51-9.764-28.941-24.152-33.993c7.841-4.22,13.212-12.5,13.212-22.107c0-13.821-11.188-25.07-25.08-25.07
		c-13.843,0-25.07,11.198-25.07,25.07c0,9.638,5.39,17.889,13.188,22.095c-11.838,4.132-20.622,14.162-23.287,26.205
		c-3.054-4.978-7.696-9.111-13.559-11.442c5.597-3.494,9.339-9.691,9.339-16.757c0-10.9-8.86-19.76-19.76-19.77
		c-10.9,0.01-19.76,8.87-19.76,19.77c0,7.069,3.746,13.269,9.347,16.762c-5.796,2.305-10.474,6.389-13.567,11.418
		c-2.622-11.842-11.273-21.981-23.289-26.185C88.496,44.72,93.92,36.492,93.92,26.83c0-13.864-11.205-25.08-25.07-25.08
		c-13.892,0-25.08,11.244-25.08,25.08c0,9.528,5.311,17.822,13.183,22.079C43.039,53.764,32.83,67.044,32.83,82.92v3.98
		c0,1.37,1.12,2.5,2.5,2.5c1.38,0,2.5-1.13,2.5-2.5v-3.98c0.03-17.07,13.95-30.99,31.02-31.02c17.07,0.03,30.99,13.95,31.02,31.02
		c0,9.896,0,2.123,0,23.843L83.73,117.06c-1.16,0.74-1.51,2.29-0.77,3.45c0.72,1.12,2.33,1.49,3.46,0.76c0,0,0.01,0,0.01-0.01
		c21.032-13.418,23.741-15.146,41.57-26.52c5.086,3.245,107.83,68.8,109.46,69.84c1.158,0.741,1.512,2.294,0.76,3.45l-4.3,6.75
		c-0.741,1.161-2.287,1.497-3.45,0.76l-101.12-64.52c-0.81-0.51-1.89-0.51-2.69,0L25.53,175.54c-1.22,0.773-2.735,0.359-3.45-0.76
		l-4.3-6.75c-0.8-1.263-0.319-2.76,0.76-3.45l51.02-32.55c1.139-0.732,1.516-2.274,0.76-3.45c-0.72-1.13-2.32-1.49-3.45-0.76
		l-29.04,18.521V106.9c0-1.38-1.12-2.5-2.5-2.5c-1.38,0-2.5,1.12-2.5,2.5v42.63l-16.98,10.83
		C12.347,162.594,11.332,167.218,13.56,170.72z M130.6,195.01c0.411,0.311,0.44,0.473,0.49,1.12c-0.01,1.69-1.39,3.08-3.09,3.08
		c-1.7,0-3.08-1.39-3.09-3.08c0.051-0.649,0.08-0.81,0.49-1.12C126.383,194.327,129.622,194.33,130.6,195.01z M141.311,211.851
		c-3.153,2.52-6.733,4.122-10.81,4.611V203.81c3.131-1.021,5.594-3.931,5.583-7.863c3.113,1.824,5.221,5.19,5.227,9.042V211.851z
		 M125.5,203.81v12.652c-4.123-0.487-7.662-2.1-10.81-4.617v-6.855c0.007-3.852,2.114-7.219,5.227-9.042
		C119.906,199.838,122.345,202.779,125.5,203.81z M162.5,195.26c0.58,2.475-1.04,4.826-3.43,5.29c-2.282,0.49-4.692-1.077-5.14-3.46
		l-3.46-17.704C161.65,185.811,161.158,189.356,162.5,195.26z M144.75,176.21c4.575,23.39,4.318,22.484,4.85,23.71
		c-0.811,2.351-1.919,4.535-3.29,6.533v-1.463c0-8.53-6.95-15.48-15.49-15.48c-0.001,0-5.501,0-5.64,0
		c-8.54,0-15.49,6.95-15.49,15.48v1.434c-1.363-1.979-2.474-4.152-3.28-6.503c0.505-1.183,0.222-0.112,4.84-23.71
		c3.82-2.76,9.58-4.21,16.67-4.21C133.614,172,140.162,172.886,144.75,176.21z M96.93,200.55c-2.52-0.489-4.002-2.994-3.43-5.28
		c1.29-5.691,0.79-9.48,12.04-15.89c-0.776,3.969-2.684,13.73-3.46,17.7C101.613,199.378,99.418,201.035,96.93,200.55z
		 M96.33,242.23v-2.44c0-10.28,4.35-20.16,11.93-27.11c10.614,11.638,28.053,12.159,39.31,0.2c7.69,6.95,12.1,16.89,12.1,27.26v2.09
		c-0.01,3.86-3.16,7.01-7.02,7.02h-15.109c1.104-3.96,4.749-6.88,9.069-6.88c1.613,0,2.816-1.525,2.42-3.09
		c-0.57-2.34-1.49-4.59-2.75-6.69c-0.749-1.237-2.313-1.537-3.43-0.85c-1.18,0.7-1.57,2.24-0.86,3.43c0.5,0.83,0.94,1.7,1.3,2.58
		c-5.509,1.293-9.846,5.758-10.874,11.5h-8.835c-1.038-5.798-5.412-10.219-10.872-11.5c0.36-0.88,0.8-1.75,1.3-2.58
		c0.711-1.213,0.317-2.728-0.86-3.43c-1.14-0.69-2.75-0.28-3.43,0.85c-1.26,2.1-2.18,4.35-2.75,6.69
		c-0.4,1.578,0.826,3.09,2.42,3.09c4.32,0,7.966,2.921,9.07,6.88h-15.11C99.49,249.24,96.34,246.09,96.33,242.23z M48.77,26.83
		C48.79,15.78,57.8,6.77,68.85,6.75C79.9,6.77,88.9,15.78,88.92,26.83C88.9,37.87,79.9,46.88,68.85,46.9
		C57.8,46.88,48.79,37.87,48.77,26.83z M167.08,26.82c0.02-11.04,9.03-20.05,20.07-20.07c11.05,0.02,20.06,9.03,20.08,20.07
		c-0.02,11.05-9.03,20.06-20.08,20.08C176.11,46.88,167.1,37.87,167.08,26.82z M187.15,51.9c17.07,0,30.99,13.92,31.02,31.02v63.417
		l-62.04-39.581c0-21.15,0-15.053,0-23.836C156.16,65.85,170.08,51.93,187.15,51.9z M113.24,46.92c0.01-8.13,6.64-14.75,14.76-14.77
		c8.13,0.02,14.75,6.64,14.76,14.77c-0.01,8.12-6.63,14.75-14.76,14.76C119.88,61.67,113.25,55.04,113.24,46.92z M126.66,89.67
		l-21.79,13.903V89.81c0.02-12.73,10.4-23.11,23.13-23.13c12.75,0.02,23.13,10.4,23.13,23.13v13.756L129.35,89.67
		C128.54,89.16,127.46,89.16,126.66,89.67z"/>
	<path d="M77.99,126.65c1.16-0.74,1.5-2.29,0.76-3.45c-0.72-1.12-2.32-1.49-3.45-0.76c-1.184,0.748-1.5,2.3-0.76,3.45
		C75.281,127.049,76.825,127.388,77.99,126.65z"/>
	<path d="M115.17,189.34c1.37,0,2.5-1.12,2.5-2.5v-0.83c0-1.38-1.13-2.51-2.5-2.51c-1.38,0-2.5,1.13-2.5,2.51v0.83
		C112.67,188.22,113.79,189.34,115.17,189.34z"/>
	<path d="M140.83,189.34c1.38,0,2.5-1.12,2.5-2.5v-0.83c0-1.38-1.12-2.51-2.5-2.51c-1.37,0-2.5,1.13-2.5,2.51v0.83
		C138.33,188.22,139.46,189.34,140.83,189.34z"/>
	<path d="M103.98,154.02c-0.01,0-0.01,0-0.02,0c-1.22,0.609-1.746,2.076-1.13,3.35c0.613,1.226,2.08,1.747,3.35,1.13
		c1.24-0.61,1.74-2.12,1.13-3.35C106.72,153.95,105.19,153.42,103.98,154.02z"/>
	<circle cx="211.33" cy="226.3" r="2.5"/>
	<path d="M35.33,99.39c1.38,0,2.5-1.12,2.5-2.49c0-1.38-1.12-2.5-2.5-2.5c-1.38,0-2.5,1.12-2.5,2.5
		C32.83,98.27,33.95,99.39,35.33,99.39z"/>
	<path d="M119.75,132.61c-1.38,0-2.5,1.12-2.5,2.5s1.12,2.5,2.5,2.5h16.5c1.38,0,2.5-1.12,2.5-2.5s-1.12-2.5-2.5-2.5H119.75z"/>
</g>
</svg>
