<?xml version="1.0" encoding="utf-8"?>
<!-- Generator: Adobe Illustrator 24.3.0, SVG Export Plug-In . SVG Version: 6.00 Build 0)  -->
<svg version="1.1" id="Layer_1" xmlns="http://www.w3.org/2000/svg" xmlns:xlink="http://www.w3.org/1999/xlink" x="0px" y="0px"
	 viewBox="0 0 300 300" enable-background="new 0 0 300 300" xml:space="preserve">
<g>
	<g>
		<g>
			<path fill="#7FD3B9" d="M95.178,67.766L62.284,150H51.32c-16.447,0-32.894,16.447-32.894,32.893c0,16.447,0,38.376,0,38.376
				h38.376c0-15.14,12.271-27.411,27.411-27.411c15.14,0,27.411,12.271,27.411,27.411h71.269c0-15.14,12.271-27.411,27.411-27.411
				c15.14,0,27.411,12.271,27.411,27.411h27.411V67.766H95.178z"/>
		</g>
		<g>
			<path fill="#BBEAD9" d="M62.284,150H51.32c-16.447,0-32.894,16.447-32.894,32.893c0,16.447,0,38.376,0,38.376h10.965
				c0,0,0-21.929,0-38.376C29.391,166.447,45.837,150,62.284,150z"/>
		</g>
		<g>
			<polygon fill="#BBEAD9" points="106.142,67.766 95.178,67.766 62.284,150 73.249,150 			"/>
		</g>
		<g>
			<path fill="#FE6F80" d="M160.761,67.766c0,0,0.203-16.447-12.753-16.447H124.58c-12.956,0-12.86,15.794-12.753,16.447H160.761z"
				/>
		</g>
		<g>
			<path fill="#FFA1AA" d="M135.545,51.319H124.58c-12.956,0-12.86,15.794-12.753,16.447h10.965
				C122.685,67.113,122.589,51.319,135.545,51.319z"/>
		</g>
		<g>
			<polygon fill="#E5E5E4" points="139.036,150 89.695,150 111.624,89.695 139.036,89.695 			"/>
		</g>
		<g>
			<polygon fill="#EFEFEF" points="111.624,89.695 89.695,150 100.66,150 122.589,89.695 			"/>
		</g>
		<g>
			<circle fill="#C1C1C1" cx="84.213" cy="221.269" r="27.411"/>
		</g>
		<g>
			<circle fill="#C1C1C1" cx="210.305" cy="221.269" r="27.411"/>
		</g>
		<g>
			<path fill="#D1D1D1" d="M67.766,221.269c0-13.261,9.417-24.316,21.929-26.86c-1.772-0.359-3.603-0.551-5.482-0.551
				c-15.14,0-27.411,12.271-27.411,27.411c0,15.14,12.271,27.411,27.411,27.411c1.879,0,3.71-0.193,5.482-0.551
				C77.184,245.586,67.766,234.53,67.766,221.269z"/>
		</g>
		<g>
			<path fill="#D1D1D1" d="M193.858,221.269c0-13.261,9.417-24.316,21.929-26.86c-1.772-0.359-3.603-0.551-5.482-0.551
				c-15.14,0-27.411,12.271-27.411,27.411c0,15.14,12.271,27.411,27.411,27.411c1.879,0,3.71-0.193,5.482-0.551
				C203.275,245.586,193.858,234.53,193.858,221.269z"/>
		</g>
		<g>
			<rect x="265.127" y="204.822" fill="#FE6F80" width="16.447" height="16.447"/>
		</g>
		<g>
			<circle fill="#E5E5E4" cx="84.213" cy="221.269" r="10.965"/>
		</g>
		<g>
			<circle fill="#E5E5E4" cx="210.305" cy="221.269" r="10.965"/>
		</g>
		<g>
			
				<ellipse transform="matrix(0.2298 -0.9732 0.9732 0.2298 28.3398 297.4332)" fill="#FE6F80" cx="202.081" cy="130.812" rx="41.117" ry="41.117"/>
		</g>
		<g>
			<path fill="#FFA1AA" d="M171.929,130.812c0-20.847,15.526-38.022,35.635-40.71c-1.799-0.241-3.62-0.407-5.482-0.407
				c-22.711,0-41.117,18.406-41.117,41.117s18.406,41.117,41.117,41.117c1.863,0,3.684-0.166,5.482-0.407
				C187.455,168.834,171.929,151.66,171.929,130.812z"/>
		</g>
		<g>
			<path fill="#E5E5E4" d="M214.416,139.036c-1.044-6.526-5.515-10.965-12.335-10.965c-6.82,0-11.291,4.438-12.335,10.965
				c-5.488,0-8.223,4.363-8.223,8.454c0,4.406,3.581,7.993,7.999,7.993c2.056,0,23.064,0,25.12,0c4.417,0,7.999-3.587,7.999-7.993
				C222.64,143.399,219.904,139.036,214.416,139.036z"/>
		</g>
		<g>
			<path fill="#E5E5E4" d="M226.751,125.33c0,4.54-2.452,8.223-5.482,8.223c-3.03,0-5.482-3.684-5.482-8.223
				c0-4.54,2.452-8.223,5.482-8.223C224.299,117.106,226.751,120.79,226.751,125.33z"/>
		</g>
		<g>
			<path fill="#E5E5E4" d="M188.376,125.33c0,4.54-2.452,8.223-5.482,8.223c-3.03,0-5.482-3.684-5.482-8.223
				c0-4.54,2.452-8.223,5.482-8.223C185.923,117.106,188.376,120.79,188.376,125.33z"/>
		</g>
		<g>
			<path fill="#E5E5E4" d="M199.34,114.365c0,4.54-2.452,8.223-5.482,8.223c-3.03,0-5.482-3.684-5.482-8.223
				c0-4.54,2.452-8.223,5.482-8.223C196.888,106.142,199.34,109.826,199.34,114.365z"/>
		</g>
		<g>
			<path fill="#E5E5E4" d="M215.787,114.365c0,4.54-2.452,8.223-5.482,8.223c-3.03,0-5.482-3.684-5.482-8.223
				c0-4.54,2.452-8.223,5.482-8.223C213.335,106.142,215.787,109.826,215.787,114.365z"/>
		</g>
	</g>
	<g>
		<g>
			<path fill="#161616" d="M160.761,73.248h-48.933c-2.688,0-4.974-1.943-5.413-4.593c-0.23-1.435-0.289-10.665,5.102-17.014
				c3.228-3.796,7.742-5.803,13.063-5.803h23.428c4.754,0,8.914,1.67,12.035,4.829c6.157,6.232,6.21,16.067,6.2,17.169
				C166.206,70.834,163.765,73.248,160.761,73.248z M118.07,62.284h36.32c-0.471-1.478-1.162-2.923-2.168-3.935
				c-0.664-0.664-1.82-1.547-4.213-1.547H124.58c-2.559,0-3.764,0.942-4.449,1.654C119.152,59.473,118.499,60.876,118.07,62.284z"/>
		</g>
		<g>
			<path fill="#161616" d="M139.036,155.482h-49.34c-1.788,0-3.464-0.873-4.492-2.34c-1.022-1.461-1.274-3.335-0.659-5.016
				l21.929-60.305c0.787-2.168,2.843-3.608,5.15-3.608h27.411c3.03,0,5.482,2.452,5.482,5.482V150
				C144.518,153.03,142.066,155.482,139.036,155.482z M97.522,144.518h36.031v-49.34h-18.09L97.522,144.518z"/>
		</g>
		<g>
			<path fill="#161616" d="M84.213,254.163c-18.139,0-32.894-14.755-32.894-32.894s14.755-32.893,32.894-32.893
				s32.894,14.755,32.894,32.893S102.352,254.163,84.213,254.163z M84.213,199.34c-12.094,0-21.929,9.835-21.929,21.929
				s9.835,21.929,21.929,21.929s21.929-9.835,21.929-21.929S96.307,199.34,84.213,199.34z"/>
		</g>
		<g>
			<path fill="#161616" d="M210.305,254.163c-18.139,0-32.894-14.755-32.894-32.894s14.755-32.893,32.894-32.893
				s32.893,14.755,32.893,32.893S228.443,254.163,210.305,254.163z M210.305,199.34c-12.094,0-21.929,9.835-21.929,21.929
				s9.835,21.929,21.929,21.929c12.094,0,21.929-9.835,21.929-21.929S222.399,199.34,210.305,199.34z"/>
		</g>
		<g>
			<path fill="#161616" d="M281.574,226.751h-16.447c-3.03,0-5.482-2.452-5.482-5.482v-16.447c0-3.03,2.452-5.482,5.482-5.482
				h16.447c3.03,0,5.482,2.452,5.482,5.482v16.447C287.056,224.299,284.604,226.751,281.574,226.751z M270.609,215.787h5.482v-5.482
				h-5.482V215.787z"/>
		</g>
		<g>
			<path fill="#161616" d="M84.213,237.716c-9.069,0-16.447-7.377-16.447-16.447c0-9.069,7.378-16.447,16.447-16.447
				s16.447,7.377,16.447,16.447C100.66,230.339,93.282,237.716,84.213,237.716z M84.213,215.787c-3.025,0-5.482,2.457-5.482,5.482
				s2.457,5.482,5.482,5.482s5.482-2.457,5.482-5.482S87.238,215.787,84.213,215.787z"/>
		</g>
		<g>
			<path fill="#161616" d="M210.305,237.716c-9.069,0-16.447-7.377-16.447-16.447c0-9.069,7.378-16.447,16.447-16.447
				c9.069,0,16.447,7.377,16.447,16.447C226.751,230.339,219.374,237.716,210.305,237.716z M210.305,215.787
				c-3.025,0-5.482,2.457-5.482,5.482s2.457,5.482,5.482,5.482c3.025,0,5.482-2.457,5.482-5.482S213.33,215.787,210.305,215.787z"/>
		</g>
		<g>
			<path fill="#161616" d="M214.416,139.036c-1.044-6.526-5.515-10.965-12.335-10.965c-6.82,0-11.291,4.438-12.335,10.965
				c-5.488,0-8.223,4.363-8.223,8.454c0,4.406,3.581,7.993,7.999,7.993c2.056,0,23.064,0,25.12,0c4.417,0,7.999-3.587,7.999-7.993
				C222.64,143.399,219.904,139.036,214.416,139.036z"/>
		</g>
		<g>
			<path fill="#161616" d="M226.751,125.33c0,4.54-2.452,8.223-5.482,8.223c-3.03,0-5.482-3.684-5.482-8.223
				c0-4.54,2.452-8.223,5.482-8.223C224.299,117.106,226.751,120.79,226.751,125.33z"/>
		</g>
		<g>
			<path fill="#161616" d="M188.376,125.33c0,4.54-2.452,8.223-5.482,8.223c-3.03,0-5.482-3.684-5.482-8.223
				c0-4.54,2.452-8.223,5.482-8.223C185.923,117.106,188.376,120.79,188.376,125.33z"/>
		</g>
		<g>
			<path fill="#161616" d="M199.34,114.365c0,4.54-2.452,8.223-5.482,8.223c-3.03,0-5.482-3.684-5.482-8.223
				c0-4.54,2.452-8.223,5.482-8.223C196.888,106.142,199.34,109.826,199.34,114.365z"/>
		</g>
		<g>
			<path fill="#161616" d="M215.787,114.365c0,4.54-2.452,8.223-5.482,8.223c-3.03,0-5.482-3.684-5.482-8.223
				c0-4.54,2.452-8.223,5.482-8.223C213.335,106.142,215.787,109.826,215.787,114.365z"/>
		</g>
		<g>
			<path fill="#161616" d="M265.127,226.751h-27.411c-3.03,0-5.482-2.452-5.482-5.482c0-12.094-9.835-21.929-21.929-21.929
				c-12.094,0-21.929,9.835-21.929,21.929c0,3.03-2.452,5.482-5.482,5.482h-71.269c-3.03,0-5.482-2.452-5.482-5.482
				c0-12.094-9.835-21.929-21.929-21.929s-21.929,9.835-21.929,21.929c0,3.03-2.452,5.482-5.482,5.482H18.426
				c-3.03,0-5.482-2.452-5.482-5.482v-16.447c0-3.03,2.452-5.482,5.482-5.482s5.482,2.452,5.482,5.482v10.964h27.866
				c2.618-15.537,16.168-27.411,32.438-27.411s29.82,11.875,32.438,27.411h61.215c2.618-15.537,16.168-27.411,32.438-27.411
				s29.82,11.875,32.438,27.411h16.902V73.248H98.888l-31.512,78.786c-0.835,2.083-2.848,3.448-5.091,3.448H51.32
				c-13.32,0-27.411,14.091-27.411,27.411c0,3.03-2.452,5.482-5.482,5.482s-5.482-2.452-5.482-5.482
				c0-19.365,19.011-38.376,38.376-38.376h7.254l31.512-78.786c0.835-2.083,2.848-3.448,5.091-3.448h169.95
				c3.03,0,5.482,2.452,5.482,5.482v153.503C270.609,224.299,268.157,226.751,265.127,226.751z"/>
		</g>
		<g>
			<path fill="#161616" d="M202.081,177.411c-25.693,0-46.599-20.906-46.599-46.599s20.906-46.599,46.599-46.599
				c2.131,0,4.32,0.177,6.89,0.557c2.993,0.444,5.065,3.228,4.62,6.226c-0.439,2.987-3.223,5.011-6.226,4.62
				c-2.024-0.3-3.705-0.439-5.284-0.439c-19.648,0-35.635,15.986-35.635,35.635s15.986,35.635,35.635,35.635
				s35.635-15.986,35.635-35.635c0-10.617-4.69-20.607-12.87-27.411c-2.329-1.933-2.645-5.391-0.707-7.72
				c1.927-2.318,5.375-2.645,7.72-0.707c10.691,8.893,16.821,21.956,16.821,35.838C248.68,156.505,227.774,177.411,202.081,177.411z
				"/>
		</g>
	</g>
</g>
</svg>
