<svg xmlns="http://www.w3.org/2000/svg" viewBox="0 0 512 512"><defs><style>.cls-1{fill:#eaac2e;}.cls-2{fill:#854538;}.cls-3{fill:#783e35;}.cls-4{fill:#619fd8;}.cls-5{fill:#f0c788;}.cls-6{fill:#eaac6c;}.cls-14,.cls-7{fill:none;stroke-linecap:round;stroke-miterlimit:10;stroke-width:8px;}.cls-7{stroke:#ad7d55;}.cls-8{fill:#76c27d;}.cls-9{fill:#db3a46;}.cls-10{fill:#a93341;}.cls-11{fill:#5d97c0;}.cls-12{fill:#af3542;}.cls-13{fill:#8d2d3e;}.cls-14{stroke:#8d2d3e;}</style></defs><title>Charity</title><g id="BULINE"><circle class="cls-1" cx="256" cy="262" r="250"/></g><g id="Icons"><circle class="cls-2" cx="262.02" cy="258.12" r="54.43"/><path class="cls-3" d="M196.79,204.33A46.92,46.92,0,0,0,177,155.1a35.83,35.83,0,0,0,6.07-40.48,35.84,35.84,0,1,0-51.69-14.16,35.83,35.83,0,0,0-6.52,54.64,47,47,0,0,0,11.76,83.79,47,47,0,1,0,60.15-34.56Z"/><path class="cls-2" d="M329.86,204.33a47.4,47.4,0,0,1-1.12-10.18,46.91,46.91,0,0,1,20.89-39.05,35.85,35.85,0,0,1-6.06-40.48,35.84,35.84,0,1,1,51.68-14.16,35.82,35.82,0,0,1,6.53,54.64A47,47,0,0,1,390,238.89a47,47,0,1,1-60.16-34.56Z"/><path class="cls-4" d="M412.31,407.69A210.81,210.81,0,0,0,403.77,374l-30.33-88.23-.09-.25a29.84,29.84,0,0,0-31.72-19.93,25.64,25.64,0,0,0-13.76-4H191.44a25.78,25.78,0,0,0-15.66,5.28h0c-.6.47-1.19,1-1.75,1.47a25.75,25.75,0,0,0-8.4,19.05V432.3H157v59.33a248,248,0,0,0,43.89,14.27,251.28,251.28,0,0,0,152.8-13.7V458.72h45.08a16.42,16.42,0,0,0,16.42-16.42A209.75,209.75,0,0,0,412.31,407.69Zm-55.17-.48h-3.46v-10l3,8.73h0Z"/><path class="cls-5" d="M232.35,231.07H291.7a0,0,0,0,1,0,0v41a13.08,13.08,0,0,1-13.08,13.08H245.43a13.08,13.08,0,0,1-13.08-13.08v-41A0,0,0,0,1,232.35,231.07Z"/><path class="cls-2" d="M366.8,78.21l-8.38,76.06H165.62l0-.21-8.43-75.78A68,68,0,0,1,217.65,3.15c2.32-.23,4.68-.35,7.06-.35h74.54A68,68,0,0,1,366.8,78.21Z"/><ellipse class="cls-6" cx="165.62" cy="157.37" rx="16.86" ry="21.99"/><path class="cls-6" d="M291.87,61.8s-24.23,43.55-109.39,43.55c0,0-3.95,22.18-16.86,30V157.5a96.4,96.4,0,1,0,192.8,0V135.38S291.87,113.78,291.87,61.8Z"/><ellipse class="cls-6" cx="358.42" cy="157.37" rx="16.86" ry="21.99"/><path class="cls-5" d="M358.42,115.28V157.5a96.44,96.44,0,0,1-81.65,95.28,96.44,96.44,0,0,1-81.65-95.28V115.28A96.42,96.42,0,0,1,276.77,20a96.43,96.43,0,0,1,81.65,95.28Z"/><path class="cls-7" d="M244,194.15a18,18,0,1,0,36.09,0"/><path class="cls-7" d="M295.76,142.49a13.91,13.91,0,0,0,27.81,0"/><path class="cls-7" d="M207.6,142.49a13.9,13.9,0,0,0,27.8,0"/><rect class="cls-6" x="248.33" y="164.09" width="27.39" height="15.28" rx="7.64"/><path class="cls-2" d="M361.13,114.42l-2.71,21s-66.55-21.59-66.55-73.56c0,0-21.7,39-96.2,43.17q-6.33.38-13.19.37s-6,22.35-18.94,30.2l2.08-20.27A96.4,96.4,0,0,1,330.19,47.11C347.63,64.55,361.13,87.8,361.13,114.42Z"/><path class="cls-8" d="M181.64,407.21v51.51H112.78A16.42,16.42,0,0,1,96.36,442.3,210,210,0,0,1,107.77,374l30.43-88.49A29.81,29.81,0,0,1,176.11,267l4,1.36,19.73,6.78L171.67,357l-17.26,50.21Z"/><path class="cls-3" d="M202.27,39.64C194.06,72,195.67,105,195.67,105q-6.33.38-13.19.37s-6.5,30.59-18.94,30.2l-6.37-57.27A68,68,0,0,1,217.65,3.15C210.45,13.76,205.56,26.64,202.27,39.64Z"/><path class="cls-9" d="M362.56,107.14a105,105,0,0,1-.72,12.22,102.91,102.91,0,0,0-204.37,0A103,103,0,0,1,210,17l0,0a102.94,102.94,0,0,1,152.55,90.16Z"/><path class="cls-10" d="M210,17c-.35.4-6,7.13-9.49,30.37a102.82,102.82,0,0,0-43,72A103,103,0,0,1,210,17Z"/><path class="cls-11" d="M192.88,398c0-.66-.11-1.31-.15-2h0a336.7,336.7,0,0,1,.2-53.34v0a272.45,272.45,0,0,1,3.91-28.73,189.68,189.68,0,0,1,5.64-22.37,118,118,0,0,1,7.35-18h0a66.67,66.67,0,0,1,7.79-11.95H197.48a25.72,25.72,0,0,0-17.41,6.76l-4-1.37-.33-.11-.83-.26h0c-.8-.25-1.61-.45-2.43-.62-.4-.09-.81-.16-1.22-.23q-1.22-.21-2.43-.3a31.37,31.37,0,0,0-3.75-.07l-.79.05c-.37,0-.74.06-1.1.1a4.1,4.1,0,0,0-.49.06c-.3,0-.6.07-.89.12s-.51.08-.77.14l-.23,0c-.25,0-.49.09-.73.15l-.09,0-.71.16c-.53.14-1.05.28-1.57.44l-.61.19c-.56.19-1.11.38-1.65.6l-.7.29a29.51,29.51,0,0,0-4.28,2.24l-.57.38-.73.49c-.28.2-.56.4-.83.61l-.6.47-.47.39-.61.52-.59.54-.58.55c-.38.38-.75.77-1.11,1.16-.19.2-.36.41-.54.61s-.53.63-.79.95l-.19.24c-.22.29-.44.57-.65.87l-.12.16c-.26.37-.52.75-.76,1.13s-.49.77-.72,1.17c0,0,0,.08-.07.13-.21.37-.42.74-.62,1.13l0,.07c-.16.31-.32.63-.47,1l-.27.6c-.16.35-.3.7-.44,1.06s-.34.89-.5,1.34L107.77,374A210,210,0,0,0,96.36,442.3a16.42,16.42,0,0,0,16.42,16.42H157v32.91a248,248,0,0,0,43.89,14.27V458.72h9.34V398Zm-21.21,0H157.56l8.06-23.44,6-17.6Z"/><path class="cls-9" d="M353.41,409.47l-96.22,96.22-79.28-79.28L161,409.47a56,56,0,0,1,79.25-79.25l16.94,16.94,16.94-16.94a56,56,0,0,1,79.28,79.25Z"/><path class="cls-12" d="M257.19,505.69l-79.28-79.28L161,409.47a56,56,0,0,1,33-95.27C190.11,355.34,193.28,434.44,257.19,505.69Z"/><path class="cls-5" d="M205.47,415.82a6.08,6.08,0,0,0-.19-8.74,6.27,6.27,0,0,0-8.66.36l-4.75,4.82-1-1,4.75-4.81a6.25,6.25,0,0,0,.26-8.66,6.09,6.09,0,0,0-8.75-.08l-7.72,7.82a9.2,9.2,0,0,0-2.3.67l-5.76-8a7.24,7.24,0,0,0-11.39-.9h0a4.32,4.32,0,0,0-.42,5.34L169.14,416h0a6.48,6.48,0,0,0,1,8l29.48,29.1a6.48,6.48,0,0,0,8,.87l6-3.77a12.19,12.19,0,0,0,1.2-.91l0,0,11.95-12.11a6.26,6.26,0,0,0,.25-8.66,6.08,6.08,0,0,0-8.74-.08l-4.94,5-2.16-2.15,4.75-4.81a6.26,6.26,0,0,0,.25-8.66,6.08,6.08,0,0,0-8.74-.08l-4.94,5-2-1.95Z"/><circle class="cls-13" cx="226.89" cy="382.1" r="8.27"/><circle class="cls-13" cx="289.33" cy="382.1" r="8.27"/><path class="cls-14" d="M229.54,414.55a27.66,27.66,0,0,0,55.32,0"/><path class="cls-5" d="M318.63,416.78a6.1,6.1,0,0,1-.71-8.72,6.27,6.27,0,0,1,8.66-.52l5.22,4.3.88-1.07-5.22-4.3a6.25,6.25,0,0,1-1.14-8.59,6.1,6.1,0,0,1,8.69-1l8.48,7a9.53,9.53,0,0,1,2.36.43l4.9-8.58A7.24,7.24,0,0,1,362,393.68h0a4.32,4.32,0,0,1,1,5.27l-8.16,14.29h0a6.49,6.49,0,0,1-.15,8.05l-26.35,32a6.47,6.47,0,0,1-7.86,1.69l-6.36-3.14a11,11,0,0,1-1.29-.78l0,0-13.13-10.82a6.25,6.25,0,0,1-1.14-8.59,6.09,6.09,0,0,1,8.69-1l5.42,4.46,1.94-2.35-5.22-4.3a6.26,6.26,0,0,1-1.15-8.59,6.1,6.1,0,0,1,8.7-1l5.41,4.47,1.77-2.15Z"/></g></svg>